<svg width="89" height="33" viewBox="0 0 89 33" fill="none" xmlns="http://www.w3.org/2000/svg">
<path d="M17.8921 26H22.0059C22.8604 25.9919 23.6538 25.8901 24.3862 25.6948C25.1268 25.4995 25.79 25.2188 26.376 24.8525C26.9294 24.5026 27.4299 24.0794 27.8774 23.583C28.325 23.0866 28.6953 22.5332 28.9883 21.9229C29.2731 21.3369 29.4888 20.694 29.6353 19.9941C29.7899 19.2943 29.8672 18.5537 29.8672 17.7725V16.4663C29.859 15.6525 29.7736 14.8875 29.6108 14.1714C29.4562 13.4552 29.2284 12.7961 28.9272 12.1938C28.5936 11.4858 28.146 10.8633 27.5845 10.3262C27.0311 9.78092 26.3923 9.34147 25.668 9.00781C25.1471 8.76367 24.5775 8.5765 23.959 8.44629C23.3486 8.30794 22.6976 8.2347 22.0059 8.22656H17.8921V26ZM20.187 10.082H22.0059C22.5674 10.0902 23.0841 10.1553 23.5562 10.2773C24.0282 10.3913 24.4554 10.554 24.8379 10.7656C25.375 11.0505 25.8267 11.4248 26.1929 11.8887C26.5672 12.3444 26.8643 12.8571 27.084 13.4268C27.2549 13.8662 27.381 14.3423 27.4624 14.855C27.5519 15.3595 27.6007 15.8885 27.6089 16.4419V17.7725C27.6007 18.3177 27.556 18.8426 27.4746 19.3472C27.3932 19.8436 27.2712 20.3075 27.1084 20.7388C26.9212 21.2677 26.6649 21.7479 26.3394 22.1792C26.022 22.6024 25.6436 22.9604 25.2041 23.2534C24.7891 23.5382 24.313 23.758 23.7759 23.9126C23.2469 24.0672 22.6569 24.1486 22.0059 24.1567H20.187V10.082ZM33.1143 26H38.8027C39.5596 25.9919 40.292 25.8739 41 25.646C41.7161 25.4181 42.3468 25.0885 42.8921 24.6572C43.4373 24.234 43.8727 23.7051 44.1982 23.0703C44.5238 22.4355 44.6825 21.7031 44.6743 20.873C44.6743 20.3441 44.5929 19.8517 44.4302 19.396C44.2756 18.9403 44.0558 18.5293 43.771 18.1631C43.5024 17.8294 43.1606 17.5243 42.7456 17.2476C42.3306 16.9709 41.8993 16.7796 41.4517 16.6738V16.6372C41.883 16.45 42.2492 16.2507 42.5503 16.0391C42.8595 15.8275 43.1403 15.5671 43.3926 15.2578C43.6367 14.9567 43.828 14.6149 43.9663 14.2324C44.1128 13.8499 44.1901 13.4268 44.1982 12.9629C44.2064 12.1328 44.0477 11.4207 43.7222 10.8267C43.3966 10.2326 42.9613 9.7443 42.416 9.36182C41.8708 8.97933 41.2482 8.69857 40.5483 8.51953C39.8485 8.33236 39.1323 8.2347 38.3999 8.22656H33.1143V26ZM35.3848 17.687H38.9858C39.466 17.7033 39.9136 17.7847 40.3286 17.9312C40.7437 18.0776 41.1058 18.2852 41.415 18.5537C41.7243 18.8304 41.9644 19.1641 42.1353 19.5547C42.3143 19.9453 42.3997 20.3929 42.3916 20.8975C42.3916 21.3939 42.2939 21.8374 42.0986 22.228C41.9115 22.6187 41.6551 22.9482 41.3296 23.2168C41.0041 23.4854 40.6297 23.6969 40.2065 23.8516C39.7834 23.998 39.3358 24.0754 38.8638 24.0835H35.3848V17.687ZM35.3848 15.8071V10.1553H38.4731C38.9126 10.1634 39.3398 10.2204 39.7549 10.3262C40.1781 10.432 40.5524 10.5947 40.8779 10.8145C41.1953 11.0423 41.4476 11.3312 41.6348 11.6812C41.8301 12.0311 41.9277 12.4543 41.9277 12.9507C41.9277 13.4146 41.8301 13.8215 41.6348 14.1714C41.4395 14.5213 41.1831 14.8143 40.8657 15.0503C40.5483 15.2944 40.1862 15.4816 39.7793 15.6118C39.3724 15.7339 38.9574 15.799 38.5342 15.8071H35.3848ZM59.3105 8.22656H57.1255L57.0889 20.2627C57.0726 20.7917 56.9871 21.3003 56.8325 21.7886C56.6779 22.2769 56.4541 22.7082 56.1611 23.0825C55.86 23.465 55.4897 23.7702 55.0503 23.998C54.6108 24.2178 54.1022 24.3276 53.5244 24.3276C52.9466 24.3276 52.4339 24.2137 51.9863 23.9858C51.5469 23.758 51.1807 23.4569 50.8877 23.0825C50.5866 22.7082 50.3547 22.2769 50.1919 21.7886C50.0373 21.3003 49.9559 20.7917 49.9478 20.2627L49.8989 8.22656H47.7505L47.7261 20.2627C47.7342 21.0928 47.8807 21.874 48.1655 22.6064C48.4504 23.3307 48.8451 23.9614 49.3496 24.4985C49.8542 25.0438 50.4604 25.471 51.1685 25.7803C51.8765 26.0895 52.6618 26.2441 53.5244 26.2441C54.3708 26.2441 55.1479 26.0895 55.856 25.7803C56.564 25.4629 57.1743 25.0316 57.687 24.4863C58.1997 23.9492 58.6025 23.3185 58.8955 22.5942C59.1885 21.87 59.335 21.0928 59.335 20.2627L59.3105 8.22656ZM74.667 23.6685L74.6304 17.1499H68.8687V19.0542H72.4819L72.4575 23.0459C72.2703 23.3145 72.0384 23.5342 71.7617 23.7051C71.485 23.8678 71.188 23.998 70.8706 24.0957C70.5532 24.1934 70.2236 24.2585 69.8818 24.291C69.5482 24.3236 69.2267 24.3358 68.9175 24.3276C68.3804 24.3195 67.9002 24.2259 67.4771 24.0469C67.0539 23.8597 66.6836 23.6115 66.3662 23.3022C66.0407 22.993 65.764 22.6349 65.5361 22.228C65.3083 21.8211 65.1211 21.3898 64.9746 20.9341C64.8281 20.4784 64.7183 20.0145 64.645 19.5425C64.5799 19.0623 64.5433 18.5985 64.5352 18.1509V16.0635C64.5352 15.624 64.5636 15.1683 64.6206 14.6963C64.6776 14.2243 64.7712 13.7604 64.9014 13.3047C65.0316 12.849 65.1984 12.4176 65.4019 12.0107C65.6053 11.5957 65.8617 11.2336 66.1709 10.9243C66.4801 10.6151 66.8423 10.3709 67.2573 10.1919C67.6724 10.0047 68.1484 9.91113 68.6855 9.91113C69.2471 9.91113 69.7394 10.0007 70.1626 10.1797C70.5858 10.3506 70.952 10.5907 71.2612 10.8999C71.5623 11.2091 71.8065 11.5835 71.9937 12.0229C72.1808 12.4543 72.3192 12.9263 72.4087 13.439H74.6426C74.5693 12.6089 74.374 11.8602 74.0566 11.1929C73.7393 10.5174 73.3201 9.93962 72.7993 9.45947C72.2785 8.98747 71.6681 8.62533 70.9683 8.37305C70.2684 8.11263 69.5034 7.98242 68.6733 7.98242C67.9246 7.98242 67.2492 8.09229 66.647 8.31201C66.0448 8.53174 65.5076 8.82878 65.0356 9.20312C64.5555 9.58561 64.1445 10.0373 63.8027 10.5581C63.4609 11.0708 63.1761 11.6283 62.9482 12.2305C62.7204 12.8327 62.5495 13.4634 62.4355 14.1226C62.3298 14.7736 62.2728 15.4287 62.2646 16.0879V18.1509C62.2728 18.8182 62.3379 19.4814 62.46 20.1406C62.5902 20.7917 62.7814 21.4142 63.0337 22.0083C63.2778 22.6105 63.583 23.168 63.9492 23.6807C64.3154 24.1934 64.7427 24.6369 65.231 25.0112C65.7192 25.3937 66.2686 25.6948 66.8789 25.9146C67.4974 26.1261 68.1729 26.236 68.9053 26.2441C69.6296 26.2523 70.3213 26.1709 70.9805 26C71.6396 25.8372 72.2541 25.585 72.8237 25.2432C73.1574 25.0479 73.4788 24.82 73.7881 24.5596C74.0973 24.291 74.3903 23.994 74.667 23.6685Z" fill="#F2F2F2"/>
<g opacity="0.1" clip-path="url(#clip0)">
<path d="M20.4687 2.93377L21.1776 1.33881C21.3911 0.858445 21.1747 0.295834 20.6943 0.0823649C20.2138 -0.131233 19.6513 0.0852008 19.4379 0.565634L18.4199 2.85604H14.5802L13.5622 0.56557C13.3488 0.0852008 12.7862 -0.131233 12.3058 0.0823005C11.8254 0.295769 11.6091 0.85838 11.8225 1.33875L12.5314 2.93371C10.6364 3.3056 9.20206 4.97855 9.20206 6.98091V8.56743H23.7981V6.98091C23.798 4.97868 22.3637 3.3056 20.4687 2.93377Z" fill="#F2F2F2"/>
<path d="M32.048 16.8174H26.3365V14.8382C29.2101 14.3805 31.4134 11.8852 31.4134 8.8848V7.61559C31.4134 7.08991 30.9872 6.66368 30.4615 6.66368C29.9358 6.66368 29.5096 7.08991 29.5096 7.61559V8.8848C29.5096 10.8317 28.1535 12.4667 26.3365 12.8977V12.0579C26.3365 11.1831 25.6248 10.4714 24.75 10.4714H17.452V21.577C17.452 22.1027 17.0258 22.5289 16.5001 22.5289C15.9743 22.5289 15.5482 22.1027 15.5482 21.577V10.4713H8.25015C7.37533 10.4713 6.66364 11.183 6.66364 12.0578V12.8976C4.84671 12.4666 3.49061 10.8316 3.49061 8.88473V7.61552C3.49061 7.08984 3.06438 6.66361 2.5387 6.66361C2.01302 6.66361 1.5868 7.08984 1.5868 7.61552V8.88473C1.5868 11.8852 3.79013 14.3803 6.6637 14.8381V16.8174H0.952061C0.426381 16.8174 0.000152588 17.2436 0.000152588 17.7693C0.000152588 18.295 0.426381 18.7212 0.952061 18.7212H6.66358V20.7004C3.79 21.1582 1.58667 23.6534 1.58667 26.6538V27.923C1.58667 28.4487 2.0129 28.8749 2.53857 28.8749C3.06425 28.8749 3.49048 28.4487 3.49048 27.923V26.6538C3.49048 24.7069 4.84658 23.072 6.66351 22.6409V23.1634C6.66358 28.5873 11.0762 33 16.5 33C21.9238 33 26.3365 28.5873 26.3365 23.1636V22.641C28.1534 23.0721 29.5095 24.7071 29.5095 26.6539V27.9232C29.5095 28.4488 29.9357 28.8751 30.4614 28.8751C30.9871 28.8751 31.4133 28.4488 31.4133 27.9232V26.6539C31.4133 23.6535 29.21 21.1583 26.3364 20.7005V18.7213H32.0479C32.5736 18.7213 32.9998 18.2951 32.9998 17.7694C32.9998 17.2437 32.5737 16.8174 32.048 16.8174Z" fill="#F2F2F2"/>
</g>
<rect x="81" y="4" width="8" height="24" fill="#F2F2F2"/>
<defs>
<clipPath id="clip0">
<rect width="33" height="33" fill="white"/>
</clipPath>
</defs>
</svg>
