<svg width="635" height="483" viewBox="0 0 635 483" fill="none" xmlns="http://www.w3.org/2000/svg">
<path d="M23.7632 480.39L0.244491 194.38C-0.351296 187.095 1.68531 179.837 5.98887 173.912L123.046 12.7856C126.175 8.47908 130.375 5.05434 135.235 2.84606C140.095 0.637285 145.447 -0.279003 150.77 0.186548L551.595 35.2386C557.94 35.794 563.957 38.2877 568.818 42.3774C573.678 46.4672 577.149 51.9531 578.753 58.0817L633.863 268.834C635.223 274.018 635.188 279.465 633.764 284.632L579.909 481.022L23.7632 480.39Z" fill="#F4F4F4"/>
<path d="M193.661 359.357C193.661 359.357 192.668 365.158 190.638 369.562C188.999 373.37 188.046 377.436 187.823 381.573C187.823 383.573 183.394 384.772 183.394 384.772L181.984 399.983H254.446C254.446 399.983 250.623 390.178 248.206 390.178C245.788 390.178 240.758 389.378 240.758 389.378L232.909 372.366L228.212 365.864C226.502 363.495 224.226 361.586 221.59 360.308C218.953 359.031 216.039 358.426 213.109 358.547L193.661 359.357Z" fill="#61656D"/>
<path opacity="0.2" d="M193.661 359.357C193.661 359.357 199.092 360.344 200.706 361.959C202.319 363.573 205.13 373.166 205.13 373.166L207.145 377.969L225.262 379.371L232.183 371.364L226.677 363.751C225.44 362.038 223.794 360.657 221.888 359.733C219.981 358.809 217.874 358.369 215.754 358.454L193.661 359.357Z" fill="white"/>
<path opacity="0.3" d="M192.802 399.998L206.54 395.846L233.41 399.998H192.802Z" fill="black"/>
<path opacity="0.3" d="M207.146 377.984L206.541 395.846L233.411 399.998L225.263 379.386L207.146 377.984Z" fill="black"/>
<path d="M225.913 389.739C225.913 389.81 225.935 389.88 225.974 389.939C226.014 389.998 226.071 390.044 226.137 390.072C226.203 390.099 226.276 390.106 226.347 390.092C226.417 390.078 226.481 390.044 226.532 389.994C226.582 389.943 226.617 389.879 226.631 389.809C226.645 389.739 226.638 389.667 226.611 389.601C226.583 389.535 226.537 389.479 226.477 389.439C226.418 389.399 226.348 389.378 226.276 389.378C226.228 389.378 226.181 389.387 226.137 389.406C226.093 389.424 226.053 389.451 226.019 389.484C225.986 389.517 225.959 389.557 225.941 389.601C225.923 389.645 225.913 389.691 225.913 389.739Z" fill="#514A4A"/>
<path opacity="0.3" d="M196.024 368.629C196.024 368.629 191.059 376.034 191.059 380.349C191.059 384.664 187.851 387.754 186.233 389.378C184.614 391.003 186.233 399.998 186.233 399.998H192.821C192.821 399.998 188.497 392.365 190.776 390.099C193.055 387.833 193.68 383.025 193.68 379.386C193.68 375.748 196.024 368.629 196.024 368.629Z" fill="black"/>
<path opacity="0.2" d="M248.106 391.358C248.106 391.358 235.729 398.665 235.729 396.789C235.729 394.913 239.755 390.632 239.755 390.632C240.235 390.942 240.792 391.113 241.364 391.126C243.861 391.447 248.106 390.356 248.106 391.358Z" fill="white"/>
<path d="M156.523 383.597C156.523 383.597 172.014 389.833 173.305 404.332H176.254C176.254 404.332 174.779 387.448 156.523 383.597Z" fill="#FF3636"/>
<path d="M178.289 404.318C178.289 404.318 177.167 391.482 163.27 388.549C163.27 388.549 175.062 393.293 176.045 404.318H178.289Z" fill="#FF3636"/>
<path d="M195.105 383.508C195.105 383.508 179.614 389.744 178.323 404.243H175.374C175.374 404.243 176.849 387.359 195.105 383.508Z" fill="#FF3636"/>
<path d="M176.725 405.226C176.725 405.226 170.886 393.723 181.154 383.958C181.154 383.958 173.637 394.162 178.636 404.051L176.725 405.226Z" fill="#FF3636"/>
<g opacity="0.2">
<path opacity="0.2" d="M178.289 404.318C178.289 404.318 177.167 391.482 163.27 388.549C163.27 388.549 175.062 393.293 176.045 404.318H178.289Z" fill="black"/>
</g>
<g opacity="0.2">
<path opacity="0.2" d="M176.725 405.226C176.725 405.226 170.886 393.723 181.154 383.958C181.154 383.958 173.637 394.162 178.636 404.051L176.725 405.226Z" fill="black"/>
</g>
<path d="M178.415 376.794C178.415 376.794 170.193 391.264 178.256 403.404L175.942 405.226C175.942 405.226 166.534 391.111 178.415 376.794Z" fill="#FF3636"/>
<g opacity="0.2">
<path opacity="0.2" d="M178.415 376.794C178.415 376.794 170.193 391.264 178.256 403.404L175.942 405.226C175.942 405.226 166.534 391.111 178.415 376.794Z" fill="white"/>
</g>
<path d="M181.77 276.387C181.77 276.387 163.927 293.326 153.47 291.647L148.64 297.705C148.64 297.705 168.579 299.398 181.77 276.387Z" fill="#3F4249"/>
<path opacity="0.1" d="M181.77 276.387C181.77 276.387 168.896 294.516 151.981 295.148L154.96 291.351C154.96 291.351 162.258 294.042 181.77 276.387Z" fill="black"/>
<path d="M104.919 272.3C104.919 272.3 103.236 296.772 94.3788 302.553L94.915 310.264C94.915 310.264 110.788 298.139 104.919 272.3Z" fill="#3F4249"/>
<path opacity="0.3" d="M104.919 272.3C104.919 272.3 107.715 294.323 95.6697 306.142L95.2825 301.343C95.2825 301.343 102.491 298.421 104.919 272.3Z" fill="black"/>
<path d="M162.78 264.795C162.78 264.795 145.551 306.32 126.799 311.237L123.219 324.927C123.219 324.927 157.869 313.054 162.78 264.795Z" fill="#3F4249"/>
<path opacity="0.3" d="M162.78 264.795C162.78 264.795 154.752 304.636 126.934 318.213L129.068 309.647C129.068 309.647 143.298 308.749 162.78 264.795Z" fill="black"/>
<path d="M81.6677 276.451C81.6677 276.451 98.8909 317.976 117.643 322.893L121.228 336.583C121.228 336.583 86.5581 324.71 81.6677 276.451Z" fill="#3F4249"/>
<path opacity="0.3" d="M81.6677 276.451C81.6677 276.451 89.691 316.292 117.509 329.864L115.374 321.303C115.374 321.303 101.135 320.405 81.6677 276.451Z" fill="black"/>
<path d="M119.624 246.983L114.853 430.819L133.635 430.241L125.562 246.79L119.624 246.983Z" fill="#3F4249"/>
<path opacity="0.3" d="M122.266 246.934L123.75 430.389L133.635 430.241L125.562 246.79L122.266 246.934Z" fill="black"/>
<path d="M174.268 185.415C171.691 185.421 169.12 185.687 166.597 186.21C159.761 172.046 143.262 162.019 123.899 162.019C108.131 162.019 94.1793 168.718 85.8978 178.908C83.2635 178.409 80.5864 178.162 77.9044 178.172C57.7668 178.172 41.4521 191.862 41.4521 208.742C41.4521 223.024 53.0849 234.971 68.8286 238.363V239.351H174.268C192.022 239.351 206.406 227.28 206.406 212.385C206.406 197.49 192.022 185.415 174.268 185.415Z" fill="#FF3636"/>
<g opacity="0.2">
<path opacity="0.2" d="M174.268 185.415C171.691 185.421 169.12 185.687 166.597 186.21C159.761 172.046 143.262 162.019 123.899 162.019C108.131 162.019 94.1793 168.718 85.8978 178.908C83.2635 178.409 80.5864 178.162 77.9044 178.172C57.7668 178.172 41.4521 191.862 41.4521 208.742C41.4521 223.024 53.0849 234.971 68.8286 238.363V239.351H174.268C192.022 239.351 206.406 227.28 206.406 212.385C206.406 197.49 192.022 185.415 174.268 185.415Z" fill="white"/>
</g>
<path opacity="0.2" d="M179.08 185.75C173.951 210.331 140.066 229.319 98.9912 229.319C76.8527 229.319 56.7896 223.799 42.2028 214.863C44.9881 226.347 55.3994 235.47 68.8295 238.363V239.351H174.269C192.023 239.351 206.407 227.28 206.407 212.385C206.407 198.858 194.546 187.701 179.08 185.75Z" fill="black"/>
<path d="M202.706 238.368C200.839 238.37 198.977 238.564 197.15 238.946C192.185 228.672 180.21 221.415 166.184 221.415C154.765 221.415 144.631 226.273 138.624 233.658C136.707 233.286 134.758 233.1 132.805 233.1C118.193 233.1 106.362 243.043 106.362 255.287C106.362 265.654 114.802 274.309 126.222 276.767V277.483H202.681C215.59 277.483 226.016 268.73 226.016 257.923C226.016 247.116 215.59 238.368 202.706 238.368Z" fill="#FF3636"/>
<g opacity="0.2">
<path opacity="0.2" d="M202.706 238.368C200.839 238.37 198.977 238.564 197.15 238.946C192.185 228.672 180.21 221.415 166.184 221.415C154.765 221.415 144.631 226.273 138.624 233.658C136.707 233.286 134.758 233.1 132.805 233.1C118.193 233.1 106.362 243.043 106.362 255.287C106.362 265.654 114.802 274.309 126.222 276.767V277.483H202.681C215.59 277.483 226.016 268.73 226.016 257.923C226.016 247.116 215.59 238.368 202.706 238.368Z" fill="white"/>
</g>
<path opacity="0.2" d="M206.326 239.079C202.602 256.906 178.026 270.675 148.236 270.675C132.18 270.675 117.643 266.666 107.053 260.184C109.073 268.513 116.62 275.133 126.361 277.231V277.942H202.81C215.689 277.942 226.145 269.189 226.145 258.382C226.145 248.578 217.541 240.496 206.326 239.079Z" fill="black"/>
<path d="M117.564 239.884C115.695 239.891 113.832 240.085 112.003 240.461C107.038 230.193 95.063 222.935 81.0471 222.935C69.6279 222.935 59.4896 227.788 53.4771 235.179C51.5646 234.809 49.6208 234.62 47.6731 234.616C33.0714 234.616 21.2301 244.559 21.2301 256.807C21.2301 267.175 29.6704 275.829 41.0897 278.288V278.239L117.549 278.999C130.428 278.999 140.884 270.251 140.884 259.449C140.884 248.647 130.443 239.884 117.564 239.884Z" fill="#FF3636"/>
<g opacity="0.2">
<path opacity="0.2" d="M117.564 239.884C115.695 239.891 113.832 240.085 112.003 240.461C107.038 230.193 95.063 222.935 81.0471 222.935C69.6279 222.935 59.4896 227.788 53.4771 235.179C51.5646 234.809 49.6208 234.62 47.6731 234.616C33.0714 234.616 21.2301 244.559 21.2301 256.807C21.2301 267.175 29.6704 275.829 41.0897 278.288V278.239L117.549 278.999C130.428 278.999 140.884 270.251 140.884 259.449C140.884 248.647 130.443 239.884 117.564 239.884Z" fill="white"/>
</g>
<path opacity="0.2" d="M121.06 240.135C117.336 257.963 92.7597 271.732 62.9704 271.732C46.909 271.732 32.3668 267.728 21.7866 261.241C23.8024 269.569 31.354 276.19 41.0901 278.283V278.234L117.549 278.994C130.428 278.994 140.884 270.246 140.884 259.444C140.879 249.639 132.275 241.547 121.06 240.135Z" fill="black"/>
<path d="M62.6069 272.526C62.6069 272.526 76.0916 293.069 86.6668 293.819L89.9833 300.805C89.9833 300.805 70.1734 297.932 62.6069 272.526Z" fill="#3F4249"/>
<path opacity="0.3" d="M62.6069 272.526C62.6069 272.526 70.9877 293.104 87.2973 297.572L85.2766 293.202C85.2766 293.202 77.5562 294.145 62.6069 272.526Z" fill="black"/>
<path d="M58.7051 409.412C58.076 412.02 58.2731 414.757 59.2696 417.248C60.2665 419.74 62.0142 421.864 64.2727 423.329C66.5312 424.793 69.1899 425.528 71.8849 425.431C74.5798 425.334 77.1784 424.41 79.3243 422.787C81.2442 424.409 83.5221 425.557 85.9728 426.139H86.007L91.9649 426.42L123.81 427.901L140.417 428.691L158.529 429.545C160.925 430.118 163.452 429.721 165.554 428.441C167.655 427.162 169.159 425.104 169.735 422.722C170.311 420.34 169.912 417.827 168.625 415.738C167.338 413.648 165.27 412.152 162.873 411.58C161.721 411.308 160.526 411.256 159.353 411.427C159.337 410.064 158.854 408.747 157.985 407.694C157.114 406.641 155.909 405.915 154.567 405.635C153.226 405.356 151.829 405.539 150.607 406.156C149.384 406.773 148.41 407.786 147.845 409.027C146.359 405.055 143.348 401.83 139.474 400.062C139.882 399.377 140.183 398.634 140.368 397.86C140.873 395.769 140.522 393.564 139.393 391.73C138.263 389.896 136.448 388.583 134.345 388.08C133.179 387.8 131.965 387.783 130.79 388.031C129.484 384.483 127.103 381.425 123.976 379.279C120.849 377.132 117.129 376.003 113.33 376.046C109.531 376.09 105.838 377.303 102.762 379.52C99.6848 381.738 97.3751 384.849 96.1508 388.426C94.7974 388.425 93.4837 388.877 92.4202 389.709C91.3567 390.541 90.6055 391.704 90.2867 393.012C90.1706 393.519 90.1174 394.037 90.1284 394.557C87.6151 394.495 85.1223 395.019 82.8489 396.086C80.5754 397.154 78.5845 398.735 77.036 400.704C76.2078 400.309 75.3409 400.001 74.4487 399.785C72.7796 399.39 71.0478 399.324 69.3533 399.594C67.6583 399.863 66.0338 400.462 64.5716 401.356C63.1099 402.25 61.8394 403.422 60.8325 404.804C59.8262 406.186 59.1033 407.752 58.7051 409.412Z" fill="#B2B6BB"/>
<path d="M118.805 432.423C113.174 431.762 107.539 431.234 101.974 430.819C99.5706 430.631 97.1825 430.478 94.8143 430.325H94.6554C90.5182 430.082 86.4584 429.893 82.4765 429.757L80.3317 429.679C78.6386 429.629 76.9556 429.58 75.2923 429.55C73.9865 429.511 72.6907 429.491 71.4048 429.471C66.1966 429.387 61.2317 429.377 56.5846 429.422C54.549 429.442 52.5829 429.468 50.6863 429.501C48.1393 429.545 45.7214 429.604 43.4425 429.674C30.0373 430.073 21.597 430.774 21.597 430.774C20.8036 429.459 20.4412 427.93 20.5594 426.4C20.9814 421.528 26.403 418.008 32.7283 418.501C32.5411 417.709 32.4811 416.893 32.5496 416.082C33.0014 410.864 38.7656 407.087 45.4583 407.655C51.019 408.149 55.4526 411.471 56.5101 415.594C58.1773 415.15 59.9101 415.001 61.6289 415.154C64.5428 415.364 67.3192 416.47 69.5728 418.319C71.2534 418.487 72.8928 418.941 74.4185 419.662C76.5584 416.467 81.0317 414.483 85.9966 414.902C87.0333 414.991 88.0581 415.184 89.055 415.48C90.4486 415.203 91.8746 415.125 93.2901 415.248C98.3592 415.677 102.49 418.487 103.979 422.105C105.175 421.915 106.388 421.874 107.594 421.982C114.217 422.51 119.256 427.2 118.805 432.423Z" fill="#B2B6BB"/>
<path d="M125.894 427.857C125.815 431.372 156.895 433.134 156.969 429.787C157.002 428.329 156.503 426.908 155.565 425.787C154.627 424.666 153.313 423.92 151.865 423.685C152.069 423.177 152.178 422.637 152.188 422.09C152.203 421.482 152.097 420.876 151.875 420.309C151.654 419.741 151.323 419.223 150.9 418.782C150.477 418.342 149.971 417.989 149.411 417.743C148.851 417.498 148.247 417.364 147.635 417.351C147.495 417.344 147.354 417.344 147.213 417.351C146.498 414.315 143.49 411.994 139.831 411.92C135.576 411.827 132.06 414.794 131.976 418.551C131.953 419.64 132.224 420.716 132.76 421.666C128.997 421.834 125.969 424.524 125.894 427.857Z" fill="#B2B6BB"/>
<path opacity="0.1" d="M119.172 433.026C113.552 432.29 107.922 431.698 102.361 431.209C99.9628 430.992 97.5747 430.809 95.2064 430.636H95.0481C90.9173 430.34 86.8609 430.1 82.8791 429.916L80.7338 429.812C79.0407 429.738 77.3631 429.669 75.6999 429.619C74.3891 429.565 73.0928 429.525 71.8119 429.491C66.6037 429.343 61.6388 429.269 56.9917 429.254C54.9561 429.254 52.9905 429.254 51.0939 429.254C48.5469 429.254 46.129 429.293 43.8451 429.333C30.4399 429.565 21.9648 430.157 21.9648 430.157C21.1829 428.834 20.8358 427.302 20.9719 425.773C21.4683 420.906 26.9297 417.455 33.2401 418.003C33.0609 417.209 33.0102 416.393 33.0912 415.584C33.5877 410.37 39.4164 406.663 46.0843 407.314C51.635 407.857 56.0141 411.264 57.0368 415.391C58.709 414.967 60.4438 414.84 62.1601 415.016C65.0681 415.264 67.827 416.404 70.0543 418.279C71.7324 418.467 73.3649 418.941 74.8802 419.681C77.0598 416.517 81.5579 414.586 86.5179 415.07C87.5545 415.17 88.5778 415.377 89.5718 415.687C90.9689 415.426 92.3968 415.366 93.8113 415.51C98.8705 416.003 102.972 418.862 104.411 422.495C105.609 422.323 106.822 422.296 108.026 422.416C114.709 423.043 119.689 427.812 119.172 433.026Z" fill="black"/>
<g opacity="0.1">
<path opacity="0.1" d="M126.391 427.857C126.311 431.372 157.391 433.134 157.466 429.787C157.498 428.329 157 426.908 156.062 425.787C155.124 424.666 153.81 423.92 152.362 423.685C152.565 423.177 152.675 422.637 152.685 422.09C152.699 421.482 152.593 420.876 152.372 420.309C152.151 419.741 151.82 419.223 151.397 418.782C150.974 418.342 150.468 417.989 149.908 417.743C149.347 417.498 148.744 417.364 148.132 417.351C147.991 417.344 147.851 417.344 147.71 417.351C146.995 414.315 143.986 411.994 140.327 411.92C136.072 411.827 132.557 414.794 132.473 418.551C132.45 419.64 132.721 420.716 133.257 421.666C129.494 421.834 126.465 424.524 126.391 427.857Z" fill="black"/>
</g>
<path d="M480.721 425.211C480.09 427.818 480.289 430.555 481.287 433.047C482.285 435.538 484.027 437.662 486.286 439.128C488.545 440.594 491.207 441.325 493.902 441.231C496.593 441.132 499.195 440.209 501.34 438.585C503.261 440.209 505.535 441.354 507.988 441.937H508.023L513.98 442.218L545.825 443.699L562.433 444.489L580.545 445.343C582.943 445.916 585.47 445.521 587.57 444.237C589.67 442.959 591.175 440.905 591.751 438.521C592.326 436.138 591.929 433.626 590.638 431.536C589.352 429.447 587.287 427.951 584.889 427.378C583.737 427.106 582.541 427.055 581.369 427.225C581.354 425.862 580.872 424.546 579.999 423.493C579.13 422.44 577.923 421.713 576.583 421.433C575.242 421.154 573.842 421.338 572.621 421.954C571.399 422.571 570.426 423.584 569.86 424.826C568.376 420.853 565.362 417.629 561.49 415.86C561.897 415.175 562.199 414.432 562.383 413.658C562.89 411.567 562.537 409.362 561.41 407.529C560.278 405.694 558.466 404.381 556.361 403.878C555.194 403.598 553.978 403.582 552.806 403.829C551.5 400.281 549.117 397.223 545.994 395.077C542.866 392.931 539.148 391.801 535.344 391.844C531.546 391.888 527.852 393.101 524.779 395.319C521.701 397.536 519.392 400.647 518.166 404.224C516.815 404.223 515.5 404.676 514.437 405.507C513.375 406.339 512.62 407.502 512.302 408.81C512.188 409.317 512.134 409.836 512.143 410.355C509.631 410.293 507.139 410.817 504.865 411.884C502.591 412.952 500.6 414.533 499.051 416.502C498.222 416.107 497.358 415.799 496.464 415.584C494.796 415.188 493.063 415.123 491.37 415.392C489.672 415.662 488.049 416.26 486.589 417.154C485.124 418.048 483.854 419.22 482.851 420.602C481.843 421.984 481.118 423.55 480.721 425.211Z" fill="#B2B6BB"/>
<path d="M540.821 448.222C535.191 447.56 529.555 447.032 523.99 446.617C521.587 446.429 519.199 446.276 516.83 446.123H516.672C512.536 445.881 508.475 445.689 504.493 445.556L502.348 445.477C500.655 445.427 498.972 445.378 497.309 445.348C496.003 445.309 494.707 445.289 493.421 445.269C488.213 445.185 483.248 445.175 478.601 445.22C476.565 445.24 474.599 445.264 472.702 445.299C470.155 445.343 467.738 445.403 465.459 445.472C452.054 445.872 443.613 446.573 443.613 446.573C442.819 445.254 442.456 443.729 442.576 442.199C442.998 437.326 448.419 433.806 454.745 434.299C454.556 433.508 454.496 432.691 454.566 431.88C455.018 426.662 460.782 422.885 467.474 423.453C473.035 423.947 477.469 427.269 478.526 431.392C480.194 430.948 481.927 430.799 483.645 430.952C486.56 431.162 489.335 432.268 491.589 434.117C493.267 434.285 494.91 434.739 496.435 435.46C498.575 432.265 503.048 430.281 508.013 430.7C509.05 430.789 510.073 430.982 511.071 431.278C512.466 431.001 513.891 430.923 515.306 431.046C520.375 431.476 524.506 434.285 525.996 437.903C527.192 437.713 528.404 437.672 529.61 437.78C536.233 438.308 541.273 442.998 540.821 448.222Z" fill="#B2B6BB"/>
<path d="M547.911 443.655C547.831 447.17 578.911 448.932 578.986 445.585C579.016 444.129 578.519 442.707 577.581 441.586C576.642 440.466 575.327 439.715 573.882 439.483C574.085 438.975 574.195 438.437 574.205 437.889C574.22 437.28 574.11 436.675 573.892 436.107C573.668 435.539 573.341 435.021 572.914 434.58C572.492 434.14 571.985 433.787 571.424 433.542C570.868 433.296 570.262 433.162 569.652 433.149C569.513 433.142 569.369 433.142 569.23 433.149C568.515 430.113 565.506 427.793 561.847 427.718C557.592 427.625 554.077 430.592 553.993 434.349C553.968 435.438 554.241 436.514 554.777 437.464C551.014 437.632 547.985 440.322 547.911 443.655Z" fill="#B2B6BB"/>
<path opacity="0.1" d="M541.317 448.222C535.687 447.56 530.052 447.032 524.486 446.617C522.083 446.429 519.695 446.276 517.327 446.123H517.168C513.032 445.881 508.971 445.689 504.989 445.556L502.844 445.477C501.151 445.427 499.468 445.378 497.805 445.348C496.499 445.309 495.203 445.289 493.917 445.269C488.709 445.185 483.744 445.175 479.097 445.22C477.062 445.24 475.096 445.264 473.199 445.299C470.652 445.343 468.234 445.403 465.955 445.472C452.55 445.872 444.11 446.573 444.11 446.573C443.315 445.254 442.953 443.729 443.072 442.199C443.494 437.326 448.916 433.806 455.241 434.299C455.052 433.508 454.993 432.691 455.062 431.88C455.514 426.662 461.278 422.885 467.971 423.453C473.532 423.947 477.965 427.269 479.023 431.392C480.691 430.948 482.424 430.799 484.142 430.952C487.056 431.162 489.831 432.268 492.085 434.117C493.764 434.285 495.407 434.739 496.931 435.46C499.071 432.265 503.544 430.281 508.509 430.7C509.547 430.789 510.57 430.982 511.568 431.278C512.963 431.001 514.388 430.923 515.803 431.046C520.872 431.476 525.003 434.285 526.492 437.903C527.689 437.713 528.9 437.672 530.107 437.78C536.73 438.308 541.769 442.998 541.317 448.222Z" fill="black"/>
<g opacity="0.1">
<path opacity="0.1" d="M548.407 443.655C548.328 447.17 579.408 448.932 579.482 445.585C579.512 444.129 579.016 442.707 578.077 441.586C577.139 440.466 575.823 439.715 574.378 439.483C574.582 438.975 574.691 438.437 574.701 437.889C574.716 437.28 574.607 436.675 574.388 436.107C574.165 435.539 573.837 435.021 573.41 434.58C572.988 434.14 572.482 433.787 571.921 433.542C571.365 433.296 570.759 433.162 570.148 433.149C570.009 433.142 569.865 433.142 569.726 433.149C569.011 430.113 566.003 427.793 562.344 427.718C558.089 427.625 554.573 430.592 554.489 434.349C554.464 435.438 554.737 436.514 555.274 437.464C551.51 437.632 548.481 440.322 548.407 443.655Z" fill="black"/>
</g>
<path d="M19.6066 431.594C19.6066 431.594 122.876 409.872 222.174 452.823H463.964C463.964 452.823 561.773 430.607 589.08 446.899L580.093 480.223L23.6927 479.976L19.6066 431.594Z" fill="#DADDDF"/>
<path d="M533.264 203.74C533.264 203.74 509.433 226.376 495.442 224.135L488.987 232.226C488.987 232.226 515.639 234.488 533.264 203.74Z" fill="#3F4249"/>
<path opacity="0.1" d="M533.264 203.74C533.264 203.74 516.061 227.961 493.466 228.83L497.438 223.755C497.438 223.755 507.194 227.334 533.264 203.74Z" fill="black"/>
<path d="M430.575 198.28C430.575 198.28 428.331 230.982 416.495 238.704L417.21 249.012C417.21 249.012 438.42 232.804 430.575 198.28Z" fill="#3F4249"/>
<path opacity="0.3" d="M430.575 198.28C430.575 198.28 434.309 227.705 418.223 243.503L417.726 237.085C417.726 237.085 427.333 233.184 430.575 198.28Z" fill="black"/>
<path d="M507.884 188.253C507.884 188.253 484.866 243.734 459.814 250.305L455.027 268.602C455.027 268.602 501.33 252.72 507.884 188.253Z" fill="#3F4249"/>
<path opacity="0.3" d="M507.884 188.253C507.884 188.253 497.164 241.488 459.992 259.631L462.847 248.188C462.847 248.188 481.838 246.978 507.884 188.253Z" fill="black"/>
<path d="M399.491 203.844C399.491 203.844 422.502 259.325 447.56 265.896L452.351 284.188C452.351 284.188 406.049 268.306 399.491 203.844Z" fill="#3F4249"/>
<path opacity="0.3" d="M399.491 203.844C399.491 203.844 410.215 257.074 447.382 275.212L444.527 263.773C444.527 263.773 425.526 262.554 399.491 203.844Z" fill="black"/>
<path d="M450.231 164.453L443.852 410.084L468.949 409.314L458.16 164.196L450.231 164.453Z" fill="#3F4249"/>
<path opacity="0.3" d="M453.761 164.388L455.742 409.511L468.949 409.314L458.16 164.196L453.761 164.388Z" fill="black"/>
<path d="M523.235 82.1937C519.79 82.2011 516.359 82.5551 512.988 83.2502C503.857 64.3271 481.778 50.9579 455.951 50.9579C434.885 50.9579 416.231 59.9036 405.175 73.5196C401.651 72.8388 398.07 72.4952 394.48 72.4927C367.58 72.4927 345.775 90.8087 345.775 113.356C345.775 132.442 361.325 148.408 382.356 152.935V154.248H523.235C546.957 154.248 566.177 138.124 566.177 118.209C566.177 98.293 546.957 82.1937 523.235 82.1937Z" fill="#FF3636"/>
<g opacity="0.2">
<path opacity="0.2" d="M523.235 82.1937C519.79 82.2011 516.359 82.5551 512.988 83.2502C503.857 64.3271 481.778 50.9579 455.951 50.9579C434.885 50.9579 416.231 59.9036 405.175 73.5196C401.651 72.8388 398.07 72.4952 394.48 72.4927C367.58 72.4927 345.775 90.8087 345.775 113.356C345.775 132.442 361.325 148.408 382.356 152.935V154.248H523.235C546.957 154.248 566.177 138.124 566.177 118.209C566.177 98.293 546.957 82.1937 523.235 82.1937Z" fill="white"/>
</g>
<path opacity="0.2" d="M529.67 82.6429C522.813 115.483 477.538 140.854 422.656 140.854C393.076 140.854 366.285 133.478 346.783 121.536C350.502 136.88 364.413 149.069 382.356 152.935V154.248H523.235C546.957 154.248 566.177 138.124 566.177 118.208C566.177 100.169 550.353 85.2447 529.67 82.6429Z" fill="black"/>
<path d="M561.241 152.95C558.739 152.953 556.242 153.209 553.794 153.715C547.166 139.985 531.159 130.289 512.422 130.289C497.145 130.289 483.625 136.781 475.592 146.65C473.035 146.158 470.439 145.91 467.837 145.91C448.32 145.91 432.512 159.195 432.512 175.531C432.512 189.354 443.787 200.946 459.044 204.234V205.192H561.221C578.435 205.192 592.371 193.492 592.371 179.056C592.371 164.62 578.455 152.95 561.241 152.95Z" fill="#FF3636"/>
<g opacity="0.2">
<path opacity="0.2" d="M561.241 152.95C558.739 152.953 556.242 153.209 553.794 153.715C547.166 139.985 531.159 130.289 512.422 130.289C497.145 130.289 483.625 136.781 475.592 146.65C473.035 146.158 470.439 145.91 467.837 145.91C448.32 145.91 432.512 159.195 432.512 175.531C432.512 189.354 443.787 200.946 459.044 204.234V205.192H561.221C578.435 205.192 592.371 193.492 592.371 179.056C592.371 164.62 578.455 152.95 561.241 152.95Z" fill="white"/>
</g>
<path opacity="0.2" d="M566.072 153.893C561.107 177.713 528.26 196.113 488.451 196.113C467.003 196.113 447.57 190.761 433.425 182.102C436.121 193.225 446.21 202.072 459.243 204.881V205.819H561.42C578.628 205.819 592.575 194.123 592.575 179.683C592.555 166.58 581.061 155.783 566.072 153.893Z" fill="black"/>
<path d="M447.476 154.969C444.974 154.976 442.481 155.234 440.029 155.739C433.411 142.019 417.394 132.323 398.667 132.323C383.38 132.323 369.871 138.8 361.833 148.679C359.277 148.186 356.681 147.935 354.077 147.929C334.57 147.929 318.747 161.214 318.747 177.575C318.747 191.398 330.023 202.995 345.285 206.278V206.214L447.461 207.231C464.664 207.231 478.611 195.54 478.611 181.105C478.611 166.669 464.679 154.969 447.476 154.969Z" fill="#FF3636"/>
<g opacity="0.2">
<path opacity="0.2" d="M447.476 154.969C444.974 154.976 442.481 155.234 440.029 155.739C433.411 142.019 417.394 132.323 398.667 132.323C383.38 132.323 369.871 138.8 361.833 148.679C359.277 148.186 356.681 147.935 354.077 147.929C334.57 147.929 318.747 161.214 318.747 177.575C318.747 191.398 330.023 202.995 345.285 206.278V206.214L447.461 207.231C464.664 207.231 478.611 195.54 478.611 181.105C478.611 166.669 464.679 154.969 447.476 154.969Z" fill="white"/>
</g>
<path opacity="0.2" d="M452.143 155.309C447.178 179.125 414.331 197.535 374.527 197.535C353.069 197.535 333.641 192.183 319.501 183.524C322.192 194.647 332.286 203.489 345.319 206.288V206.224L447.496 207.241C464.699 207.241 478.645 195.55 478.645 181.115C478.626 168.002 467.132 157.195 452.143 155.309Z" fill="black"/>
<path d="M374.046 198.586C374.046 198.586 392.063 226.06 406.188 227.048L410.622 236.379C410.622 236.379 384.154 232.533 374.046 198.586Z" fill="#3F4249"/>
<path opacity="0.3" d="M374.046 198.586C374.046 198.586 385.241 226.08 407.037 232.049L404.336 226.199C404.336 226.199 394.019 227.472 374.046 198.586Z" fill="black"/>
<path d="M532.976 399.998H153.162V479.976H532.976V399.998Z" fill="#868A91"/>
<path d="M429.146 384.412C429.146 384.412 440.868 389.132 441.846 400.096H444.08C444.08 400.096 442.963 387.33 429.146 384.412Z" fill="#FF3636"/>
<path d="M445.619 400.096C445.619 400.096 444.77 390.381 434.254 388.159C434.254 388.159 443.191 391.753 443.921 400.096H445.619Z" fill="#FF3636"/>
<path d="M458.349 384.343C458.349 384.343 446.622 389.062 445.649 400.027H443.415C443.415 400.027 444.532 387.26 458.349 384.343Z" fill="#FF3636"/>
<path d="M444.437 400.783C444.437 400.783 440.019 392.074 447.789 384.688C447.789 384.688 442.099 392.41 445.882 399.894L444.437 400.783Z" fill="#FF3636"/>
<g opacity="0.2">
<path opacity="0.2" d="M445.619 400.096C445.619 400.096 444.77 390.381 434.254 388.159C434.254 388.159 443.191 391.753 443.921 400.096H445.619Z" fill="black"/>
</g>
<g opacity="0.2">
<path opacity="0.2" d="M444.437 400.783C444.437 400.783 440.019 392.074 447.789 384.688C447.789 384.688 442.099 392.41 445.882 399.894L444.437 400.783Z" fill="black"/>
</g>
<path d="M445.713 379.263C445.713 379.263 439.492 390.218 445.594 399.4L443.841 400.783C443.841 400.783 436.722 390.099 445.713 379.263Z" fill="#FF3636"/>
<g opacity="0.2">
<path opacity="0.2" d="M445.713 379.263C445.713 379.263 439.492 390.218 445.594 399.4L443.841 400.783C443.841 400.783 436.722 390.099 445.713 379.263Z" fill="white"/>
</g>
<path d="M210.194 389.349C210.194 389.349 221.916 394.069 222.895 405.033H225.154C225.154 405.033 224.012 392.267 210.194 389.349Z" fill="#FF3636"/>
<path d="M226.667 405.033C226.667 405.033 225.818 395.317 215.303 393.096C215.303 393.096 224.24 396.69 224.969 405.033H226.667Z" fill="#FF3636"/>
<path d="M239.397 389.28C239.397 389.28 227.67 393.999 226.697 404.964H224.462C224.462 404.964 225.58 392.197 239.397 389.28Z" fill="#FF3636"/>
<path d="M225.485 405.72C225.485 405.72 221.066 397.011 228.836 389.625C228.836 389.625 223.147 397.347 226.93 404.831L225.485 405.72Z" fill="#FF3636"/>
<g opacity="0.2">
<path opacity="0.2" d="M226.667 405.033C226.667 405.033 225.818 395.317 215.303 393.096C215.303 393.096 224.24 396.69 224.969 405.033H226.667Z" fill="black"/>
</g>
<g opacity="0.2">
<path opacity="0.2" d="M225.485 405.72C225.485 405.72 221.066 397.011 228.836 389.625C228.836 389.625 223.147 397.347 226.93 404.831L225.485 405.72Z" fill="black"/>
</g>
<path d="M226.762 384.2C226.762 384.2 220.541 395.155 226.643 404.337L224.89 405.72C224.89 405.72 217.77 395.036 226.762 384.2Z" fill="#FF3636"/>
<g opacity="0.2">
<path opacity="0.2" d="M226.762 384.2C226.762 384.2 220.541 395.155 226.643 404.337L224.89 405.72C224.89 405.72 217.77 395.036 226.762 384.2Z" fill="white"/>
</g>
<path d="M444.04 376.429C444.04 376.429 462.907 384.017 464.471 401.656H468.065C468.065 401.656 466.263 381.114 444.04 376.429Z" fill="#FF3636"/>
<path d="M470.543 401.656C470.543 401.656 469.173 386.021 452.257 382.457C452.257 382.457 466.611 388.233 467.807 401.656H470.543Z" fill="#FF3636"/>
<path d="M491.013 376.315C491.013 376.315 472.146 383.903 470.582 401.543H466.993C466.993 401.543 468.785 381 491.013 376.315Z" fill="#FF3636"/>
<path d="M468.636 402.757C468.636 402.757 461.526 388.751 474.028 376.868C474.028 376.868 464.878 389.29 470.965 401.326L468.636 402.757Z" fill="#FF3636"/>
<g opacity="0.2">
<path opacity="0.2" d="M470.543 401.656C470.543 401.656 469.173 386.021 452.257 382.457C452.257 382.457 466.611 388.233 467.807 401.656H470.543Z" fill="black"/>
</g>
<g opacity="0.2">
<path opacity="0.2" d="M468.636 402.757C468.636 402.757 461.526 388.751 474.028 376.868C474.028 376.868 464.878 389.29 470.965 401.326L468.636 402.757Z" fill="black"/>
</g>
<path d="M470.692 368.145C470.692 368.145 460.682 385.76 470.498 400.536L467.683 402.757C467.683 402.757 456.229 385.572 470.692 368.145Z" fill="#FF3636"/>
<g opacity="0.2">
<path opacity="0.2" d="M470.692 368.145C470.692 368.145 460.682 385.76 470.498 400.536L467.683 402.757C467.683 402.757 456.229 385.572 470.692 368.145Z" fill="white"/>
</g>
<path opacity="0.15" d="M532.976 399.998H153.162V479.976H532.976V399.998Z" fill="black"/>
<path d="M501.201 399.998H142.239V479.976H501.201V399.998Z" fill="#868A91"/>
<path d="M191.149 458.258C191.488 460.129 192.028 461.961 192.763 463.713C193.631 465.752 194.135 467.925 194.252 470.131C194.252 471.203 196.62 471.845 196.62 471.845L197.375 479.976H158.649C158.649 479.976 160.694 474.733 161.985 474.733C163.316 474.664 164.642 474.52 165.957 474.308L170.152 465.209L172.665 461.754C173.58 460.49 174.796 459.468 176.205 458.786C177.614 458.105 179.172 457.779 180.738 457.844L191.149 458.258Z" fill="#61656D"/>
<path opacity="0.2" d="M191.148 458.258C191.148 458.258 188.239 458.791 187.38 459.646C186.521 460.5 185.012 465.639 185.012 465.639L183.935 468.206L174.253 468.957L170.549 464.676L173.493 460.598C174.156 459.68 175.037 458.944 176.058 458.451C177.079 457.957 178.208 457.72 179.342 457.769L191.148 458.258Z" fill="white"/>
<path opacity="0.3" d="M191.605 479.976L184.257 477.759L169.893 479.976H191.605Z" fill="black"/>
<path opacity="0.3" d="M183.934 468.206L184.257 477.759L169.893 479.976L174.253 468.957L183.934 468.206Z" fill="black"/>
<path d="M173.899 474.49C173.9 474.515 173.896 474.54 173.886 474.564C173.877 474.589 173.863 474.609 173.844 474.628C173.826 474.648 173.805 474.658 173.781 474.668C173.757 474.678 173.732 474.683 173.706 474.683C173.655 474.683 173.606 474.663 173.569 474.628C173.533 474.589 173.512 474.54 173.512 474.49C173.514 474.441 173.535 474.392 173.57 474.357C173.607 474.318 173.655 474.298 173.706 474.298C173.757 474.298 173.807 474.318 173.843 474.352C173.879 474.392 173.899 474.441 173.899 474.49Z" fill="#514A4A"/>
<path opacity="0.3" d="M189.902 463.205C189.902 463.205 192.564 467.155 192.564 469.47C192.564 471.785 194.281 473.419 195.15 474.298C196.019 475.177 195.15 479.976 195.15 479.976H191.625C191.625 479.976 193.934 475.898 192.717 474.683C191.501 473.469 191.168 470.902 191.168 468.956C191.168 467.011 189.902 463.205 189.902 463.205Z" fill="black"/>
<path opacity="0.2" d="M162.039 475.374C162.039 475.374 168.657 479.284 168.657 478.292C168.657 477.3 166.502 475.004 166.502 475.004C166.247 475.172 165.949 475.266 165.643 475.271C164.308 475.404 162.039 474.822 162.039 475.374Z" fill="white"/>
<path d="M96.8161 458.258C97.1547 460.129 97.6954 461.961 98.4297 463.713C99.2985 465.752 99.8025 467.925 99.9191 470.131C99.9191 471.203 102.287 471.845 102.287 471.845L103.042 479.976H64.3159C64.3159 479.976 66.3615 474.733 67.6523 474.733C68.9829 474.664 70.309 474.52 71.6242 474.308L75.8196 465.209L78.3318 461.754C79.2468 460.49 80.4632 459.468 81.8723 458.786C83.2813 458.105 84.8388 457.779 86.4047 457.844L96.8161 458.258Z" fill="#61656D"/>
<path opacity="0.2" d="M96.8155 458.258C96.8155 458.258 93.9061 458.791 93.0472 459.646C92.1883 460.5 90.6789 465.639 90.6789 465.639L89.6015 468.206L79.92 468.957L76.2162 464.676L79.1604 460.598C79.8227 459.68 80.704 458.944 81.7252 458.451C82.746 457.957 83.8745 457.72 85.009 457.769L96.8155 458.258Z" fill="white"/>
<path opacity="0.3" d="M97.2719 479.976L89.9238 477.759L75.5604 479.976H97.2719Z" fill="black"/>
<path opacity="0.3" d="M89.6011 468.206L89.9239 477.759L75.5604 479.976L79.9196 468.957L89.6011 468.206Z" fill="black"/>
<path d="M79.5666 474.49C79.5676 474.515 79.5631 474.54 79.5532 474.564C79.5437 474.589 79.5298 474.609 79.5115 474.628C79.4936 474.648 79.4717 474.658 79.4479 474.668C79.4241 474.678 79.3988 474.683 79.3729 474.683C79.3218 474.683 79.2727 474.663 79.2364 474.628C79.1997 474.589 79.1793 474.54 79.1793 474.49C79.1808 474.441 79.2017 474.392 79.2374 474.357C79.2737 474.318 79.3223 474.298 79.3729 474.298C79.4246 474.298 79.4737 474.318 79.51 474.352C79.5462 474.392 79.5666 474.441 79.5666 474.49Z" fill="#514A4A"/>
<path opacity="0.3" d="M95.5693 463.205C95.5693 463.205 98.2305 467.155 98.2305 469.47C98.2305 471.785 99.9484 473.419 100.817 474.298C101.686 475.177 100.817 479.976 100.817 479.976H97.2922C97.2922 479.976 99.6008 475.898 98.3844 474.683C97.168 473.469 96.8354 470.902 96.8354 468.956C96.8354 467.011 95.5693 463.205 95.5693 463.205Z" fill="black"/>
<path opacity="0.2" d="M67.7059 475.374C67.7059 475.374 74.3241 479.284 74.3241 478.292C74.3241 477.3 72.1694 475.004 72.1694 475.004C71.9137 475.172 71.6163 475.266 71.3104 475.271C69.9749 475.404 67.7059 474.822 67.7059 475.374Z" fill="white"/>
<path d="M485.596 440.322C485.596 440.322 484.603 446.123 482.573 450.527C480.934 454.338 479.981 458.401 479.758 462.539C479.758 464.513 475.329 465.738 475.329 465.738L473.919 480.948H546.406C546.406 480.948 542.583 471.144 540.165 471.144C537.748 471.144 532.718 470.344 532.718 470.344L524.869 453.331L520.172 446.829C518.464 444.46 516.185 442.549 513.549 441.275C510.912 439.997 507.998 439.389 505.069 439.513L485.596 440.322Z" fill="#61656D"/>
<path opacity="0.2" d="M485.596 440.322C485.596 440.322 491.028 441.31 492.642 442.924C494.255 444.539 497.065 454.131 497.065 454.131L499.081 458.935L517.198 460.337L524.119 452.329L518.613 444.701C517.377 442.988 515.728 441.606 513.822 440.683C511.915 439.76 509.81 439.32 507.69 439.404L485.596 440.322Z" fill="white"/>
<path opacity="0.3" d="M484.737 480.963L498.475 476.811L525.345 480.963H484.737Z" fill="black"/>
<path opacity="0.3" d="M499.081 458.949L498.475 476.811L525.345 480.963L517.193 460.351L499.081 458.949Z" fill="black"/>
<path d="M517.848 470.704C517.848 470.773 517.868 470.847 517.908 470.907C517.948 470.966 518.007 471.01 518.072 471.035C518.141 471.065 518.211 471.069 518.28 471.06C518.355 471.045 518.419 471.01 518.469 470.961C518.518 470.907 518.553 470.842 518.568 470.773C518.583 470.704 518.573 470.63 518.548 470.566C518.518 470.502 518.474 470.443 518.414 470.403C518.355 470.364 518.285 470.344 518.211 470.344C518.166 470.344 518.116 470.354 518.072 470.373C518.027 470.388 517.987 470.418 517.952 470.448C517.923 470.482 517.893 470.522 517.878 470.566C517.858 470.61 517.848 470.655 517.848 470.704Z" fill="#514A4A"/>
<path opacity="0.3" d="M487.96 449.594C487.96 449.594 482.995 456.999 482.995 461.314C482.995 465.629 479.787 468.72 478.169 470.344C476.55 471.968 478.169 480.963 478.169 480.963H484.757C484.757 480.963 480.433 473.331 482.712 471.089C484.991 468.848 485.616 464.015 485.616 460.376C485.616 456.738 487.96 449.594 487.96 449.594Z" fill="black"/>
<path opacity="0.2" d="M540.041 472.323C540.041 472.323 527.664 479.63 527.664 477.754C527.664 475.878 531.69 471.598 531.69 471.598C532.172 471.909 532.728 472.077 533.299 472.091C535.796 472.412 540.041 471.321 540.041 472.323Z" fill="white"/>
<path d="M345.437 357.279C345.456 357.237 345.468 357.192 345.472 357.145C345.531 356.192 346.912 344.517 347.289 339.97C347.512 337.264 349.607 327.218 357.561 321.93C363.127 318.233 370.52 316.909 379.983 321.841C380.069 321.884 380.138 321.955 380.177 322.043C380.215 322.131 380.222 322.229 380.196 322.322C380.169 322.414 380.111 322.494 380.031 322.548C379.951 322.602 379.855 322.626 379.759 322.617H379.546C379.442 322.608 379.34 322.638 379.259 322.701C379.177 322.764 379.122 322.854 379.105 322.956C379.087 323.057 379.108 323.161 379.164 323.247C379.221 323.333 379.307 323.396 379.407 323.421C381.275 323.943 383.054 324.74 384.684 325.786C384.754 325.833 384.807 325.901 384.837 325.979C384.867 326.058 384.872 326.143 384.851 326.224C384.83 326.305 384.785 326.378 384.722 326.433C384.658 326.489 384.579 326.523 384.496 326.531C383.609 326.636 382.732 326.801 381.869 327.025C381.782 327.049 381.705 327.101 381.651 327.172C381.596 327.243 381.567 327.331 381.567 327.42C381.567 327.51 381.596 327.597 381.651 327.668C381.705 327.74 381.782 327.791 381.869 327.815C383.482 328.285 385.039 328.929 386.511 329.736C386.899 329.963 386.695 330.18 386.253 330.13C384.987 329.992 383.2 330.2 381.552 330.195C381.454 330.193 381.358 330.225 381.283 330.286C381.207 330.348 381.156 330.434 381.138 330.529C381.12 330.625 381.137 330.723 381.185 330.808C381.234 330.892 381.311 330.956 381.403 330.989C381.944 331.207 382.535 331.454 383.076 331.725C383.154 331.765 383.219 331.828 383.259 331.906C383.299 331.985 383.314 332.074 383.3 332.16C383.286 332.247 383.245 332.327 383.182 332.389C383.119 332.451 383.039 332.492 382.952 332.505C380.285 332.866 375.961 334.322 373.762 340.059C372.829 342.416 372.083 344.842 371.532 347.316C371.514 347.412 371.53 347.511 371.579 347.596C371.627 347.681 371.704 347.746 371.796 347.781C371.888 347.815 371.989 347.816 372.082 347.783C372.174 347.751 372.252 347.687 372.302 347.602L372.337 347.543C372.389 347.464 372.467 347.405 372.559 347.376C372.649 347.347 372.748 347.35 372.837 347.385C372.926 347.42 373 347.484 373.048 347.567C373.095 347.649 373.112 347.745 373.096 347.839C372.903 348.827 372.679 350.12 372.565 351.325C372.357 353.596 370.803 379.495 344.077 377.984C343.99 377.979 343.907 377.948 343.838 377.895L339.415 374.395C339.351 374.342 339.304 374.272 339.28 374.193C339.256 374.114 339.256 374.029 339.281 373.951L342.19 364.625V364.58L345.437 357.279Z" fill="#FF3636"/>
<path d="M389.124 327.104C389.124 327.104 384.546 326.581 382.391 327.44C382.391 327.44 387.128 328.526 389.839 330.733C389.839 330.733 384.461 329.928 381.348 330.313C381.348 330.313 384.585 331.325 386.095 332.401C386.095 332.401 381.031 332.55 377.198 335.526C377.198 335.526 373.509 334.198 371.002 334.969C371.002 334.969 372.774 330.303 375.043 328.551C375.043 328.551 369.914 328.857 367.933 329.943C368.033 329.735 369.75 326.344 371.14 325.44C371.14 325.44 365.878 325.618 364.086 327.035C364.086 327.035 365.426 323.382 366.841 322.355C366.841 322.355 360.655 322.547 358.346 324.458C358.45 324.275 360.277 321.264 361.588 319.936C367.546 317.793 375.609 317.961 383.687 322.868C385.656 324.069 387.48 325.49 389.124 327.104Z" fill="white"/>
<path opacity="0.2" d="M366.994 351.952C367.242 347.775 367.61 347.015 368.717 343.5C369.948 339.55 371.16 336.721 373.016 334.89C373.058 334.848 373.108 334.816 373.162 334.795C373.217 334.774 373.276 334.764 373.334 334.766C374.389 334.836 375.433 335.02 376.447 335.314C376.518 335.335 376.583 335.374 376.633 335.427C376.684 335.481 376.719 335.546 376.736 335.618C376.752 335.69 376.749 335.765 376.726 335.835C376.703 335.904 376.662 335.967 376.606 336.015C375.343 337.122 374.373 338.521 373.781 340.088C372.844 342.448 372.098 344.878 371.552 347.355C371.534 347.457 371.555 347.561 371.61 347.648C371.665 347.735 371.751 347.799 371.851 347.826C371.95 347.854 372.057 347.844 372.149 347.798C372.242 347.752 372.314 347.673 372.351 347.578C372.404 347.499 372.482 347.439 372.574 347.411C372.664 347.382 372.763 347.385 372.852 347.42C372.941 347.455 373.015 347.519 373.062 347.601C373.109 347.684 373.127 347.78 373.111 347.874C372.922 348.861 372.694 350.16 372.584 351.359C372.371 353.625 370.817 379.529 344.091 378.019C344.004 378.012 343.921 377.98 343.853 377.925L339.434 374.43C339.369 374.378 339.321 374.308 339.297 374.229C339.272 374.149 339.274 374.064 339.3 373.985L342.209 364.64V364.605L345.347 357.382C345.491 357.002 345.804 356.652 345.898 357.042C347.939 365.607 353.673 366.55 356.821 366.377C356.821 366.377 359.244 366.377 362.67 362.922C364.086 361.5 365.199 359.809 365.941 357.95C366.683 356.09 367.04 354.1 366.989 352.1C366.999 352.016 366.994 351.976 366.994 351.952Z" fill="black"/>
<path opacity="0.1" d="M373.151 334.737C374.522 334.811 375.875 335.074 377.173 335.517C377.398 335.34 377.631 335.176 377.873 335.023H377.903C378.143 334.851 378.395 334.696 378.658 334.559C379.144 334.269 379.652 334.014 380.177 333.799C380.673 333.586 381.17 333.404 381.666 333.251C381.899 333.168 382.136 333.097 382.376 333.038C382.629 332.969 382.873 332.91 383.121 332.856C383.369 332.801 383.508 332.762 383.687 332.722C384.412 332.589 385.018 332.51 385.435 332.461H385.728C385.946 332.461 386.07 332.461 386.07 332.461C384.581 331.384 381.324 330.372 381.324 330.372C384.437 329.987 389.814 330.792 389.814 330.792C389.447 330.501 389.063 330.231 388.667 329.982C388.314 329.879 382.818 328.363 377.53 329.355C377.936 330.243 378.67 330.94 379.581 331.301C377.155 331.82 374.926 333.012 373.151 334.737Z" fill="black"/>
<path d="M340.23 347.617C337.514 340.291 335.694 332.666 334.808 324.907H326.805C323.33 322.236 320.649 322.197 317.248 324.907H311.627C310.282 330.832 304.87 347.064 304.87 347.064C297.145 371.383 294.866 395.135 321.999 391.802C348.834 394.725 349.773 375.807 340.23 347.617Z" fill="#FF3636"/>
<path d="M334.763 352.297C331.898 347.326 331.402 339.609 331.402 339.609C331.163 333.532 332.603 329.671 332.603 329.671C326.854 322.76 322.544 322.493 322.544 322.493C322.544 322.493 318.235 321.664 312.252 329.118C313.136 332.542 313.503 336.078 313.339 339.609C313.339 339.609 313.21 347.336 310.36 352.307C310.36 352.307 297.094 378.892 314.789 390.445C314.789 390.445 319.456 391.778 322.569 391.501C325.682 391.778 330.354 390.168 330.354 390.168C348.024 378.611 334.763 352.297 334.763 352.297Z" fill="white"/>
<path d="M306.339 364.511C306.339 364.511 305.163 365.829 305.163 366.935C305.163 366.935 306.156 366.037 305.997 366.486C305.997 366.486 304.81 368.041 305.163 368.782L305.754 368.406L306.339 364.511Z" fill="white"/>
<path d="M338.407 362.556C338.407 362.556 339.623 363.835 339.658 364.941C339.658 364.941 338.665 364.072 338.804 364.522C338.804 364.522 340.04 366.037 339.707 366.787L339.102 366.432L338.407 362.556Z" fill="white"/>
<path opacity="0.2" d="M306.12 346.378L311.601 352.184L321.247 339.644L321.987 341.485L311.601 356.607L306.12 346.378Z" fill="black"/>
<path opacity="0.2" d="M300.123 378.275V375.807C300.123 375.807 313.032 385.681 324.451 385.681C331.898 385.681 345.8 376.3 345.8 376.3L345.303 378.275L324.213 393.861L300.123 378.275Z" fill="black"/>
<path d="M305.981 346.24L311.602 354.766L321.343 339.708C321.343 339.708 322.946 339.708 322.068 344.112C321.768 345.569 321.305 346.988 320.687 348.343L313.806 363.687C313.575 364.269 313.173 364.769 312.652 365.121C312.131 365.473 311.516 365.662 310.887 365.662C310.424 365.662 309.967 365.561 309.548 365.366C309.129 365.17 308.759 364.885 308.464 364.531L302.571 356.276L305.981 346.24Z" fill="#FF3636"/>
<path opacity="0.2" d="M312.913 331.498C312.913 331.498 316.096 333.433 318.31 334.761C320.405 336.02 323.221 336.153 325.633 335.749C327.59 335.428 332.401 333.389 335.032 328.156L312.913 331.498Z" fill="black"/>
<path d="M318.662 393.916L354.052 372.889C356.433 371.457 359.283 371.003 361.995 371.625C363.127 371.905 364.17 372.463 365.029 373.247C365.889 374.031 366.537 375.016 366.916 376.113C367.281 377.117 367.436 378.184 367.372 379.249C367.308 380.314 367.026 381.355 366.543 382.309C365.502 384.368 363.883 386.083 361.881 387.246C357.348 389.847 348.099 394.251 335.21 395.866C330.824 396.403 326.523 397.488 322.41 399.094C321.508 399.437 320.627 399.835 319.774 400.284C317.577 401.551 315.04 402.114 312.51 401.894C310.359 401.668 308.249 401.143 306.245 400.334C305.302 399.956 304.446 399.392 303.729 398.676C303.012 397.959 302.449 397.106 302.074 396.167C301.538 394.824 301.463 393.481 303.022 393.126C303.504 393.026 304.002 393.048 304.472 393.19C306.652 393.807 315.052 395.994 318.662 393.916Z" fill="#FF3636"/>
<path opacity="0.2" d="M365.868 374.197C366.197 376.367 365.826 378.585 364.807 380.531C363.788 382.478 362.174 384.052 360.198 385.029C360.198 385.029 346.108 392.755 332.395 394.236L332.236 396.369C333.229 396.191 334.222 396.033 335.215 395.91C348.124 394.296 357.353 389.892 361.886 387.29C363.888 386.127 365.507 384.412 366.548 382.353C367.031 381.4 367.313 380.359 367.377 379.293C367.441 378.228 367.286 377.16 366.921 376.157C366.669 375.456 366.314 374.795 365.868 374.197Z" fill="black"/>
<path d="M326.869 389.048L318.662 393.915C315.052 395.984 306.652 393.797 304.472 393.175C304.002 393.033 303.504 393.01 303.022 393.111C301.464 393.466 301.533 394.809 302.074 396.152C302.45 397.091 303.013 397.944 303.729 398.661C304.446 399.377 305.302 399.941 306.245 400.319C308.247 401.138 310.354 401.672 312.505 401.908C315.032 402.138 317.569 401.588 319.769 400.333C320.623 399.884 321.503 399.487 322.405 399.144C326.518 397.529 330.818 396.436 335.205 395.89L336.575 395.703C332.842 396.285 326.869 389.048 326.869 389.048Z" fill="#21252B"/>
<path opacity="0.3" d="M310.927 395.89C310.927 395.89 319.606 398.541 320.986 399.697L323.469 398.709L312.675 395.253L310.927 395.89Z" fill="black"/>
<path opacity="0.3" d="M324.912 390.208C324.912 390.208 328.298 393.841 332.36 394.217L334.584 395.698L329.391 396.068L323.433 392.01V391.077L324.912 390.208Z" fill="black"/>
<path d="M328.24 393.916L292.845 372.889C290.463 371.457 287.614 371.003 284.902 371.625C283.77 371.905 282.727 372.463 281.867 373.247C281.008 374.031 280.36 375.016 279.981 376.113C279.618 377.117 279.464 378.185 279.529 379.249C279.594 380.315 279.876 381.356 280.359 382.309C281.399 384.369 283.018 386.084 285.021 387.246C289.549 389.848 298.803 394.251 311.692 395.866C316.078 396.404 320.378 397.489 324.492 399.094C325.393 399.436 326.271 399.834 327.123 400.284C329.315 401.559 331.851 402.13 334.382 401.918C336.536 401.686 338.647 401.152 340.652 400.334C341.596 399.956 342.452 399.392 343.17 398.676C343.887 397.96 344.451 397.106 344.828 396.167C345.359 394.824 345.438 393.481 343.875 393.126C343.395 393.026 342.898 393.048 342.43 393.19C340.245 393.807 331.845 395.994 328.24 393.916Z" fill="#FF3636"/>
<path opacity="0.2" d="M289.26 386.638C277.597 381.109 282.095 373.067 282.095 373.067L281.321 373.832C280.74 374.509 280.288 375.285 279.985 376.123C279.622 377.127 279.468 378.194 279.533 379.259C279.598 380.324 279.88 381.365 280.363 382.319C281.402 384.378 283.022 386.094 285.025 387.256C289.553 389.857 298.807 394.261 311.696 395.875C312.014 395.914 312.332 395.964 312.644 396.009L317.54 394.76C300.59 391.941 291.683 387.828 290.009 387.004L289.26 386.638Z" fill="black"/>
<path d="M320.032 389.048L328.238 393.915C331.843 395.984 340.244 393.797 342.423 393.175C342.893 393.033 343.392 393.011 343.873 393.111C345.437 393.466 345.362 394.809 344.826 396.152C344.45 397.091 343.886 397.945 343.168 398.661C342.45 399.377 341.594 399.941 340.651 400.319C338.646 401.142 336.536 401.681 334.38 401.918C331.856 402.143 329.323 401.59 327.126 400.333C326.275 399.883 325.396 399.486 324.495 399.144C320.383 397.53 316.082 396.437 311.695 395.89L310.32 395.703C314.054 396.285 320.032 389.048 320.032 389.048Z" fill="#21252B"/>
<path d="M339.897 308.699C345.184 303.501 349.087 294.012 349.032 286.676C349.032 285.412 349.29 284.094 348.848 282.909C348.233 281.285 346.321 280.441 344.579 280.534C342.836 280.628 341.232 281.477 339.733 282.371C336.668 284.192 333.77 286.278 331.074 288.606C329.057 290.347 327.39 292.451 326.159 294.807C325.817 295.382 325.645 296.041 325.662 296.708C325.75 297.297 325.99 297.853 326.357 298.322C329.371 302.691 335.771 305.485 339.897 308.699Z" fill="#FF3636"/>
<path d="M325.562 304.276C325.016 300.948 326.436 297.507 328.73 295.029C331.024 292.551 334.112 290.917 337.285 289.722C338.69 289.189 340.452 288.799 341.559 289.811C342.011 290.284 342.329 290.866 342.483 291.499C342.999 293.168 343.187 294.919 343.039 296.658C342.775 299.177 341.897 301.593 340.482 303.698C339.9 304.677 339.113 305.518 338.173 306.167C336.386 307.302 334.122 307.268 332.002 307.198C330.737 307.223 329.476 307.043 328.268 306.665C327.087 306.201 325.766 305.515 325.562 304.276Z" fill="white"/>
<path d="M301.145 309.756C300.823 309.78 300.5 309.716 300.211 309.573C299.544 309.147 299 308.555 298.632 307.855C295.033 302.128 289.75 292.101 292.104 285.145C292.357 284.294 292.92 283.568 293.683 283.106C294.576 282.613 295.668 282.692 296.661 282.869C299.053 283.303 301.31 284.287 303.25 285.743C307.088 288.621 311.352 290.556 315.662 292.654C316.764 293.202 317.996 294.086 317.881 295.31C317.787 295.86 317.542 296.373 317.171 296.792C314.624 300.203 311.258 302.903 307.927 305.569C306.7 306.562 303.339 309.637 301.145 309.756Z" fill="#FF3636"/>
<path d="M297.745 300.465C297.116 298.217 296.947 295.866 297.249 293.553C297.287 292.845 297.52 292.162 297.924 291.578C298.659 290.66 299.999 290.492 301.176 290.625C303.837 290.936 306.205 292.422 308.37 293.992C310.706 295.701 312.926 297.56 315.018 299.556C315.897 300.386 316.746 301.353 316.786 302.553C316.758 303.764 316.391 304.943 315.728 305.959C315.271 306.739 314.774 307.496 314.239 308.225C313.683 309.119 312.958 309.897 312.104 310.516C311.432 310.902 310.684 311.135 309.911 311.198C309.138 311.261 308.361 311.153 307.635 310.881C306.188 310.325 304.893 309.439 303.852 308.294C301.365 305.742 298.703 303.886 297.745 300.465Z" fill="white"/>
<path d="M347.095 310.506C347.863 310.304 348.67 310.304 349.438 310.506C347.427 308.176 343.922 305.821 343.922 305.821C343.72 305.57 343.495 305.337 343.252 305.125C339.616 301.924 335.77 298.969 331.738 296.278C328.759 294.303 325.517 292.398 321.952 292.403C317.712 292.403 314.009 295.064 310.608 297.606C309.172 298.652 307.79 299.769 306.467 300.953C303.722 303.558 301.475 306.636 299.834 310.037V309.805C299.834 309.805 297.351 312.827 295.321 315.157C296.09 314.955 296.9 314.955 297.669 315.157C296.871 315.373 296.166 315.841 295.658 316.49C295.658 316.49 297.371 316.49 299.303 319.501C299.347 319.585 299.397 319.666 299.452 319.743C299.465 319.771 299.482 319.798 299.501 319.822C299.581 319.941 299.66 320.059 299.749 320.173C302.063 323.194 305.102 325.426 308.388 327.356C313.299 330.244 318.477 333.211 324.182 333.414C325.195 333.5 326.214 333.353 327.161 332.984C327.852 332.649 328.494 332.22 329.067 331.71L338.123 324.147C340.606 322.078 343.118 319.97 344.95 317.314C345.519 316.523 345.976 315.658 346.305 314.742C347.859 311.286 349.105 311.864 349.105 311.864C348.602 311.205 347.896 310.728 347.095 310.506Z" fill="#FF3636"/>
<path d="M299.929 320.42C299.75 320.183 303.806 319.324 304.223 319.324C306.189 319.329 308.15 319.511 310.082 319.867C311.65 320.12 313.146 320.702 314.471 321.575C315.985 322.631 315.727 323.885 316.745 325.263C318.366 323.754 320.438 322.812 322.646 322.577C324.854 322.343 327.078 322.83 328.983 323.964C329.48 324.265 330.13 324.591 330.522 324.191C330.682 323.978 330.772 323.721 330.781 323.456C330.968 322.355 331.458 321.327 332.197 320.485C332.936 319.643 333.894 319.021 334.966 318.687C338.481 317.645 340.73 313.454 344.399 313.256C344.632 313.226 344.868 313.24 345.095 313.301C345.321 313.361 345.534 313.465 345.72 313.607C346.395 314.224 346.023 315.33 345.576 316.125C342.125 322.301 336.877 327.356 331.009 331.345C329.608 332.374 328.055 333.182 326.407 333.739C322.628 334.855 318.572 333.606 314.938 332.086C308.983 329.589 303.803 325.563 299.929 320.42Z" fill="white"/>
<path d="M321.531 320.03C322.252 319.828 322.997 319.723 323.746 319.719C324.5 319.722 325.231 319.977 325.821 320.444C326.291 320.872 326.59 321.454 326.664 322.083C326.738 322.712 326.581 323.347 326.223 323.871C325.754 324.424 325.172 324.871 324.515 325.184C324.253 325.427 323.911 325.568 323.553 325.581C323.194 325.593 322.843 325.477 322.564 325.253L321.045 324.305C320.655 324.109 320.316 323.827 320.052 323.481C319.916 323.241 319.833 322.975 319.808 322.701C319.783 322.427 319.817 322.151 319.908 321.891C320.191 321.007 320.603 320.257 321.531 320.03Z" fill="#21252B"/>
<path d="M326.11 327.376C325.556 327.58 324.944 327.558 324.407 327.316C324.153 327.232 323.927 327.081 323.752 326.879C323.578 326.678 323.46 326.433 323.414 326.171C323.424 325.51 323.381 324.85 323.285 324.196C323.189 324.85 323.146 325.51 323.155 326.171C323.109 326.433 322.992 326.678 322.817 326.879C322.643 327.081 322.416 327.232 322.163 327.316C321.625 327.558 321.013 327.58 320.46 327.376C319.887 327.158 319.384 326.79 319.005 326.309C319.303 326.877 319.781 327.332 320.365 327.603C320.668 327.739 320.996 327.81 321.328 327.81C321.661 327.81 321.989 327.739 322.292 327.603C322.6 327.465 322.869 327.251 323.071 326.981C323.047 326.942 323.033 326.897 323.031 326.851C323.03 326.805 323.041 326.76 323.064 326.72C323.086 326.68 323.119 326.646 323.158 326.623C323.198 326.6 323.243 326.587 323.29 326.587C323.336 326.587 323.381 326.6 323.421 326.623C323.461 326.646 323.494 326.68 323.515 326.72C323.538 326.76 323.549 326.805 323.548 326.851C323.546 326.897 323.533 326.942 323.508 326.981C323.711 327.251 323.979 327.465 324.287 327.603C324.59 327.739 324.919 327.81 325.251 327.81C325.583 327.81 325.911 327.739 326.214 327.603C326.798 327.332 327.276 326.877 327.574 326.309C327.193 326.791 326.686 327.16 326.11 327.376Z" stroke="#21252B" stroke-width="0.59" stroke-miterlimit="10"/>
<path d="M326.591 314.866C326.864 313.972 328.05 312.274 333.244 313.108C333.289 313.115 333.331 313.139 333.36 313.174C333.39 313.208 333.407 313.253 333.407 313.298C333.407 313.344 333.39 313.388 333.36 313.423C333.331 313.458 333.289 313.481 333.244 313.488C331.471 313.765 328.105 314.372 326.874 315.083C326.84 315.102 326.803 315.11 326.764 315.108C326.726 315.105 326.69 315.091 326.66 315.068C326.629 315.045 326.607 315.013 326.594 314.977C326.582 314.941 326.581 314.903 326.591 314.866Z" fill="#21252B"/>
<path d="M318.042 315.157C317.769 314.263 316.582 312.565 311.389 313.399C311.343 313.407 311.302 313.43 311.272 313.464C311.242 313.499 311.226 313.544 311.226 313.589C311.226 313.635 311.242 313.679 311.272 313.714C311.302 313.749 311.343 313.772 311.389 313.779C313.161 314.056 316.527 314.663 317.759 315.374C317.792 315.393 317.83 315.402 317.868 315.399C317.906 315.396 317.943 315.382 317.973 315.359C318.003 315.336 318.026 315.304 318.038 315.268C318.051 315.232 318.052 315.194 318.042 315.157Z" fill="#21252B"/>
<path d="M317.902 293.202L321.968 290.857C322.018 290.828 322.076 290.815 322.133 290.823C322.191 290.83 322.244 290.856 322.285 290.897C322.325 290.938 322.351 290.992 322.358 291.049C322.364 291.106 322.351 291.164 322.32 291.213L321.685 292.269L325.746 291.257C325.794 291.245 325.844 291.247 325.892 291.263C325.938 291.279 325.98 291.308 326.011 291.346C326.042 291.385 326.06 291.431 326.065 291.48C326.07 291.529 326.061 291.579 326.039 291.622L325.483 293.656L317.902 293.202Z" fill="#FF3636"/>
<path d="M321.342 339.708L314.054 350.964C314.054 350.964 316.576 350.372 317.797 354.776L320.687 348.358C321.305 347.003 321.767 345.584 322.067 344.127C322.961 339.708 321.342 339.708 321.342 339.708Z" fill="#21252B"/>
<path opacity="0.4" d="M314.373 307.87C315.475 307.835 317.565 307.998 318.344 309.583C318.367 309.627 318.376 309.676 318.371 309.725C318.366 309.775 318.347 309.821 318.316 309.859C318.285 309.898 318.244 309.927 318.197 309.942C318.15 309.958 318.1 309.96 318.052 309.948C316.709 309.606 315.426 309.062 314.248 308.334C314.203 308.305 314.168 308.263 314.149 308.213C314.129 308.163 314.126 308.108 314.14 308.057C314.154 308.005 314.183 307.959 314.226 307.925C314.267 307.892 314.319 307.872 314.373 307.87Z" fill="white"/>
<path opacity="0.4" d="M329.837 307.86C328.73 307.835 326.645 308.003 325.865 309.593C325.842 309.636 325.832 309.686 325.836 309.735C325.841 309.784 325.861 309.831 325.892 309.869C325.923 309.908 325.965 309.936 326.012 309.951C326.059 309.966 326.111 309.967 326.158 309.953C327.5 309.607 328.781 309.059 329.956 308.329C330.001 308.299 330.035 308.257 330.054 308.208C330.073 308.158 330.076 308.104 330.063 308.053C330.05 308.001 330.021 307.955 329.981 307.921C329.94 307.886 329.89 307.865 329.837 307.86Z" fill="white"/>
<path opacity="0.2" d="M313.806 363.687L320.687 348.343C321.305 346.988 321.768 345.569 322.068 344.112C322.137 343.756 322.187 343.44 322.227 343.124L321.968 341.485L314.025 360.009C311.542 367.908 307.074 362.477 307.074 362.477L308.464 364.521C308.812 364.938 309.264 365.258 309.774 365.449C310.284 365.64 310.835 365.697 311.373 365.613C311.912 365.529 312.419 365.307 312.845 364.969C313.272 364.632 313.603 364.19 313.806 363.687Z" fill="black"/>
<path opacity="0.2" d="M338.641 346.378L333.16 352.184L323.513 339.644L322.773 341.485L333.16 356.607L338.641 346.378Z" fill="black"/>
<path d="M338.779 346.24L333.159 354.766L323.418 339.708C323.418 339.708 321.814 339.708 322.693 344.112C322.993 345.569 323.456 346.988 324.073 348.343L330.955 363.687C331.186 364.269 331.588 364.769 332.109 365.121C332.629 365.473 333.244 365.662 333.874 365.662C334.337 365.662 334.794 365.561 335.213 365.366C335.631 365.17 336.002 364.885 336.297 364.531L342.19 356.276L338.779 346.24Z" fill="#FF3636"/>
<path d="M323.418 339.708L330.707 350.964C330.707 350.964 328.184 350.372 326.963 354.776L324.073 348.358C323.456 347.003 322.993 345.584 322.693 344.127C321.814 339.708 323.418 339.708 323.418 339.708Z" fill="#21252B"/>
<path opacity="0.2" d="M330.955 363.687L324.074 348.343C323.456 346.988 322.993 345.569 322.694 344.112C322.624 343.756 322.575 343.44 322.535 343.124L322.773 341.471L330.717 359.993C333.199 367.892 337.817 362.462 337.837 362.462L336.278 364.506C335.929 364.923 335.478 365.243 334.968 365.434C334.458 365.625 333.906 365.682 333.368 365.598C332.83 365.514 332.322 365.292 331.896 364.954C331.469 364.617 331.139 364.174 330.935 363.672L330.955 363.687Z" fill="black"/>
<path d="M281.852 84.5438C278.58 86.2174 276.574 89.5597 275.517 91.8948L275.884 91.7221C276.106 91.6189 276.361 91.607 276.591 91.69C276.821 91.7729 277.009 91.9432 277.113 92.1639C277.217 92.3846 277.229 92.6374 277.145 92.8664C277.063 93.0955 276.891 93.2826 276.669 93.3858C275.86 93.761 275.145 94.1411 274.534 94.4917C274.152 94.7138 273.804 94.9261 273.501 95.1137C272.508 95.7506 271.982 96.19 271.972 96.1949C271.784 96.3435 271.546 96.4136 271.307 96.3899C271.068 96.3662 270.847 96.2512 270.693 96.0685C270.538 95.8863 270.46 95.6513 270.477 95.4129C270.493 95.1749 270.602 94.9528 270.78 94.7928C270.81 94.7681 271.108 94.5213 271.654 94.1362C269.539 93.3512 266.019 92.976 263.835 92.9217C263.589 92.9153 263.356 92.8126 263.187 92.6359C263.018 92.4591 262.926 92.2232 262.931 91.9788C262.933 91.8578 262.959 91.7379 263.008 91.6273C263.057 91.5162 263.128 91.4155 263.216 91.332C263.304 91.2486 263.408 91.1829 263.522 91.14C263.636 91.0965 263.758 91.0763 263.879 91.0803C264.584 91.0803 270.15 91.2777 273.154 92.7835C273.998 90.4483 276.326 85.309 280.998 82.9097C281.214 82.8174 281.456 82.8099 281.677 82.8879C281.898 82.9664 282.082 83.1249 282.19 83.3318C282.298 83.5391 282.323 83.7791 282.261 84.0037C282.198 84.2288 282.052 84.4218 281.852 84.5438Z" fill="#21252B"/>
<path d="M281.694 196.33C278.427 198.009 276.421 201.346 275.364 203.681L275.731 203.509C275.841 203.453 275.962 203.42 276.086 203.411C276.209 203.402 276.334 203.419 276.451 203.459C276.568 203.499 276.676 203.562 276.768 203.645C276.86 203.727 276.935 203.827 276.987 203.94C277.04 204.051 277.068 204.172 277.073 204.295C277.077 204.418 277.056 204.541 277.012 204.656C276.968 204.771 276.9 204.877 276.814 204.965C276.728 205.054 276.625 205.124 276.511 205.172C275.701 205.552 274.991 205.933 274.381 206.278C273.994 206.505 273.651 206.713 273.348 206.905C272.817 207.237 272.304 207.598 271.814 207.986C271.65 208.128 271.44 208.205 271.223 208.204C271.032 208.205 270.847 208.147 270.69 208.039C270.534 207.931 270.415 207.778 270.35 207.6C270.285 207.422 270.276 207.229 270.326 207.046C270.376 206.864 270.481 206.7 270.627 206.579C270.657 206.579 270.95 206.308 271.496 205.928C269.386 205.138 265.866 204.763 263.681 204.708C263.56 204.706 263.441 204.68 263.329 204.631C263.218 204.582 263.118 204.513 263.034 204.425C262.95 204.338 262.884 204.236 262.84 204.123C262.796 204.011 262.775 203.891 262.778 203.77C262.778 203.649 262.804 203.528 262.852 203.417C262.901 203.305 262.971 203.204 263.059 203.12C263.148 203.037 263.253 202.971 263.367 202.928C263.482 202.886 263.604 202.866 263.726 202.872C264.431 202.872 269.992 203.069 272.996 204.575C273.845 202.24 276.168 197.1 280.845 194.701C280.953 194.64 281.073 194.6 281.196 194.586C281.32 194.572 281.445 194.582 281.565 194.617C281.684 194.652 281.795 194.711 281.891 194.789C281.988 194.868 282.066 194.966 282.124 195.076C282.181 195.185 282.215 195.306 282.225 195.429C282.234 195.553 282.218 195.677 282.178 195.794C282.138 195.911 282.074 196.019 281.991 196.112C281.908 196.203 281.807 196.278 281.694 196.33Z" fill="#21252B"/>
<path d="M529.004 254.912C526.979 255.948 525.737 258.017 525.082 259.463L525.31 259.355C525.449 259.29 525.608 259.281 525.752 259.332C525.896 259.382 526.01 259.487 526.08 259.624C526.145 259.761 526.15 259.918 526.1 260.061C526.05 260.204 525.946 260.322 525.807 260.387C525.31 260.619 524.864 260.88 524.486 261.068C524.248 261.206 524.034 261.34 523.846 261.458C523.518 261.663 523.2 261.886 522.897 262.124C522.798 262.213 522.664 262.261 522.53 262.258C522.446 262.259 522.366 262.241 522.287 262.206C522.212 262.171 522.148 262.12 522.093 262.055C521.994 261.94 521.949 261.791 521.959 261.641C521.974 261.491 522.048 261.352 522.163 261.256C522.336 261.112 522.515 260.977 522.704 260.851C521.135 260.376 519.506 260.122 517.863 260.095C517.789 260.094 517.714 260.078 517.645 260.048C517.575 260.018 517.511 259.974 517.461 259.921C517.406 259.866 517.367 259.803 517.342 259.733C517.312 259.662 517.302 259.588 517.302 259.513C517.302 259.438 517.322 259.364 517.352 259.296C517.381 259.227 517.426 259.166 517.481 259.114C517.53 259.063 517.595 259.023 517.669 258.996C517.739 258.97 517.813 258.957 517.888 258.96C518.33 258.96 521.77 259.083 523.627 260.011C524.154 258.57 525.613 255.391 528.488 253.905C528.617 253.864 528.751 253.869 528.875 253.92C528.999 253.97 529.104 254.062 529.168 254.179C529.228 254.297 529.248 254.433 529.218 254.563C529.193 254.693 529.119 254.81 529.014 254.892L529.004 254.912Z" fill="#21252B"/>
<path d="M127.058 146.576C125.037 147.613 123.795 149.681 123.14 151.128L123.373 151.019C123.51 150.954 123.668 150.945 123.811 150.995C123.955 151.045 124.072 151.15 124.138 151.286C124.204 151.422 124.213 151.579 124.162 151.721C124.112 151.864 124.007 151.981 123.87 152.046C123.373 152.283 122.927 152.515 122.549 152.732C122.311 152.871 122.097 152.999 121.909 153.118C121.58 153.323 121.264 153.548 120.961 153.789C120.857 153.874 120.728 153.921 120.593 153.922C120.51 153.923 120.427 153.905 120.352 153.87C120.276 153.835 120.209 153.784 120.156 153.72C120.107 153.663 120.071 153.597 120.047 153.526C120.025 153.455 120.016 153.38 120.023 153.306C120.029 153.231 120.05 153.158 120.085 153.092C120.12 153.026 120.168 152.968 120.226 152.92C120.226 152.92 120.424 152.752 120.762 152.515C119.193 152.04 117.566 151.786 115.926 151.76C115.851 151.759 115.777 151.743 115.708 151.712C115.638 151.682 115.576 151.639 115.524 151.585C115.471 151.531 115.431 151.467 115.403 151.397C115.376 151.327 115.363 151.252 115.365 151.177C115.366 151.103 115.383 151.029 115.413 150.961C115.443 150.892 115.487 150.83 115.542 150.779C115.596 150.727 115.66 150.687 115.731 150.66C115.801 150.634 115.876 150.622 115.951 150.624C116.388 150.624 119.833 150.748 121.69 151.676C122.217 150.229 123.677 147.05 126.546 145.564C126.613 145.53 126.686 145.509 126.761 145.502C126.836 145.496 126.911 145.505 126.983 145.528C127.055 145.55 127.121 145.587 127.179 145.635C127.236 145.683 127.284 145.742 127.318 145.808C127.353 145.875 127.374 145.948 127.38 146.022C127.386 146.097 127.378 146.172 127.355 146.243C127.332 146.314 127.296 146.381 127.247 146.437C127.199 146.495 127.139 146.542 127.073 146.576H127.058Z" fill="#21252B"/>
<path d="M165.46 133.404C181.482 133.404 194.47 120.489 194.47 104.558C194.47 88.6265 181.482 75.7115 165.46 75.7115C149.438 75.7115 136.45 88.6265 136.45 104.558C136.45 120.489 149.438 133.404 165.46 133.404Z" fill="white"/>
<path d="M104.793 440.658C104.793 440.658 103.8 446.276 101.874 450.532C100.288 454.215 99.3656 458.15 99.1481 462.153C99.1481 464.089 94.8584 465.254 94.8584 465.254L93.498 479.971H163.622C163.622 479.971 159.923 470.482 157.585 470.482C155.246 470.482 150.376 469.707 150.376 469.707L142.78 453.242L132.85 439.488L104.793 440.658Z" fill="#61656D"/>
<path opacity="0.3" d="M112.34 443.842L101.05 479.976H140.347L132.458 460.026L117.851 458.683L112.34 443.842Z" fill="black"/>
<path opacity="0.2" d="M104.793 440.658C104.793 440.658 110.056 441.646 111.615 443.176C113.174 444.706 115.9 454.037 115.9 454.037L117.846 458.683L135.377 460.04L142.08 452.294L132.845 439.508L104.793 440.658Z" fill="white"/>
<path d="M450.529 460.347C450.207 462.124 449.69 463.857 448.995 465.525C448.166 467.461 447.679 469.524 447.565 471.623C447.565 472.61 445.321 473.247 445.321 473.247L444.601 480.963H481.376C481.376 480.963 479.435 475.987 478.208 475.987C476.942 475.923 475.681 475.784 474.43 475.582L470.458 466.947L465.25 459.734L450.529 460.347Z" fill="#61656D"/>
<path opacity="0.3" d="M454.481 462.015L448.563 480.963H469.173L465.037 470.502L457.376 469.801L454.481 462.015Z" fill="black"/>
<path opacity="0.2" d="M450.529 460.347C450.529 460.347 453.285 460.84 454.104 461.665C454.923 462.489 456.353 467.352 456.353 467.352L457.346 469.791L466.541 470.502L470.056 466.439L465.215 459.734L450.529 460.347Z" fill="white"/>
<path d="M138.203 462.376C138.203 462.376 152.075 467.959 153.232 480.938H155.878C155.878 480.938 154.553 465.822 138.203 462.376Z" fill="#868A91"/>
<g opacity="0.1">
<path opacity="0.1" d="M138.566 462.613C138.566 462.613 152.443 468.196 153.6 481.17H156.246C156.246 481.17 154.921 466.059 138.566 462.613Z" fill="white"/>
</g>
<path d="M157.699 480.938C157.699 480.938 156.706 469.435 144.245 466.809C144.245 466.809 154.81 471.06 155.664 480.938H157.699Z" fill="#B2B6BB"/>
<path d="M172.763 462.292C172.763 462.292 158.861 467.875 157.729 480.854H155.088C155.088 480.854 156.409 465.743 172.763 462.292Z" fill="#868A91"/>
<g opacity="0.1">
<path opacity="0.1" d="M172.425 462.479C172.425 462.479 158.549 468.063 157.392 481.042H154.75C154.75 481.042 156.071 465.93 172.425 462.479Z" fill="white"/>
</g>
<path d="M156.3 481.748C156.3 481.748 151.072 471.445 160.272 462.696C160.272 462.696 153.539 471.84 158.018 480.697L156.3 481.748Z" fill="#B2B6BB"/>
<path opacity="0.1" d="M157.699 480.963C157.699 480.963 156.706 469.465 144.245 466.839C144.245 466.839 154.81 471.089 155.664 480.963H157.699Z" fill="black"/>
<g opacity="0.2">
<path opacity="0.1" d="M156.3 481.793C156.3 481.793 151.072 471.484 160.272 462.741C160.272 462.741 153.539 471.879 158.018 480.741L156.3 481.793Z" fill="black"/>
</g>
<path d="M157.809 456.279C157.809 456.279 150.446 469.243 157.665 480.114L155.6 481.748C155.6 481.748 147.17 469.105 157.809 456.279Z" fill="#868A91"/>
<g opacity="0.2">
<path opacity="0.2" d="M157.809 456.279C157.809 456.279 150.446 469.243 157.665 480.114L155.6 481.748C155.6 481.748 147.17 469.105 157.809 456.279Z" fill="white"/>
</g>
<path d="M455.956 461.882C455.956 461.882 469.828 467.466 470.985 480.445H473.631C473.631 480.445 472.305 465.328 455.956 461.882Z" fill="#868A91"/>
<g opacity="0.1">
<path opacity="0.1" d="M456.318 462.119C456.318 462.119 470.22 467.703 471.352 480.677H473.998C473.998 480.677 472.673 465.565 456.318 462.119Z" fill="white"/>
</g>
<path d="M475.453 480.445C475.453 480.445 474.46 468.942 461.998 466.315C461.998 466.315 472.563 470.566 473.417 480.445H475.453Z" fill="#B2B6BB"/>
<path d="M490.517 461.798C490.517 461.798 476.615 467.382 475.483 480.361H472.842C472.842 480.361 474.162 465.249 490.517 461.798Z" fill="#868A91"/>
<g opacity="0.1">
<path opacity="0.1" d="M490.179 461.986C490.179 461.986 476.277 467.569 475.145 480.548H472.504C472.504 480.548 473.825 465.436 490.179 461.986Z" fill="white"/>
</g>
<path d="M474.053 481.254C474.053 481.254 468.825 470.951 478.025 462.203C478.025 462.203 471.292 471.346 475.771 480.203L474.053 481.254Z" fill="#B2B6BB"/>
<path opacity="0.1" d="M475.453 480.469C475.453 480.469 474.46 468.971 461.998 466.345C461.998 466.345 472.563 470.596 473.417 480.469H475.453Z" fill="black"/>
<g opacity="0.2">
<path opacity="0.1" d="M474.053 481.299C474.053 481.299 468.825 470.991 478.025 462.247C478.025 462.247 471.292 471.385 475.771 480.247L474.053 481.299Z" fill="black"/>
</g>
<path d="M475.562 455.785C475.562 455.785 468.199 468.749 475.418 479.62L473.353 481.254C473.353 481.254 464.922 468.611 475.562 455.785Z" fill="#868A91"/>
<g opacity="0.2">
<path opacity="0.2" d="M475.562 455.785C475.562 455.785 468.199 468.749 475.418 479.62L473.353 481.254C473.353 481.254 464.922 468.611 475.562 455.785Z" fill="white"/>
</g>
<path d="M72.731 458.234C72.731 458.234 89.5719 465.007 90.972 480.756H94.1842C94.1842 480.756 92.5905 462.415 72.731 458.234Z" fill="#868A91"/>
<g opacity="0.1">
<path opacity="0.1" d="M73.1732 458.515C73.1732 458.515 90.0141 465.293 91.4192 481.042H94.6265C94.6265 481.042 93.0179 462.701 73.1732 458.515Z" fill="white"/>
</g>
<path d="M96.3941 480.756C96.3941 480.756 95.1777 466.799 80.0696 463.615C80.0696 463.615 92.884 468.774 93.9713 480.756H96.3941Z" fill="#B2B6BB"/>
<path d="M114.675 458.13C114.675 458.13 97.8339 464.908 96.4338 480.657H93.2264C93.2264 480.657 94.8301 462.316 114.675 458.13Z" fill="#868A91"/>
<g opacity="0.1">
<path opacity="0.1" d="M114.437 458.436C114.437 458.436 97.5956 465.214 96.1905 480.963H92.9882C92.9882 480.963 94.5769 462.622 114.437 458.436Z" fill="white"/>
</g>
<path d="M94.6955 481.743C94.6955 481.743 88.3454 469.238 99.5065 458.624C99.5065 458.624 91.3398 469.717 96.7714 480.464L94.6955 481.743Z" fill="#B2B6BB"/>
<path opacity="0.1" d="M96.3941 480.805C96.3941 480.805 95.1777 466.848 80.0696 463.664C80.0696 463.664 92.884 468.823 93.9713 480.805H96.3941Z" fill="black"/>
<g opacity="0.2">
<path opacity="0.1" d="M94.6955 481.793C94.6955 481.793 88.3454 469.287 99.5065 458.673C99.5065 458.673 91.3398 469.766 96.7714 480.514L94.6955 481.793Z" fill="black"/>
</g>
<path d="M96.5266 450.838C96.5266 450.838 87.5898 466.567 96.3528 479.759L93.8406 481.733C93.8406 481.733 83.613 466.399 96.5266 450.838Z" fill="#868A91"/>
<g opacity="0.2">
<path opacity="0.2" d="M96.5266 450.838C96.5266 450.838 87.5898 466.567 96.3528 479.759L93.8406 481.733C93.8406 481.733 83.613 466.399 96.5266 450.838Z" fill="white"/>
</g>
<path d="M513.117 449.347C513.117 449.347 529.958 456.121 531.358 471.869H534.57C534.57 471.869 532.976 453.529 513.117 449.347Z" fill="#868A91"/>
<g opacity="0.1">
<path opacity="0.1" d="M513.558 449.628C513.558 449.628 530.399 456.407 531.804 472.156H535.012C535.012 472.156 533.403 453.815 513.558 449.628Z" fill="white"/>
</g>
<path d="M536.779 471.869C536.779 471.869 535.563 457.913 520.455 454.728C520.455 454.728 533.269 459.887 534.357 471.869H536.779Z" fill="#B2B6BB"/>
<path d="M555.06 449.243C555.06 449.243 538.219 456.022 536.819 471.771H533.612C533.612 471.771 535.215 453.43 555.06 449.243Z" fill="#868A91"/>
<g opacity="0.1">
<path opacity="0.1" d="M554.822 449.549C554.822 449.549 537.981 456.328 536.576 472.077H533.374C533.374 472.077 534.962 453.736 554.822 449.549Z" fill="white"/>
</g>
<path d="M535.081 472.857C535.081 472.857 528.731 460.351 539.892 449.737C539.892 449.737 531.725 460.83 537.157 471.578L535.081 472.857Z" fill="#B2B6BB"/>
<path opacity="0.1" d="M536.779 471.919C536.779 471.919 535.563 457.962 520.455 454.778C520.455 454.778 533.269 459.937 534.357 471.919H536.779Z" fill="black"/>
<g opacity="0.2">
<path opacity="0.1" d="M535.081 472.906C535.081 472.906 528.731 460.401 539.892 449.786C539.892 449.786 531.725 460.88 537.157 471.627L535.081 472.906Z" fill="black"/>
</g>
<path d="M536.913 441.952C536.913 441.952 527.977 457.681 536.739 470.872L534.227 472.847C534.227 472.847 524 457.513 536.913 441.952Z" fill="#868A91"/>
<g opacity="0.2">
<path opacity="0.2" d="M536.913 441.952C536.913 441.952 527.977 457.681 536.739 470.872L534.227 472.847C534.227 472.847 524 457.513 536.913 441.952Z" fill="white"/>
</g>
<path d="M595.037 481.704H11.6627C11.4651 481.704 11.2759 481.625 11.1359 481.486C10.9964 481.348 10.918 481.161 10.918 480.963C10.918 480.766 10.9964 480.578 11.1359 480.44C11.2759 480.302 11.4651 480.223 11.6627 480.223H595.037C595.236 480.223 595.425 480.302 595.564 480.44C595.703 480.578 595.782 480.766 595.782 480.963C595.782 481.161 595.703 481.348 595.564 481.486C595.425 481.625 595.236 481.704 595.037 481.704Z" fill="#B2B6BB"/>
</svg>
