<svg width="393" height="325" viewBox="0 0 393 325" fill="none" xmlns="http://www.w3.org/2000/svg">
<path d="M320.21 192.846H68.7775C65.7039 192.846 63.2109 190.353 63.2109 187.279V6.1725C63.2109 3.099 65.7039 0.606003 68.7775 0.606003H320.21C323.284 0.606003 325.777 3.099 325.777 6.1725V187.279C325.777 190.353 323.284 192.846 320.21 192.846Z" fill="#00FF38"/>
<path opacity="0.15" d="M320.21 192.846H68.7775C65.7039 192.846 63.2109 190.353 63.2109 187.279V6.1725C63.2109 3.099 65.7039 0.606003 68.7775 0.606003H320.21C323.284 0.606003 325.777 3.099 325.777 6.1725V187.279C325.777 190.353 323.284 192.846 320.21 192.846Z" fill="white"/>
<path d="M316.039 192.846H64.525C61.474 192.846 58.999 190.371 58.999 187.32V6.132C58.999 3.081 61.474 0.606003 64.525 0.606003H316.039C319.09 0.606003 321.565 3.081 321.565 6.132V187.32C321.565 190.371 319.09 192.846 316.039 192.846Z" fill="#00FF38"/>
<path opacity="0.3" d="M315.999 192.846H64.5655C61.492 192.846 58.999 190.353 58.999 187.279V6.1725C58.999 3.099 61.492 0.606003 64.5655 0.606003H315.999C319.072 0.606003 321.565 3.099 321.565 6.1725V187.279C321.565 190.353 319.072 192.846 315.999 192.846Z" fill="white"/>
<path opacity="0.6" d="M311.498 188.328H68.9575C66.217 188.328 63.9985 186.105 63.9985 183.369V9.34501C63.9985 6.60451 66.2215 4.386 68.9575 4.386H311.498C314.239 4.386 316.457 6.60901 316.457 9.34501V183.369C316.457 186.105 314.234 188.328 311.498 188.328Z" fill="white"/>
<path d="M292.113 164.055H232.231C231.749 164.055 231.358 163.663 231.358 163.182V53.7596C231.358 53.2781 231.749 52.8866 232.231 52.8866H292.113C292.594 52.8866 292.986 53.2781 292.986 53.7596V163.182C292.986 163.663 292.594 164.055 292.113 164.055Z" fill="white"/>
<path opacity="0.8" d="M295.519 159.028H241.055C240.614 159.028 240.259 158.673 240.259 158.232V58.7095C240.259 58.2685 240.614 57.913 241.055 57.913H295.519C295.96 57.913 296.315 58.2685 296.315 58.7095V158.232C296.315 158.673 295.96 159.028 295.519 159.028Z" fill="white"/>
<path opacity="0.6" d="M298.475 61.0905H296.315V155.852H298.475C298.889 155.852 299.223 155.519 299.223 155.105V61.8375C299.223 61.4235 298.889 61.0905 298.475 61.0905Z" fill="white"/>
<path d="M285.489 97.2165H238.855C238.216 97.2165 237.698 96.699 237.698 96.06V81.561C237.698 80.922 238.216 80.4045 238.855 80.4045H285.484C286.123 80.4045 286.641 80.922 286.641 81.561V96.06C286.641 96.699 286.123 97.2165 285.489 97.2165Z" fill="#00FF38"/>
<path opacity="0.5" d="M285.489 97.2165H238.855C238.216 97.2165 237.698 96.699 237.698 96.06V81.561C237.698 80.922 238.216 80.4045 238.855 80.4045H285.484C286.123 80.4045 286.641 80.922 286.641 81.561V96.06C286.641 96.699 286.123 97.2165 285.489 97.2165Z" fill="white"/>
<path d="M285.489 76.9765H238.855C238.216 76.9765 237.698 76.459 237.698 75.82V61.321C237.698 60.682 238.216 60.1645 238.855 60.1645H285.484C286.123 60.1645 286.641 60.682 286.641 61.321V75.82C286.641 76.459 286.123 76.9765 285.489 76.9765Z" fill="#00FF38"/>
<path d="M283.689 119.667C283.563 119.667 283.464 119.568 283.464 119.442C283.464 119.316 283.563 119.217 283.689 119.217H285.489C285.615 119.217 285.722 119.316 285.722 119.442C285.722 119.568 285.628 119.667 285.507 119.667V119.442L285.502 119.667H283.689ZM281.893 119.667H280.093C279.967 119.667 279.868 119.568 279.868 119.442C279.868 119.316 279.967 119.217 280.093 119.217H281.893C282.019 119.217 282.118 119.316 282.118 119.442C282.118 119.568 282.014 119.667 281.893 119.667ZM278.293 119.667H276.493C276.367 119.667 276.268 119.568 276.268 119.442C276.268 119.316 276.367 119.217 276.493 119.217H278.293C278.419 119.217 278.518 119.316 278.518 119.442C278.518 119.568 278.419 119.667 278.293 119.667ZM274.697 119.667H272.897C272.771 119.667 272.672 119.568 272.672 119.442C272.672 119.316 272.771 119.217 272.897 119.217H274.697C274.823 119.217 274.922 119.316 274.922 119.442C274.922 119.568 274.819 119.667 274.697 119.667ZM271.097 119.667H269.297C269.171 119.667 269.072 119.568 269.072 119.442C269.072 119.316 269.171 119.217 269.297 119.217H271.097C271.223 119.217 271.322 119.316 271.322 119.442C271.322 119.568 271.223 119.667 271.097 119.667ZM267.502 119.667H265.702C265.576 119.667 265.477 119.568 265.477 119.442C265.477 119.316 265.576 119.217 265.702 119.217H267.502C267.628 119.217 267.727 119.316 267.727 119.442C267.727 119.568 267.623 119.667 267.502 119.667ZM263.902 119.667H262.102C261.976 119.667 261.877 119.568 261.877 119.442C261.877 119.316 261.976 119.217 262.102 119.217H263.902C264.028 119.217 264.127 119.316 264.127 119.442C264.127 119.568 264.028 119.667 263.902 119.667ZM260.306 119.667H258.506C258.38 119.667 258.281 119.568 258.281 119.442C258.281 119.316 258.38 119.217 258.506 119.217H260.306C260.432 119.217 260.531 119.316 260.531 119.442C260.531 119.568 260.428 119.667 260.306 119.667ZM256.706 119.667H254.906C254.78 119.667 254.681 119.568 254.681 119.442C254.681 119.316 254.78 119.217 254.906 119.217H256.706C256.832 119.217 256.931 119.316 256.931 119.442C256.931 119.568 256.832 119.667 256.706 119.667ZM253.111 119.667H251.311C251.185 119.667 251.086 119.568 251.086 119.442C251.086 119.316 251.185 119.217 251.311 119.217H253.111C253.237 119.217 253.336 119.316 253.336 119.442C253.336 119.568 253.237 119.667 253.111 119.667ZM249.511 119.667H247.711C247.585 119.667 247.486 119.568 247.486 119.442C247.486 119.316 247.585 119.217 247.711 119.217H249.511C249.637 119.217 249.736 119.316 249.736 119.442C249.736 119.568 249.637 119.667 249.511 119.667ZM245.915 119.667H244.115C243.989 119.667 243.89 119.568 243.89 119.442C243.89 119.316 243.989 119.217 244.115 119.217H245.915C246.041 119.217 246.14 119.316 246.14 119.442C246.14 119.568 246.041 119.667 245.915 119.667ZM242.315 119.667H240.515C240.389 119.667 240.29 119.568 240.29 119.442C240.29 119.316 240.389 119.217 240.515 119.217H242.315C242.441 119.217 242.54 119.316 242.54 119.442C242.54 119.568 242.441 119.667 242.315 119.667ZM238.72 119.658C238.711 119.658 238.702 119.658 238.693 119.658C237.995 119.577 237.473 118.987 237.473 118.285V118.168C237.473 118.042 237.572 117.943 237.698 117.943C237.824 117.943 237.923 118.042 237.923 118.168V118.285C237.923 118.758 238.279 119.158 238.747 119.212C238.868 119.226 238.958 119.338 238.945 119.46C238.931 119.577 238.832 119.658 238.72 119.658ZM286.641 118.51C286.515 118.51 286.416 118.411 286.416 118.285V116.485C286.416 116.359 286.515 116.26 286.641 116.26C286.767 116.26 286.866 116.359 286.866 116.485V118.285C286.866 118.411 286.767 118.51 286.641 118.51ZM237.698 116.593C237.572 116.593 237.473 116.494 237.473 116.368V114.568C237.473 114.442 237.572 114.343 237.698 114.343C237.824 114.343 237.923 114.442 237.923 114.568V116.368C237.923 116.494 237.824 116.593 237.698 116.593ZM286.641 114.915C286.515 114.915 286.416 114.816 286.416 114.69V112.89C286.416 112.764 286.515 112.665 286.641 112.665C286.767 112.665 286.866 112.764 286.866 112.89V114.69C286.866 114.811 286.767 114.915 286.641 114.915ZM237.698 112.998C237.572 112.998 237.473 112.899 237.473 112.773V110.973C237.473 110.847 237.572 110.748 237.698 110.748C237.824 110.748 237.923 110.847 237.923 110.973V112.773C237.923 112.899 237.824 112.998 237.698 112.998ZM286.641 111.315C286.515 111.315 286.416 111.216 286.416 111.09V109.29C286.416 109.164 286.515 109.065 286.641 109.065C286.767 109.065 286.866 109.164 286.866 109.29V111.09C286.866 111.216 286.767 111.315 286.641 111.315ZM237.698 109.402C237.572 109.402 237.473 109.303 237.473 109.177V107.377C237.473 107.251 237.572 107.152 237.698 107.152C237.824 107.152 237.923 107.251 237.923 107.377V109.177C237.923 109.299 237.824 109.402 237.698 109.402ZM286.641 107.719C286.515 107.719 286.416 107.62 286.416 107.494V105.694C286.416 105.568 286.515 105.469 286.641 105.469C286.767 105.469 286.866 105.568 286.866 105.694V107.494C286.866 107.616 286.767 107.719 286.641 107.719ZM237.698 105.802C237.572 105.802 237.473 105.703 237.473 105.577V103.786C237.473 103.66 237.572 103.557 237.698 103.557C237.824 103.557 237.923 103.656 237.923 103.777V105.577C237.923 105.703 237.824 105.802 237.698 105.802ZM286.641 104.119C286.515 104.119 286.416 104.02 286.416 103.894V103.786C286.416 103.309 286.06 102.913 285.587 102.859C285.466 102.846 285.376 102.733 285.389 102.612C285.403 102.49 285.515 102.396 285.637 102.414C286.339 102.49 286.866 103.08 286.866 103.786V103.894C286.866 104.02 286.767 104.119 286.641 104.119ZM283.814 102.855H282.014C281.888 102.855 281.789 102.756 281.789 102.63C281.789 102.504 281.888 102.405 282.014 102.405H283.814C283.94 102.405 284.039 102.504 284.039 102.63C284.039 102.756 283.936 102.855 283.814 102.855ZM280.214 102.855H278.414C278.288 102.855 278.189 102.756 278.189 102.63C278.189 102.504 278.288 102.405 278.414 102.405H280.214C280.34 102.405 280.439 102.504 280.439 102.63C280.439 102.756 280.34 102.855 280.214 102.855ZM276.619 102.855H274.819C274.693 102.855 274.594 102.756 274.594 102.63C274.594 102.504 274.693 102.405 274.819 102.405H276.619C276.745 102.405 276.844 102.504 276.844 102.63C276.844 102.756 276.74 102.855 276.619 102.855ZM273.019 102.855H271.219C271.093 102.855 270.994 102.756 270.994 102.63C270.994 102.504 271.093 102.405 271.219 102.405H273.019C273.145 102.405 273.244 102.504 273.244 102.63C273.244 102.756 273.145 102.855 273.019 102.855ZM269.423 102.855H267.623C267.497 102.855 267.398 102.756 267.398 102.63C267.398 102.504 267.497 102.405 267.623 102.405H269.423C269.549 102.405 269.648 102.504 269.648 102.63C269.648 102.756 269.549 102.855 269.423 102.855ZM265.823 102.855H264.023C263.897 102.855 263.798 102.756 263.798 102.63C263.798 102.504 263.897 102.405 264.023 102.405H265.823C265.949 102.405 266.048 102.504 266.048 102.63C266.048 102.756 265.949 102.855 265.823 102.855ZM262.228 102.855H260.428C260.302 102.855 260.203 102.756 260.203 102.63C260.203 102.504 260.302 102.405 260.428 102.405H262.228C262.354 102.405 262.453 102.504 262.453 102.63C262.453 102.756 262.354 102.855 262.228 102.855ZM258.632 102.855H256.832C256.706 102.855 256.607 102.756 256.607 102.63C256.607 102.504 256.706 102.405 256.832 102.405H258.632C258.758 102.405 258.857 102.504 258.857 102.63C258.857 102.756 258.754 102.855 258.632 102.855ZM255.032 102.855H253.232C253.106 102.855 253.007 102.756 253.007 102.63C253.007 102.504 253.106 102.405 253.232 102.405H255.032C255.158 102.405 255.257 102.504 255.257 102.63C255.257 102.756 255.158 102.855 255.032 102.855ZM251.437 102.855H249.637C249.511 102.855 249.412 102.756 249.412 102.63C249.412 102.504 249.511 102.405 249.637 102.405H251.437C251.563 102.405 251.662 102.504 251.662 102.63C251.662 102.756 251.558 102.855 251.437 102.855ZM247.837 102.855H246.037C245.911 102.855 245.812 102.756 245.812 102.63C245.812 102.504 245.911 102.405 246.037 102.405H247.837C247.963 102.405 248.062 102.504 248.062 102.63C248.062 102.756 247.963 102.855 247.837 102.855ZM244.241 102.855H242.441C242.315 102.855 242.216 102.756 242.216 102.63C242.216 102.504 242.315 102.405 242.441 102.405H244.241C244.367 102.405 244.466 102.504 244.466 102.63C244.466 102.756 244.363 102.855 244.241 102.855ZM240.641 102.855H238.855C238.729 102.855 238.625 102.756 238.625 102.63C238.625 102.504 238.72 102.405 238.846 102.405H240.646C240.772 102.405 240.871 102.504 240.871 102.63C240.871 102.756 240.767 102.855 240.641 102.855Z" fill="#61656D"/>
<path d="M277.659 73.137H242.32C241.902 73.137 241.564 72.7995 241.564 72.381V70.023C241.564 69.6045 241.902 69.267 242.32 69.267H277.663C278.082 69.267 278.419 69.6045 278.419 70.023V72.381C278.419 72.7995 278.077 73.137 277.659 73.137Z" fill="white"/>
<path opacity="0.5" d="M249.853 93.7425H242.383C241.568 93.7425 240.907 93.081 240.907 92.2665V85.35C240.907 84.5355 241.568 83.874 242.383 83.874H249.853C250.667 83.874 251.329 84.5355 251.329 85.35V92.2665C251.329 93.081 250.667 93.7425 249.853 93.7425Z" fill="white"/>
<path d="M281.817 65.4956H249.984C249.619 65.4956 249.322 65.1986 249.322 64.8341C249.322 64.4696 249.619 64.1726 249.984 64.1726H281.817C282.181 64.1726 282.478 64.4696 282.478 64.8341C282.478 65.1986 282.181 65.4956 281.817 65.4956Z" fill="#00FF38"/>
<path opacity="0.3" d="M281.817 103.496H249.984C249.619 103.496 249.322 103.199 249.322 102.834C249.322 102.47 249.619 102.173 249.984 102.173H281.817C282.181 102.173 282.478 102.47 282.478 102.834C282.478 103.199 282.181 103.496 281.817 103.496Z" fill="white"/>
<path d="M282.019 92.208H254.555C254.137 92.208 253.799 91.8705 253.799 91.452V89.094C253.799 88.6755 254.137 88.338 254.555 88.338H282.019C282.437 88.338 282.775 88.6755 282.775 89.094V91.452C282.775 91.8705 282.437 92.208 282.019 92.208Z" fill="white"/>
<path opacity="0.3" d="M278.415 86.1056H254.461C254.097 86.1056 253.799 85.8085 253.799 85.444C253.799 85.0795 254.097 84.7826 254.461 84.7826H278.415C278.779 84.7826 279.076 85.0795 279.076 85.444C279.076 85.8085 278.779 86.1056 278.415 86.1056Z" fill="white"/>
<path d="M244.264 67.5385C245.758 67.5385 246.969 66.328 246.969 64.834C246.969 63.3405 245.758 62.1295 244.264 62.1295C242.77 62.1295 241.56 63.3405 241.56 64.834C241.56 66.328 242.77 67.5385 244.264 67.5385Z" fill="#00FF38"/>
<path opacity="0.3" d="M244.264 67.5385C245.758 67.5385 246.969 66.328 246.969 64.834C246.969 63.3405 245.758 62.1295 244.264 62.1295C242.77 62.1295 241.56 63.3405 241.56 64.834C241.56 66.328 242.77 67.5385 244.264 67.5385Z" fill="white"/>
<path d="M316.448 19.3575H63.9985V9.1245C63.9985 6.5055 66.1225 4.386 68.737 4.386H311.71C314.329 4.386 316.448 6.51 316.448 9.1245V19.3575Z" fill="#00FF38"/>
<path d="M170.649 320.552H105.867C105.34 320.552 104.877 321.015 104.877 321.541V323.184C104.877 323.711 105.34 324.174 105.867 324.174H170.653C171.18 324.174 171.643 323.711 171.643 323.184V321.541C171.639 321.006 171.238 320.552 170.649 320.552Z" fill="#21252B"/>
<path opacity="0.6" d="M170.649 320.552H105.867C105.34 320.552 104.877 321.015 104.877 321.541V323.184C104.877 323.711 105.34 324.174 105.867 324.174H170.653C171.18 324.174 171.643 323.711 171.643 323.184V321.541C171.639 321.006 171.238 320.552 170.649 320.552Z" fill="black"/>
<path d="M125.185 320.552H12.2395C11.713 320.552 11.2495 321.015 11.2495 321.541V323.184C11.2495 323.711 11.713 324.174 12.2395 324.174H125.185C125.712 324.174 126.175 323.711 126.175 323.184V321.541C126.103 321.006 125.712 320.552 125.185 320.552Z" fill="#21252B"/>
<g opacity="0.6">
<path opacity="0.6" d="M12.154 321.204H127.129C127.327 321.204 127.457 321.078 127.457 320.876C127.457 320.673 127.331 320.547 127.129 320.547H12.154C11.956 320.547 11.8255 320.673 11.8255 320.876C11.8255 321.078 12.019 321.204 12.154 321.204Z" fill="black"/>
</g>
<path d="M125.113 320.552H108.098C106.784 320.552 105.668 319.633 105.403 318.319L97.933 243.354C97.6045 241.649 98.923 240.132 100.628 240.132H117.643C118.957 240.132 120.073 241.05 120.338 242.364L127.808 317.329C128.069 319.035 126.818 320.552 125.113 320.552Z" fill="#21252B"/>
<path opacity="0.6" d="M125.113 320.552H108.098C106.784 320.552 105.668 319.633 105.403 318.319L97.933 243.354C97.6045 241.649 98.923 240.132 100.628 240.132H117.643C118.957 240.132 120.073 241.05 120.338 242.364L127.808 317.329C128.069 319.035 126.818 320.552 125.113 320.552Z" fill="black"/>
<path opacity="0.6" d="M123.605 320.552H106.591C105.277 320.552 104.161 319.633 103.896 318.319L96.4255 243.354C96.097 241.649 97.4155 240.132 99.121 240.132H116.136C117.45 240.132 118.566 241.05 118.831 242.364L126.301 317.329C126.562 319.035 125.311 320.552 123.605 320.552Z" fill="black"/>
<path d="M123.704 320.552H14.4445C13.1305 320.552 12.0145 319.633 11.749 318.319L4.27901 243.354C3.95051 241.649 5.26901 240.132 6.97451 240.132H116.162C117.476 240.132 118.592 241.05 118.858 242.364L126.328 317.329C126.652 319.035 125.41 320.552 123.704 320.552Z" fill="#21252B"/>
<path d="M121.207 318.644H16.1095C14.8585 318.644 13.7965 317.766 13.54 316.515L6.74499 245.086C6.43449 243.462 7.68549 242.017 9.31449 242.017H114.349C115.6 242.017 116.662 242.895 116.919 244.146L123.718 315.57C124.024 317.208 122.836 318.644 121.207 318.644Z" fill="white"/>
<path d="M121.274 318.644H16.0465C14.6695 318.644 13.5174 317.595 13.3869 316.223L6.69545 244.736C6.54695 243.17 7.78446 241.815 9.35946 241.82L114.034 242.018C115.402 242.022 116.545 243.057 116.684 244.416L123.934 315.705C124.091 317.276 122.854 318.644 121.274 318.644Z" fill="#00FF38"/>
<path opacity="0.7" d="M121.274 318.644H16.0465C14.6695 318.644 13.5174 317.595 13.3869 316.223L6.69545 244.736C6.54695 243.17 7.78446 241.815 9.35946 241.82L114.034 242.018C115.402 242.022 116.545 243.057 116.684 244.416L123.934 315.705C124.091 317.276 122.854 318.644 121.274 318.644Z" fill="white"/>
<path d="M44.2885 290.865H30.9145L29.0695 285.78C26.122 287.715 23.5795 286.207 23.5795 286.207L21.6265 268.846H41.809L44.2885 290.865Z" fill="white"/>
<path d="M97.0376 262.124H24.9205C22.324 262.124 20.1325 260.184 19.822 257.605C19.453 254.55 21.838 251.859 24.9205 251.859H97.0376C99.6341 251.859 101.826 253.798 102.136 256.377C102.501 259.432 100.116 262.124 97.0376 262.124Z" fill="white"/>
<path d="M36.7151 310.085H25.5685L24.205 297.926H35.3471L36.7151 310.085Z" fill="white"/>
<path d="M52.042 310.085H40.8955L39.532 297.926H50.674L52.042 310.085Z" fill="white"/>
<path d="M89.3155 174.369C92.5466 176.84 95.926 187.099 97.447 195.843C99.067 205.158 95.71 207.007 103.882 212.088C108.351 214.864 105.687 217.605 106.483 221.002C107.275 224.395 107.154 228.22 105.129 231.051C103.725 233.017 100.183 235.758 97.9375 236.64C95.395 237.643 92.578 238.183 89.9185 237.576C86.5705 236.815 83.83 234.304 82.0435 231.375C77.845 224.499 78.385 215.886 78.2185 207.826C77.962 195.667 75.784 183.643 73.6105 171.682" fill="#263238"/>
<path d="M100.669 226.614C104.88 226.614 108.292 223.201 108.292 218.991C108.292 214.781 104.88 211.368 100.669 211.368C96.4593 211.368 93.0465 214.781 93.0465 218.991C93.0465 223.201 96.4593 226.614 100.669 226.614Z" fill="#263238"/>
<path d="M131.017 267.109C131.017 267.109 117.22 231.748 116.703 230.889L116.644 230.718C114.921 227.73 112.275 225.484 108.594 224.337L96.5785 221.003L93.4735 220.139L66.739 219.909L62.023 220.886L49.0855 223.703C43.222 224.967 39.541 230.718 40.8055 236.582C42.646 244.803 44.1985 252.507 44.1985 252.507L48.1675 277.23C49.0855 281.829 49.549 286.545 49.2025 291.203C48.2845 304.253 44.437 318.644 44.437 318.644H115.771C115.771 318.644 107.275 291.603 111.127 278.324L113.427 271.196L119.812 282.018C121.711 285.811 125.388 287.468 129.298 285.686L131.017 267.109Z" fill="#00FF38"/>
<path d="M113.31 271.078L121.873 285.46C123.507 288.205 126.468 289.888 129.667 289.888C134.937 289.888 139.099 285.411 138.712 280.155L137.74 266.902L135.436 230.241L124.105 230.038L121.05 258.577" fill="#00FF38"/>
<path opacity="0.6" d="M123.817 232.716L135.607 232.977L135.432 230.241L124.091 230.124L123.817 232.716Z" fill="black"/>
<path d="M127.336 236.167C127.84 236.361 128.088 236.928 127.894 237.432C127.701 237.936 127.134 238.183 126.63 237.99C126.126 237.796 125.878 237.229 126.072 236.725C126.27 236.221 126.837 235.974 127.336 236.167Z" fill="white"/>
<path opacity="0.6" d="M132.803 246.242C133.073 246.346 133.204 246.643 133.118 246.859L132.209 249.838C132.106 250.108 131.809 250.239 131.593 250.153C131.323 250.05 131.193 249.753 131.278 249.537L132.187 246.557C132.236 246.269 132.533 246.139 132.803 246.242Z" fill="black"/>
<path opacity="0.6" d="M78.295 233.877C78.6415 233.936 78.9835 233.936 79.33 233.936C85.3105 233.936 90.8275 230.831 94.2205 225.943L97.384 221.227L96.52 220.998L94.9675 220.539L73.9255 221.691L63.8635 220.485L62.023 220.885L61.159 221.056L61.5595 221.632L64.6645 226.061C67.774 230.601 72.7735 233.535 78.295 233.877Z" fill="black"/>
<path d="M50.2375 216.979C50.2375 216.979 67.477 214.117 57.055 194.398L69.3265 180.772C69.3265 180.772 66.6355 182.023 68.242 188.998C69.655 195.141 73.606 203.002 74.8795 210.85C75.235 213.037 74.7985 218.77 72.661 221.988C71.734 223.387 69.5695 224.247 69.5695 224.247L61.9375 227.761L50.2375 216.979Z" fill="#263238"/>
<path d="M54.6025 175.044C51.7765 171.876 47.362 170.283 42.9205 171.277C36.3955 172.735 32.287 179.202 33.7405 185.736C35.1985 192.261 41.665 196.369 48.199 194.916C50.1475 194.479 51.88 193.597 53.311 192.4C51.979 190.911 51.0025 189.075 50.5345 186.991C49.5085 182.41 51.2275 177.856 54.6025 175.044Z" fill="#263238"/>
<path d="M57.3745 180.457C56.9065 178.374 55.93 176.538 54.6025 175.048C51.232 177.861 49.5085 182.41 50.53 186.991C50.998 189.075 51.9745 190.911 53.3065 192.4C56.6725 189.583 58.3915 185.034 57.3745 180.457Z" fill="#00FF38"/>
<path d="M73.1335 165.823C70.951 166.021 69.1195 167.083 67.882 168.604C67.549 169.018 67.09 169.302 66.5725 169.405C65.704 169.576 64.2325 169.977 62.3335 171.03C55.489 174.819 52.384 181.281 55.3585 190.285C57.388 196.446 60.7855 200.775 66.604 202.471C67.8865 202.84 65.0785 190.582 68.5975 183.427C69.1645 182.28 69.835 181.249 70.5595 180.313C72.0355 181.006 73.7365 181.245 75.451 180.858C79.8385 179.881 82.4935 175.291 80.986 170.917C79.8565 167.646 76.5715 165.513 73.1335 165.823Z" fill="#263238"/>
<path d="M87.034 192.941L89.68 216.745C89.851 218.239 90.9445 219.504 92.3845 219.909L94.972 220.597L92.3845 224.332C89.3965 228.643 84.5635 231.348 79.3345 231.289C79.0465 231.231 78.7 231.231 78.4165 231.231C73.588 230.943 69.2185 228.355 66.4555 224.391L63.751 220.48L66.0505 219.846C67.603 219.445 68.6965 218.005 68.755 216.394L69.331 196.329L87.034 192.941Z" fill="#FB9C9C"/>
<path d="M95.4535 192.891L89.3335 177.982C88.231 175.264 85.0675 173.959 82.3495 175.066L67.387 181.204C65.263 182.095 64.2325 184.485 65.1235 186.609L71.7295 202.687C74.326 209.023 81.5305 212.047 87.8665 209.451L88.7125 209.086C95.044 206.485 98.0455 199.227 95.4535 192.891Z" fill="#FB9C9C"/>
<path d="M81.598 193.305C82.3288 193.305 82.921 192.712 82.921 191.982C82.921 191.251 82.3288 190.659 81.598 190.659C80.8672 190.659 80.275 191.251 80.275 191.982C80.275 192.712 80.8672 193.305 81.598 193.305Z" fill="#21252B"/>
<path d="M82.3045 192.491C82.4638 192.491 82.5925 192.361 82.5925 192.203C82.5925 192.043 82.4638 191.915 82.3045 191.915C82.1456 191.915 82.0164 192.043 82.0164 192.203C82.0164 192.361 82.1456 192.491 82.3045 192.491Z" fill="white"/>
<path d="M91.327 189.786C92.0578 189.786 92.65 189.193 92.65 188.463C92.65 187.732 92.0578 187.14 91.327 187.14C90.5962 187.14 90.004 187.732 90.004 188.463C90.004 189.193 90.5962 189.786 91.327 189.786Z" fill="#21252B"/>
<path d="M92.1235 188.877C92.2828 188.877 92.4115 188.748 92.4115 188.589C92.4115 188.43 92.2828 188.301 92.1235 188.301C91.9647 188.301 91.8355 188.43 91.8355 188.589C91.8355 188.748 91.9647 188.877 92.1235 188.877Z" fill="white"/>
<g opacity="0.3">
<path opacity="0.3" d="M89.779 195.123C89.4145 194.277 88.4425 193.957 87.6505 194.304C87.4885 194.362 87.385 194.583 87.4615 194.799C87.52 194.961 87.7405 195.064 87.9565 194.988C88.3705 194.776 88.8115 194.983 89.023 195.397C89.2345 195.811 89.0275 196.252 88.6135 196.464L86.9755 197.18C86.8135 197.238 86.71 197.458 86.7865 197.675C86.845 197.837 87.0655 197.94 87.2815 197.864L88.9195 197.148C89.7115 196.797 90.1075 195.861 89.779 195.123Z" fill="black"/>
</g>
<path d="M94.2204 183.738C93.8199 185.84 93.1269 187.311 93.1269 187.311L90.1659 180.129C89.9139 179.427 89.0859 179.175 88.4784 179.517C85.7694 180.984 78.9159 184.013 73.0704 180.867C73.0704 180.867 72.9129 185.511 68.9124 187.626L69.7224 189.534C70.5909 191.604 71.1039 193.863 71.1984 196.154C71.2299 196.752 70.5144 197.135 70.0149 196.766C69.2004 196.203 67.9809 195.362 67.8909 195.456C67.2024 196.257 66.8514 201.212 66.1044 200.321C64.3809 198.255 61.8609 195.681 59.7279 192.662L57.1224 192.563C58.5894 190.871 57.5949 188.967 57.5949 188.967C55.5024 184.526 54.9309 179.229 58.5939 172.956C62.6034 164.815 80.3514 159.672 87.5244 171.305C87.7359 171.719 88.1634 172.051 88.5999 172.078C89.8554 172.173 91.6914 173.568 93.0459 177.483C93.4419 178.739 94.2204 183.738 94.2204 183.738Z" fill="#263238"/>
<path d="M71.8735 204.555L70.627 198.214C69.2005 192.391 62.05 194.029 63.7105 199.744C65.3665 205.514 71.2435 204.605 71.2435 204.605L71.8735 204.555Z" fill="#FB9C9C"/>
<path opacity="0.3" d="M65.1775 197.063C65.29 197.238 65.5195 197.238 65.695 197.126C66.1 196.784 66.505 196.617 66.8515 196.68C67.198 196.685 67.4815 196.977 67.819 197.382C68.2735 197.963 68.4895 199.056 68.4895 199.231C68.4895 199.231 68.4895 199.231 68.5975 199.924C68.647 200.5 69.457 200.28 69.403 199.821L69.3535 199.186C69.25 198.381 68.971 197.63 68.5165 196.991C68.1205 196.352 67.6075 196.001 67.036 195.938C66.4645 195.875 65.884 196.095 65.3035 196.549C65.1235 196.657 65.1235 196.887 65.1775 197.063Z" fill="black"/>
<path d="M89.9455 184.427C88.4155 185.102 87.304 186.42 86.944 187.959C85.342 187.928 84.271 188.679 83.8075 189.093C82.2685 187.878 80.113 187.495 78.223 188.359C75.5455 189.574 74.3125 192.769 75.5275 195.447C76.7425 198.124 79.9375 199.358 82.615 198.143C85.2925 196.928 86.5255 193.733 85.3105 191.055C85.063 190.533 84.685 189.998 84.2935 189.588C84.667 189.269 85.5625 188.702 86.7595 188.634C86.602 189.548 86.7685 190.524 87.178 191.478C88.393 194.156 91.5881 195.389 94.2656 194.174C96.9431 192.959 98.1761 189.764 96.9611 187.086C95.7281 184.355 92.551 183.176 89.9455 184.427ZM82.291 197.584C79.915 198.624 77.107 197.625 76.0675 195.249C75.028 192.873 76.027 190.065 78.403 189.026C80.779 187.986 83.587 188.985 84.6265 191.361C85.702 193.661 84.649 196.486 82.291 197.584ZM93.9955 193.597C91.6195 194.637 88.8115 193.638 87.772 191.262C86.7325 188.886 87.7315 186.078 90.1075 185.039C92.4835 183.999 95.2915 184.998 96.331 187.374C97.4065 189.678 96.349 192.504 93.9955 193.597Z" fill="white"/>
<path d="M69.5425 203.785C70.1788 203.785 70.6945 203.269 70.6945 202.633C70.6945 201.997 70.1788 201.481 69.5425 201.481C68.9061 201.481 68.3904 201.997 68.3904 202.633C68.3904 203.269 68.9061 203.785 69.5425 203.785Z" fill="#00FF38"/>
<path opacity="0.15" d="M70.276 203.56C70.1005 203.731 69.871 203.844 69.6415 203.839C69.007 203.889 68.44 203.367 68.3906 202.732C68.3366 202.327 68.512 201.985 68.8045 201.76C68.6875 201.99 68.6245 202.219 68.6245 202.449C68.674 203.137 69.2995 203.664 69.9925 203.614C70.105 203.614 70.1635 203.619 70.276 203.56Z" fill="black"/>
<path opacity="0.15" d="M69.0159 208.582L70.9825 204.537L69.0884 204.559L69.0159 208.582Z" fill="black"/>
<path opacity="0.15" d="M89.0499 211.093C88.0014 211.035 87.0744 210.832 86.3589 210.621C83.8299 211.228 81.7509 211.062 80.3784 210.823C80.1759 210.774 80.0454 210.576 80.0949 210.378C80.1444 210.175 80.3424 210.045 80.5404 210.094C81.6564 210.301 83.2404 210.463 85.1979 210.121C85.3059 210.081 85.4319 210.099 85.5399 210.058C85.8279 210.013 86.1025 209.919 86.3905 209.874C86.4445 209.856 86.4444 209.856 86.4984 209.833C86.6784 209.829 86.8944 209.752 87.0609 209.694C87.5469 209.518 87.9789 209.361 88.4649 209.185C88.5864 209.136 88.7079 209.091 88.8294 209.041L89.0499 211.093Z" fill="black"/>
<path d="M84.559 200.982C84.343 201.059 84.3475 201.243 84.46 201.383C85.558 202.391 87.043 202.773 88.447 202.265C89.851 201.756 90.751 200.514 90.949 199.038C90.9445 198.858 90.778 198.732 90.616 198.791L84.559 200.982Z" fill="white"/>
<path opacity="0.15" d="M110.839 247.62V252.966L112.22 255.382C114.637 259.752 115.208 264.868 113.773 269.584L113.314 271.078L121.877 285.46C123.781 288.889 129.091 290.959 133.001 289.173L134.383 288.538C131.107 289.632 126.625 287.665 125.302 285.078L116.936 270.556C118.03 265.152 117.053 259.518 114.232 254.802L112.621 252.097L111.356 247.557C111.239 247.273 110.78 247.332 110.839 247.62Z" fill="black"/>
<path d="M135.503 282.634L136.251 282.288L135.503 282.634Z" fill="black"/>
<path d="M102.618 228.531C103.157 228.531 103.594 228.094 103.594 227.555C103.594 227.015 103.157 226.578 102.618 226.578C102.078 226.578 101.641 227.015 101.641 227.555C101.641 228.094 102.078 228.531 102.618 228.531Z" fill="white"/>
<path d="M120.672 250.266C121.211 250.266 121.648 249.829 121.648 249.289C121.648 248.75 121.211 248.313 120.672 248.313C120.132 248.313 119.695 248.75 119.695 249.289C119.695 249.829 120.132 250.266 120.672 250.266Z" fill="white"/>
<path d="M126.823 282.517C127.363 282.517 127.799 282.08 127.799 281.541C127.799 281.001 127.363 280.564 126.823 280.564C126.284 280.564 125.847 281.001 125.847 281.541C125.847 282.08 126.284 282.517 126.823 282.517Z" fill="white"/>
<path d="M50.4085 237.846C50.9476 237.846 51.385 237.409 51.385 236.869C51.385 236.33 50.9476 235.893 50.4085 235.893C49.8694 235.893 49.432 236.33 49.432 236.869C49.432 237.409 49.8694 237.846 50.4085 237.846Z" fill="white"/>
<path d="M51.7901 264.868C51.7901 265.409 51.3536 265.845 50.8136 265.845C50.2736 265.845 49.837 265.409 49.837 264.868C49.837 264.328 50.2736 263.892 50.8136 263.892C51.3491 263.892 51.7901 264.328 51.7901 264.868Z" fill="white"/>
<path d="M72.085 265.156C72.085 265.696 71.6485 266.133 71.1085 266.133C70.5685 266.133 70.132 265.696 70.132 265.156C70.132 264.616 70.5685 264.18 71.1085 264.18C71.6485 264.18 72.085 264.616 72.085 265.156Z" fill="white"/>
<path d="M86.0576 247.391C86.5967 247.391 87.0341 246.953 87.0341 246.414C87.0341 245.875 86.5967 245.438 86.0576 245.438C85.518 245.438 85.0811 245.875 85.0811 246.414C85.0811 246.953 85.518 247.391 86.0576 247.391Z" fill="white"/>
<path d="M69.3804 289.88C69.92 289.88 70.357 289.442 70.357 288.903C70.357 288.364 69.92 287.926 69.3804 287.926C68.8413 287.926 68.4039 288.364 68.4039 288.903C68.4039 289.442 68.8413 289.88 69.3804 289.88Z" fill="white"/>
<path d="M94.2205 277.977C94.76 277.977 95.197 277.54 95.197 277C95.197 276.461 94.76 276.024 94.2205 276.024C93.6814 276.024 93.244 276.461 93.244 277C93.244 277.54 93.6814 277.977 94.2205 277.977Z" fill="white"/>
<path d="M107.216 256.993C107.216 257.533 106.78 257.97 106.24 257.97C105.7 257.97 105.264 257.533 105.264 256.993C105.264 256.453 105.7 256.017 106.24 256.017C106.775 256.013 107.216 256.453 107.216 256.993Z" fill="white"/>
<path d="M55.984 310.692C56.524 310.692 56.9605 311.129 56.9605 311.669C56.9605 312.209 56.524 312.645 55.984 312.645C55.444 312.645 55.0075 312.209 55.0075 311.669C55.0075 311.129 55.444 310.692 55.984 310.692Z" fill="white"/>
<path d="M99.742 309.428C100.281 309.428 100.719 308.991 100.719 308.451C100.719 307.911 100.281 307.474 99.742 307.474C99.2024 307.474 98.7655 307.911 98.7655 308.451C98.7655 308.991 99.2024 309.428 99.742 309.428Z" fill="white"/>
<path opacity="0.6" d="M77.143 305.747C77.3725 305.864 77.431 306.147 77.314 306.381L75.7615 309.086C75.6445 309.315 75.361 309.374 75.127 309.257C74.8975 309.14 74.839 308.856 74.956 308.622L76.5085 305.918C76.6255 305.693 76.9135 305.576 77.143 305.747Z" fill="black"/>
<path opacity="0.6" d="M109.287 230.43C109.516 230.547 109.575 230.83 109.458 231.065L107.905 233.769C107.788 233.999 107.505 234.057 107.271 233.94C107.041 233.823 106.983 233.54 107.1 233.306L108.652 230.601C108.769 230.372 109.057 230.313 109.287 230.43Z" fill="black"/>
<path opacity="0.6" d="M91.5205 263.892C91.5205 264.121 91.291 264.351 91.0615 264.351H87.898C87.6685 264.351 87.439 264.121 87.439 263.892C87.439 263.662 87.6685 263.433 87.898 263.433H91.0615C91.345 263.433 91.5745 263.662 91.5205 263.892Z" fill="black"/>
<path opacity="0.6" d="M64.957 251.071C64.786 251.188 64.498 251.188 64.3225 250.954L62.4819 248.425C62.3649 248.254 62.3649 247.966 62.5989 247.791C62.77 247.674 63.058 247.674 63.2335 247.908L65.074 250.437C65.245 250.608 65.1865 250.896 64.957 251.071Z" fill="black"/>
<path opacity="0.6" d="M58.9765 224.967C59.035 225.255 58.8055 225.484 58.576 225.484L55.471 225.772C55.183 225.831 54.9535 225.601 54.9535 225.372C54.895 225.084 55.1245 224.854 55.354 224.854L58.459 224.566C58.6885 224.508 58.918 224.679 58.9765 224.967Z" fill="black"/>
<path opacity="0.6" d="M100.889 295.63C100.718 295.747 100.431 295.747 100.255 295.514L98.4145 292.985C98.2975 292.814 98.2975 292.526 98.5315 292.35C98.7025 292.233 98.9905 292.233 99.166 292.467L101.006 294.996C101.177 295.171 101.119 295.513 100.889 295.63Z" fill="black"/>
<path opacity="0.6" d="M122.395 260.728C122.512 260.958 122.453 261.246 122.224 261.363L119.519 262.915C119.29 263.032 119.002 262.974 118.885 262.744C118.768 262.515 118.826 262.227 119.056 262.11L121.76 260.557C121.99 260.382 122.278 260.499 122.395 260.728Z" fill="black"/>
<path opacity="0.6" d="M55.066 289.879C55.066 290.109 54.895 290.338 54.6655 290.397L51.5605 290.973C51.331 290.973 51.1015 290.802 51.043 290.572C51.043 290.343 51.214 290.113 51.4435 290.055L54.5485 289.479C54.778 289.42 55.0075 289.591 55.066 289.879Z" fill="black"/>
<path d="M132.578 293.286C132.614 293.354 132.583 293.439 132.515 293.475L132.088 293.691L131.962 293.444L132.389 293.228C132.457 293.192 132.542 293.219 132.578 293.286Z" fill="#3F4249"/>
<path d="M132.578 293.286C132.614 293.354 132.583 293.439 132.515 293.475L132.088 293.691L131.962 293.444L132.389 293.228C132.457 293.192 132.542 293.219 132.578 293.286Z" fill="black"/>
<path d="M127.471 294.559L127.741 295.095L103.301 307.362L103.094 306.948C103.063 306.88 103.09 306.799 103.153 306.763L127.471 294.559Z" fill="#3F4249"/>
<path d="M127.858 295.338L128.497 296.611L104.179 308.816C104.111 308.847 104.03 308.82 103.994 308.757L103.414 307.605L127.858 295.338Z" fill="#3F4249"/>
<path d="M127.471 294.559L127.741 295.095L103.301 307.362L103.094 306.948C103.063 306.88 103.09 306.799 103.153 306.763L127.471 294.559Z" fill="black"/>
<path d="M127.858 295.338L128.497 296.611L104.179 308.816C104.111 308.847 104.03 308.82 103.994 308.757L103.414 307.605L127.858 295.338Z" fill="black"/>
<path d="M101.771 308.145L102.248 309.095C102.302 309.202 102.433 309.247 102.545 309.193L103.882 308.523L103.207 307.182L101.87 307.853C101.762 307.907 101.717 308.037 101.771 308.145Z" fill="#3F4249"/>
<path d="M127.471 294.559L128.501 296.611L129.865 295.927C130.432 295.643 132.434 294.064 132.151 293.497C131.867 292.93 129.401 293.592 128.834 293.875L127.471 294.559Z" fill="#3F4249"/>
<path d="M107.531 307.132L105.074 308.366L106.397 308.789L106.874 308.55L108.859 307.555L114.92 304.514L115.964 303.991L115.87 303.798C115.726 303.51 115.375 303.393 115.087 303.537C114.871 303.645 114.749 303.87 114.767 304.099L108.26 307.366L107.531 307.132Z" fill="#3F4249"/>
<path d="M127.743 295.124L103.301 307.389L103.422 307.632L127.864 295.365L127.743 295.124Z" fill="white"/>
<path d="M62.257 247.062L62.0725 283.584L89.7475 290.465L89.2255 302.844L52.9375 299.428C48.55 299.028 45.139 295.505 44.8105 291.167L40.558 235.096L62.257 247.062Z" fill="#00FF38"/>
<path opacity="0.15" d="M62.0545 282.031C62.077 282.967 62.743 283.777 63.6475 283.962L65.839 284.425L87.3445 289.888L65.7175 282.976L63.409 254.964C63.373 254.532 62.9455 254.244 62.5315 254.374C62.2525 254.464 62.059 254.725 62.059 255.018L62.0545 282.031Z" fill="black"/>
<path opacity="0.6" d="M89.266 302.884L86.683 302.61L87.3445 289.893L89.8285 290.46L89.266 302.884Z" fill="black"/>
<path opacity="0.6" d="M53.1315 287.603C53.1045 287.81 52.9155 288.026 52.6275 288.003L49.5135 287.72C49.3065 287.693 49.0905 287.504 49.113 287.216C49.14 287.009 49.329 286.793 49.617 286.815L52.731 287.099C52.974 287.081 53.154 287.315 53.1315 287.603Z" fill="black"/>
<path opacity="0.6" d="M45.535 247.48C45.7825 247.543 45.9625 247.777 45.895 248.025L45.283 251.08C45.22 251.328 44.986 251.508 44.7385 251.44C44.491 251.377 44.311 251.143 44.3785 250.896L44.9905 247.84C45.0535 247.593 45.2875 247.417 45.535 247.48Z" fill="black"/>
<path opacity="0.6" d="M80.7025 291.108C80.95 291.171 81.13 291.405 81.0625 291.653L80.4505 294.708C80.3875 294.956 80.1535 295.136 79.906 295.068C79.6585 295.005 79.4785 294.771 79.546 294.524L80.158 291.468C80.1805 291.184 80.455 291.04 80.7025 291.108Z" fill="black"/>
<g opacity="0.15">
<path opacity="0.15" d="M53.437 299.559L89.2705 302.884L89.365 299.986L54.0625 296.058C49.5895 295.581 45.8725 292.404 44.617 288.169L44.86 291.211C45.211 295.338 48.0595 298.978 53.437 299.559Z" fill="black"/>
</g>
<path d="M89.7475 290.465L113.004 295.505L117.085 295.086C117.423 295.019 117.792 295.01 118.125 295.172L122.553 297.048L121.239 298.007C120.748 298.362 120.816 299.114 121.306 299.402L124.884 301.364L124.663 301.962C124.443 302.561 123.925 302.817 123.291 302.772L122.755 302.7C122.481 302.687 122.206 302.903 122.071 303.105L121.855 303.474C121.513 304.001 120.793 304.122 120.168 304.032L119.596 303.911C119.29 303.843 119.02 304.019 118.867 304.307C118.584 304.982 118.165 305.216 117.45 305.108L116.329 304.959L115.987 305.274C115.353 305.873 114.723 306.012 113.917 305.702L109.431 303.942L89.221 302.849L89.7475 290.465Z" fill="#FA9B9B"/>
<path opacity="0.15" d="M119.601 303.911C119.295 303.843 119.025 304.019 118.872 304.307C118.588 304.982 118.17 305.216 117.454 305.108L116.334 304.959L115.992 305.274C115.357 305.873 114.727 306.012 113.922 305.702L109.435 303.942L89.2259 302.849L89.3609 300.211L109.57 301.305L114.057 303.065C114.057 303.065 116.829 304.239 117.36 304.239C117.891 304.239 118.318 303.96 118.624 303.659C118.926 303.353 119.601 303.911 119.601 303.911Z" fill="black"/>
<path d="M135.405 205.091C135.405 205.091 135.409 214.37 134.379 215.099L135.432 230.241L124.101 230.038C124.101 230.038 126.886 218.028 124.406 211.116C123.551 208.731 122.741 206.454 123.11 204.641L134.703 204.416C135.09 204.411 135.4 204.713 135.405 205.091Z" fill="#FB9C9C"/>
<path d="M123.092 204.762L123.268 192.882C123.277 192.401 123.682 192.018 124.163 192.045C124.582 192.067 124.919 192.391 124.96 192.81L126.256 204.641L123.092 204.762Z" fill="#FB9C9C"/>
<path d="M124.101 230.039L124.335 215.332C121.203 213.352 121.509 204.487 121.495 204.334C121.261 203.07 120.726 199.942 120.726 199.942C120.676 199.758 120.789 199.582 120.978 199.533C121.72 199.326 122.598 199.74 122.998 200.64L123.876 202.665L124.879 205.662C124.879 205.662 126.927 206.062 127.525 207.75C128.654 210.94 127.232 212.754 127.232 212.754L124.101 230.039Z" fill="#FB9C9C"/>
<path opacity="0.15" d="M125.896 203.988L126.058 211.575C126.067 212.097 126.44 212.542 126.949 212.646C127.583 212.776 128.2 212.34 128.281 211.692L129.402 204.361L125.896 203.988Z" fill="black"/>
<path opacity="0.15" d="M129.397 204.366L128.322 212.493C128.259 213.051 128.664 213.586 129.253 213.712C129.852 213.843 130.432 213.51 130.567 212.961L132.34 204.474L129.397 204.366Z" fill="black"/>
<path opacity="0.15" d="M132.754 204.307L131.166 211.17C131.044 211.701 131.503 212.322 132.034 212.43C132.511 212.529 132.984 212.259 133.141 211.796L135.409 205.338C135.409 205.338 135.553 204.685 134.91 204.415L132.754 204.307Z" fill="black"/>
<path d="M126.162 204.15L126.297 211.125C126.306 211.647 126.679 212.093 127.188 212.196C127.822 212.327 128.439 211.89 128.52 211.242L129.397 204.366C129.487 203.673 128.992 203.043 128.295 202.966L127.548 202.881C126.801 202.8 126.148 203.394 126.162 204.15Z" fill="#FB9C9C"/>
<path d="M129.366 204.564L128.38 211.98C128.308 212.538 128.672 213.056 129.226 213.168C129.784 213.281 130.333 212.939 130.477 212.39L132.358 205.167C132.547 204.447 132.102 203.714 131.377 203.543L130.99 203.453C130.225 203.264 129.469 203.786 129.366 204.564Z" fill="#FB9C9C"/>
<path d="M132.277 204.672L131.152 210.657C131.053 211.192 131.413 211.701 131.948 211.786C132.43 211.863 132.889 211.575 133.028 211.107L134.77 205.248C134.927 204.717 134.599 204.168 134.055 204.055L133.389 203.92C132.88 203.817 132.376 204.154 132.277 204.672Z" fill="#FB9C9C"/>
<path opacity="0.15" d="M122.472 245.293L121.221 256.993L119.497 237.634L122.472 245.293Z" fill="black"/>
<path d="M10.9664 133.135C9.36893 125.216 14.4899 117.498 22.4099 115.901C30.3299 114.299 38.0474 119.424 39.6449 127.344C40.2839 130.503 39.8519 133.626 38.6009 136.344C37.1789 139.84 32.5619 144.399 32.9849 146.487L33.4664 148.872C33.5609 149.349 33.2549 149.812 32.7779 149.907L30.4739 150.37L28.3544 150.798L26.0504 151.261C25.5734 151.356 25.1099 151.05 25.0154 150.573L24.5339 148.188C24.1109 146.1 18.0899 143.692 15.4214 141.024C13.2164 139.003 11.6054 136.294 10.9664 133.135Z" fill="#00FF38"/>
<path d="M30.9959 150.015C30.9059 149.659 29.4884 143.953 28.9304 138.814C28.377 138.994 27.783 139.152 27.135 139.282C26.487 139.413 25.875 139.498 25.299 139.548C26.7794 144.498 27.6839 150.307 27.7424 150.672L27.486 150.712C27.4725 150.622 26.5365 144.615 25.0245 139.57C20.6505 139.836 18.261 137.815 17.46 135.61C16.992 134.323 17.1765 132.906 17.9055 132.249C18.3465 131.848 18.936 131.664 19.62 131.722C20.691 131.808 21.8295 132.487 22.6665 133.536C23.634 134.751 24.4935 136.911 25.2225 139.3C25.8075 139.255 26.4285 139.17 27.0854 139.035C27.7424 138.904 28.3455 138.742 28.9035 138.558C28.647 136.074 28.602 133.743 29.0205 132.249C29.385 130.957 30.1679 129.891 31.1219 129.396C31.7294 129.081 32.3459 129.018 32.9084 129.216C33.8309 129.544 34.5554 130.773 34.6229 132.141C34.7399 134.485 33.3224 137.28 29.1914 138.729C29.7584 143.962 31.2254 149.866 31.2479 149.952L30.9959 150.015ZM31.8644 129.396C31.6574 129.436 31.4504 129.513 31.2434 129.621C30.3524 130.084 29.6144 131.092 29.2679 132.316C28.8629 133.752 28.908 136.024 29.16 138.463C33.1154 137.055 34.4744 134.386 34.3619 132.154C34.2989 130.903 33.6374 129.747 32.8184 129.459C32.5169 129.351 32.1929 129.328 31.8644 129.396ZM18.9405 132.006C18.6075 132.073 18.3195 132.217 18.081 132.433C17.442 133.018 17.28 134.341 17.7075 135.516C18.4725 137.617 20.7585 139.548 24.9525 139.309C24.237 136.96 23.3955 134.85 22.4685 133.684C21.6765 132.69 20.6055 132.046 19.602 131.965C19.368 131.952 19.143 131.965 18.9405 132.006Z" fill="white" stroke="white" stroke-width="2" stroke-miterlimit="10"/>
<path d="M33.5294 147.432L24.4034 149.277L25.2809 153.628C25.4249 154.339 25.7669 154.992 26.2709 155.518C27.2204 156.508 28.6064 156.94 29.9519 156.67L31.2884 156.4C32.6294 156.13 33.7409 155.19 34.2314 153.912C34.4924 153.237 34.5509 152.499 34.4069 151.788L33.5294 147.432Z" fill="#28364C"/>
<path d="M24.997 152.211C25.024 152.207 25.051 152.202 25.0735 152.193L34.0105 149.403C34.3165 149.309 34.4785 148.984 34.3705 148.678C34.2625 148.372 33.9295 148.206 33.6235 148.301L24.6865 151.091C24.3805 151.185 24.2185 151.509 24.3265 151.815C24.4255 152.09 24.7135 152.256 24.997 152.211Z" fill="#475577"/>
<path d="M25.398 154.2C25.425 154.196 25.452 154.191 25.4745 154.182L34.4114 151.392C34.7174 151.298 34.8794 150.974 34.7714 150.668C34.6634 150.362 34.3304 150.195 34.0244 150.289L25.0875 153.08C24.7815 153.174 24.6195 153.498 24.7275 153.804C24.8265 154.083 25.1145 154.245 25.398 154.2Z" fill="#475577"/>
<path d="M26.158 156.099C26.185 156.095 26.212 156.09 26.2345 156.081L34.7035 153.435C35.0095 153.341 35.1715 153.017 35.0635 152.711C34.9555 152.405 34.6225 152.238 34.3165 152.332L25.8475 154.979C25.5415 155.073 25.3795 155.397 25.4875 155.703C25.591 155.978 25.879 156.144 26.158 156.099Z" fill="#475577"/>
<path d="M21.5546 104.093C21.4646 103.656 21.0415 103.373 20.605 103.463C20.1685 103.553 19.885 103.975 19.975 104.412L21.2711 110.834C21.3431 111.198 21.658 111.459 22.0135 111.482C22.081 111.486 22.153 111.482 22.225 111.468C22.6615 111.383 22.945 110.955 22.855 110.519L21.5546 104.093Z" fill="#32353A"/>
<path d="M33.0385 103.683C32.827 103.634 32.611 103.674 32.431 103.791C32.2465 103.908 32.125 104.088 32.0755 104.3L30.667 110.699C30.5725 111.135 30.847 111.563 31.2835 111.662C31.324 111.671 31.3645 111.675 31.405 111.68C31.4725 111.684 31.5445 111.68 31.612 111.666C31.927 111.603 32.1745 111.36 32.242 111.05L33.6505 104.651C33.6955 104.439 33.6595 104.223 33.5425 104.043C33.4255 103.854 33.2455 103.728 33.0385 103.683Z" fill="#32353A"/>
<path d="M44.8559 109.479C44.8244 109.268 44.7074 109.079 44.5364 108.953C44.1764 108.692 43.6724 108.768 43.4069 109.128L39.5369 114.416C39.2759 114.776 39.3524 115.28 39.7124 115.541C39.8384 115.635 39.9869 115.685 40.1399 115.694C40.2074 115.698 40.2794 115.694 40.3469 115.68C40.5449 115.64 40.7204 115.527 40.8374 115.365L44.7074 110.082C44.8379 109.907 44.8919 109.695 44.8559 109.479Z" fill="#32353A"/>
<path d="M10.3589 108.682C10.2329 108.507 10.0484 108.39 9.83692 108.354C9.62542 108.318 9.40942 108.367 9.23392 108.489C9.05842 108.615 8.94142 108.799 8.90542 109.011C8.86942 109.222 8.91891 109.438 9.04041 109.614L12.8204 114.964C12.9644 115.167 13.1894 115.288 13.4279 115.306C13.4954 115.311 13.5674 115.306 13.6394 115.293C13.7519 115.27 13.8509 115.225 13.9454 115.162C14.1209 115.036 14.2379 114.852 14.2739 114.64C14.3099 114.429 14.2604 114.213 14.1389 114.037L10.3589 108.682Z" fill="#32353A"/>
<path d="M7.40652 120.905L1.78601 117.539C1.40351 117.309 0.90851 117.435 0.67901 117.818C0.56651 118.002 0.535018 118.218 0.589018 118.43C0.643018 118.637 0.773508 118.817 0.958008 118.925L6.57852 122.291C6.69102 122.358 6.81702 122.399 6.94302 122.403C7.01052 122.408 7.08252 122.403 7.15002 122.39C7.37052 122.345 7.56401 122.205 7.68102 122.016C7.91502 121.629 7.78902 121.134 7.40652 120.905Z" fill="#32353A"/>
<path d="M205.825 320.552H270.612C271.138 320.552 271.602 321.015 271.602 321.541V323.184C271.602 323.711 271.138 324.174 270.612 324.174H205.825C205.299 324.174 204.835 323.711 204.835 323.184V321.541C204.835 321.006 205.236 320.552 205.825 320.552Z" fill="#21252B"/>
<path opacity="0.6" d="M205.825 320.552H270.612C271.138 320.552 271.602 321.015 271.602 321.541V323.184C271.602 323.711 271.138 324.174 270.612 324.174H205.825C205.299 324.174 204.835 323.711 204.835 323.184V321.541C204.835 321.006 205.236 320.552 205.825 320.552Z" fill="black"/>
<path d="M251.289 320.552H364.234C364.761 320.552 365.224 321.015 365.224 321.541V323.184C365.224 323.711 364.761 324.174 364.234 324.174H251.289C250.762 324.174 250.299 323.711 250.299 323.184V321.541C250.375 321.006 250.762 320.552 251.289 320.552Z" fill="#21252B"/>
<g opacity="0.6">
<path opacity="0.6" d="M364.324 321.204H249.35C249.152 321.204 249.021 321.078 249.021 320.876C249.021 320.673 249.147 320.547 249.35 320.547H364.324C364.522 320.547 364.652 320.673 364.652 320.876C364.652 321.078 364.459 321.204 364.324 321.204Z" fill="black"/>
</g>
<path d="M345.694 320.552H362.709C364.023 320.552 365.138 319.633 365.404 318.319L372.874 243.354C373.202 241.649 371.884 240.132 370.178 240.132H353.164C351.85 240.132 350.734 241.05 350.469 242.364L342.999 317.329C342.738 319.035 343.989 320.552 345.694 320.552Z" fill="#21252B"/>
<path opacity="0.6" d="M345.694 320.552H362.709C364.023 320.552 365.138 319.633 365.404 318.319L372.874 243.354C373.202 241.649 371.884 240.132 370.178 240.132H353.164C351.85 240.132 350.734 241.05 350.469 242.364L342.999 317.329C342.738 319.035 343.989 320.552 345.694 320.552Z" fill="black"/>
<path d="M251.68 320.552H360.94C362.254 320.552 363.37 319.633 363.635 318.319L371.105 243.354C371.434 241.649 370.115 240.132 368.41 240.132H259.222C257.908 240.132 256.792 241.05 256.527 242.364L249.057 317.329C248.733 319.035 249.975 320.552 251.68 320.552Z" fill="#21252B"/>
<path d="M254.178 318.644H359.275C360.526 318.644 361.588 317.766 361.845 316.515L368.644 245.091C368.954 243.466 367.704 242.022 366.075 242.022H261.04C259.789 242.022 258.727 242.899 258.471 244.15L251.671 315.574C251.361 317.208 252.549 318.644 254.178 318.644Z" fill="#00FF38"/>
<g opacity="0.7">
<path opacity="0.7" d="M254.178 318.644H359.275C360.526 318.644 361.588 317.766 361.845 316.515L368.644 245.091C368.954 243.466 367.704 242.022 366.075 242.022H261.04C259.789 242.022 258.727 242.899 258.471 244.15L251.671 315.574C251.361 317.208 252.549 318.644 254.178 318.644Z" fill="white"/>
</g>
<path d="M351.67 259.711H303.696C301.491 259.711 299.776 257.795 300.019 255.603C300.226 253.731 301.81 252.314 303.696 252.314H351.67C353.875 252.314 355.59 254.231 355.347 256.422C355.14 258.294 353.556 259.711 351.67 259.711Z" fill="white"/>
<path d="M281.574 309.599H259.87L261.927 287.828H283.63L281.574 309.599Z" fill="white"/>
<path d="M352.035 279.224H338.904L340.15 266.057H353.277L352.035 279.224Z" fill="white"/>
<path d="M349.532 308.442H336.402L338.94 283.854H352.07L349.532 308.442Z" fill="white"/>
<path d="M295.991 126.809H246.568C245.893 126.809 245.344 126.259 245.344 125.584V110.217C245.344 109.542 245.893 108.993 246.568 108.993H295.991C296.666 108.993 297.215 109.542 297.215 110.217V125.584C297.22 126.259 296.671 126.809 295.991 126.809Z" fill="#00FF38"/>
<path opacity="0.2" d="M295.991 126.809H246.568C245.893 126.809 245.344 126.259 245.344 125.584V110.217C245.344 109.542 245.893 108.993 246.568 108.993H295.991C296.666 108.993 297.215 109.542 297.215 110.217V125.584C297.22 126.259 296.671 126.809 295.991 126.809Z" fill="white"/>
<path d="M287.356 114.001H251.181C250.596 114.001 250.114 113.524 250.114 112.935C250.114 112.35 250.591 111.868 251.181 111.868H287.356C287.941 111.868 288.422 112.345 288.422 112.935C288.418 113.52 287.945 114.001 287.356 114.001Z" fill="#00FF38"/>
<path opacity="0.15" d="M265.023 123.924H251.626C250.794 123.924 250.119 123.249 250.119 122.416V119.932C250.119 119.1 250.794 118.425 251.626 118.425H265.023C265.855 118.425 266.53 119.1 266.53 119.932V122.416C266.53 123.249 265.855 123.924 265.023 123.924Z" fill="white"/>
<path opacity="0.5" d="M287.356 114.001H251.181C250.596 114.001 250.114 113.524 250.114 112.935C250.114 112.35 250.591 111.868 251.181 111.868H287.356C287.941 111.868 288.422 112.345 288.422 112.935C288.418 113.52 287.945 114.001 287.356 114.001Z" fill="white"/>
<path d="M265.023 123.924H251.626C250.794 123.924 250.119 123.249 250.119 122.416V119.932C250.119 119.1 250.794 118.425 251.626 118.425H265.023C265.855 118.425 266.53 119.1 266.53 119.932V122.416C266.53 123.249 265.855 123.924 265.023 123.924Z" fill="#00FF38"/>
<path opacity="0.15" d="M265.023 123.924H251.626C250.794 123.924 250.119 123.249 250.119 122.416V119.932C250.119 119.1 250.794 118.425 251.626 118.425H265.023C265.855 118.425 266.53 119.1 266.53 119.932V122.416C266.53 123.249 265.855 123.924 265.023 123.924Z" fill="white"/>
<path d="M265.023 123.924H251.626C250.794 123.924 250.119 123.249 250.119 122.416V119.932C250.119 119.1 250.794 118.425 251.626 118.425H265.023C265.855 118.425 266.53 119.1 266.53 119.932V122.416C266.53 123.249 265.855 123.924 265.023 123.924Z" fill="white"/>
<path d="M213.808 235.052L209.295 230.363L206.545 222.852C206.338 222.208 206.694 221.615 207.346 221.601C207.805 221.597 208.219 221.884 208.417 222.334L211.666 229.08L215.586 231.888L211.666 229.08L209.331 222.852C209.142 222.33 209.448 221.839 209.916 221.758C210.343 221.709 210.757 222.001 210.924 222.406L213.763 228.328L219.388 232.464L213.763 228.328L212.548 223.531C212.485 223.18 212.724 222.87 213.066 222.883C213.331 222.888 213.606 223.082 213.714 223.401L215.847 228.455L220.824 232.604L213.808 235.052Z" fill="#FB9C9C"/>
<path opacity="0.15" d="M213.808 235.052L209.295 230.363L206.545 222.852C206.338 222.208 206.694 221.615 207.346 221.601C207.805 221.597 208.219 221.884 208.417 222.334L211.666 229.08L215.586 231.888L211.666 229.08L209.331 222.852C209.142 222.33 209.448 221.839 209.916 221.758C210.343 221.709 210.757 222.001 210.924 222.406L213.763 228.328L219.388 232.464L213.763 228.328L212.548 223.531C212.485 223.18 212.724 222.87 213.066 222.883C213.331 222.888 213.606 223.082 213.714 223.401L215.847 228.455L220.824 232.604L213.808 235.052Z" fill="black"/>
<path d="M211.882 235.943L221.93 240.326C222.506 240.564 223.01 240.987 223.433 241.469L235.345 256.202L243.409 247.548L232.024 237.126C231.623 236.762 231.304 236.33 231.106 235.88L230.728 235.097C229.454 231.929 227.227 229.53 224.248 228.279L224.216 228.234C223.825 228.059 223.442 227.811 223.114 227.456C222.007 226.218 219.289 223.253 219.289 223.253C219.131 223.037 218.866 223.037 218.69 223.163C217.876 223.766 217.651 224.99 218.249 226.07L219.626 228.567C220.342 229.895 219.73 231.407 218.407 231.587L212.737 232.253C212.386 232.316 212.021 232.181 211.715 231.947L203.665 225.426C203.327 225.147 202.837 225.111 202.598 225.417C202.243 225.746 202.301 226.362 202.661 226.763C204.439 228.635 209.956 234.237 211.288 235.506C211.454 235.727 211.625 235.866 211.882 235.943Z" fill="#FB9C9C"/>
<path opacity="0.15" d="M235.489 256.035L238.297 250.856C239.292 249.06 238.95 246.797 237.492 245.357L230.755 238.728C230.184 238.224 229.752 237.545 229.513 236.861C228.892 234.935 227.263 230.835 224.001 228.207C224.077 228.221 224.109 228.261 224.14 228.306L224.172 228.351C227.146 229.602 229.378 232.001 230.652 235.169L231.03 235.952C231.259 236.442 231.574 236.874 231.948 237.198L243.333 247.62L235.489 256.035Z" fill="black"/>
<path d="M279.594 129.351C277.317 128.757 275.143 127.079 274.644 124.788C274.545 124.253 274.315 123.474 274.54 122.943C271.89 124.23 271.161 126.804 271.161 126.804H264.595C265.108 131.768 268.947 134.468 268.947 134.468L269.059 136.61C270.153 136.763 271.732 137.01 272.758 136.736C276.205 135.89 278.788 132.785 279.594 129.351Z" fill="#F79898"/>
<path d="M282.204 152.162L280.084 134.684C280.084 134.684 282.807 125.981 283.441 124.104C283.886 122.786 285.034 118.763 285.16 116.427C285.182 116.031 284.948 115.667 284.584 115.518C284.305 115.406 283.99 115.433 283.738 115.595C283.189 115.95 282.154 116.711 280.971 118.002C279.742 119.343 278.784 121.229 278.325 121.706C278.244 121.787 278.145 121.845 278.032 121.868C277.047 122.07 275.971 122.169 274.536 122.943C274.311 123.479 274.545 124.257 274.639 124.788C275.143 127.079 277.312 128.757 279.589 129.351C278.784 132.78 276.205 135.89 272.749 136.731C271.728 137.006 270.144 136.754 269.05 136.605L269.631 153.813L282.204 152.162Z" fill="#F79898"/>
<g opacity="0.15">
<path opacity="0.15" d="M282.775 116.279C281.596 117.264 280.538 118.38 279.652 119.636C279.242 120.216 278.878 120.824 278.531 121.44C278.284 121.881 278.005 121.872 277.537 121.944C277.208 121.998 276.884 122.066 276.56 122.147C273.824 122.835 271.381 124.878 270.908 127.745C270.755 127.776 270.566 130.562 270.949 131.75C271.124 132.303 271.975 131.993 271.795 131.439C271.484 130.472 271.737 128.316 271.764 128.118C272.151 125.153 274.823 123.285 277.618 122.844C278.279 122.741 278.833 122.678 279.211 122.061C279.589 121.445 279.918 120.81 280.336 120.221C281.178 119.028 282.168 117.953 283.288 117.017C283.729 116.652 283.22 115.91 282.775 116.279Z" fill="black"/>
</g>
<path d="M294.772 238.809L275.544 204.267C273.271 200.19 271.957 195.645 271.701 190.988L269.64 153.813L282.208 152.162L290.51 191.096L311.971 213.317L294.772 238.809Z" fill="#353535"/>
<path opacity="0.15" d="M282.204 152.162L279.342 152.535L291.964 216.287L285.165 221.547L287.014 224.877L296.64 218.771L282.204 152.162Z" fill="black"/>
<path d="M286.186 207.296L286.96 207.651C292.594 210.131 299.124 207.588 301.581 202.008L307.867 187.77C308.709 185.898 307.84 183.734 305.968 182.892L292.661 176.97C290.231 175.908 287.387 176.997 286.325 179.423L280.489 192.653C278.077 198.26 280.602 204.834 286.186 207.296Z" fill="#F49595"/>
<path d="M282.096 189.147C282.096 189.147 280.111 190.479 279.157 191.523C278.199 192.567 280.404 193.476 280.404 193.476L282.096 189.147Z" fill="#F49595"/>
<path d="M289.593 206.715L295.015 219.878L288.72 223.865L296.712 225.755L311.274 210.31L306.549 198.97L309.258 179.872L291.208 176.565L289.593 206.715Z" fill="#F49595"/>
<g opacity="0.15">
<g opacity="0.15">
<path opacity="0.15" d="M306.548 199.344C306.022 198.619 305.531 197.571 305.108 196.185L299.569 197.985C299.312 197.908 299.069 197.809 298.853 197.674L301.324 201.157L306.548 199.344Z" fill="black"/>
</g>
</g>
<path d="M283.823 183.574L283.472 184.475L301.369 191.501L301.724 190.6L283.823 183.574Z" fill="white"/>
<path d="M281.74 188.877C281.92 188.877 282.096 188.774 282.177 188.598L285.943 180.561C286.055 180.318 285.952 180.03 285.709 179.918C285.466 179.805 285.178 179.909 285.065 180.152L281.304 188.189C281.191 188.432 281.295 188.72 281.538 188.832C281.601 188.864 281.673 188.877 281.74 188.877Z" fill="white"/>
<g opacity="0.3">
<g opacity="0.3">
<g opacity="0.3">
<path opacity="0.3" d="M282.262 197.634C280.809 197.994 279.657 197.702 279.58 197.684L279.639 196.711C279.657 196.716 281.461 197.153 282.973 196.329C283.185 196.212 283.455 196.279 283.594 196.477C283.76 196.716 283.684 197.049 283.428 197.189C283.045 197.396 282.649 197.54 282.262 197.634Z" fill="black"/>
</g>
</g>
</g>
<path d="M338.904 227.42C338.557 222.816 328.94 221.07 326.177 217.623C323.41 214.19 319.617 211.566 315.189 210.239C315.189 210.239 304.429 220.908 298.962 223.482C296.509 224.639 288.72 223.86 288.72 223.86L284.013 226.659C279.94 229.08 276.876 232.883 275.373 237.378L274.459 240.123L293.706 261.444L281.34 291.324L279.693 318.639H337.855L338.904 227.42Z" fill="#353535"/>
<path opacity="0.15" d="M285.43 225.822C285.43 225.822 294.705 228.814 301.851 225.754C310.513 222.046 317.173 211.251 317.173 211.251L315.189 210.243C315.189 210.243 301.702 222.69 298.962 223.486C294.799 224.697 288.72 223.864 288.72 223.864L285.43 225.822Z" fill="black"/>
<path d="M293.706 261.453L281.34 291.333C279.108 295.14 275.179 297.111 271.233 297.111C267.93 297.111 264.604 295.725 262.242 292.881L229.734 249.294L238.09 242.684L265.18 267.956L274.459 240.132L293.706 261.453Z" fill="#353535"/>
<path d="M296.765 179.771C302.301 178.872 306.279 175.017 305.653 171.161C305.023 167.304 300.033 164.907 294.498 165.806C288.963 166.704 284.984 170.559 285.61 174.415C286.235 178.272 291.23 180.67 296.765 179.771Z" fill="#21252B"/>
<path d="M288.72 223.865C301.959 212.439 303.745 207.228 300.384 198.197C299.781 196.577 299.34 194.628 299.812 192.706L299.582 192.391C299.479 192.252 299.448 192.072 299.493 191.905C302.458 181.416 315.112 186.789 315.112 186.789L325.345 191.991L337.698 203.11L335.632 233L330.7 247.166L307.521 240.969C307.516 240.969 285.988 228.815 288.72 223.865Z" fill="#21252B"/>
<path d="M319.486 241.099C322.411 231.643 317.115 221.605 307.66 218.679C298.206 215.752 288.166 221.047 285.241 230.503C282.313 239.959 287.608 249.997 297.063 252.923C306.522 255.85 316.556 250.555 319.486 241.099Z" fill="#21252B"/>
<path d="M332.779 248.353C340.713 248.353 347.148 241.921 347.148 233.985C347.148 226.05 340.713 219.617 332.779 219.617C324.846 219.617 318.41 226.05 318.41 233.985C318.41 241.921 324.846 248.353 332.779 248.353Z" fill="#21252B"/>
<path d="M330.39 227.523C338.089 227.523 344.331 221.281 344.331 213.582C344.331 205.883 338.089 199.641 330.39 199.641C322.69 199.641 316.448 205.883 316.448 213.582C316.448 221.281 322.69 227.523 330.39 227.523Z" fill="#21252B"/>
<path d="M322.757 179.949C323.828 172.321 318.509 165.274 310.886 164.208C303.259 163.137 287.172 167.866 288.265 175.489C289.885 186.712 301.936 189.997 309.564 191.064C317.187 192.13 321.686 187.576 322.757 179.949Z" fill="#21252B"/>
<path d="M337.698 201.707C337.698 201.707 331.546 198.323 328.432 194.187C321.974 185.61 326.429 174.171 316.952 166.593C313.703 163.938 312.552 197.994 312.552 197.994L337.698 201.707Z" fill="#21252B"/>
<path d="M338.08 247.404C338.08 247.404 326.704 258.695 300.694 253.574L310.446 238.809L338.08 247.404Z" fill="#21252B"/>
<path d="M301.985 189.62C301.985 189.62 304.163 187.226 306.544 189.732C309.266 192.603 305.428 199.925 299.573 197.985C296.504 196.968 297.827 195.515 299.29 193.436L301.985 189.62Z" fill="#F49595"/>
<g opacity="0.3">
<g opacity="0.3">
<g opacity="0.3">
<path opacity="0.3" d="M305.887 191.78C305.473 191.15 304.982 190.776 304.429 190.677C303.875 190.578 303.295 190.745 302.701 191.181C302.103 191.618 301.607 192.257 301.274 193.017L300.941 193.656C300.856 193.845 300.946 194.07 301.135 194.151C301.324 194.237 301.549 194.147 301.63 193.958L301.963 193.319C302.026 193.134 302.557 192.207 303.146 191.789C303.574 191.483 303.956 191.357 304.294 191.415C304.636 191.478 304.96 191.739 305.257 192.189C305.369 192.365 305.603 192.414 305.779 192.297C305.95 192.189 305.999 191.955 305.887 191.78Z" fill="black"/>
</g>
</g>
</g>
<path opacity="0.15" d="M290.348 208.547L292.945 208.816C293.611 208.884 293.813 209.757 293.246 210.113L291.455 211.251L290.348 208.547Z" fill="black"/>
<path opacity="0.15" d="M281.34 291.333L294.565 259.383C294.862 258.663 295.946 259.023 295.753 259.779L280.678 302.201L281.34 291.333Z" fill="black"/>
<path d="M112.761 301.373L111.505 299.051L109.953 299.829L112.761 301.373Z" fill="#FA9B9B"/>
<path opacity="0.15" d="M109.953 299.829L112.761 301.373L111.505 299.051" fill="black"/>
<path d="M54.7285 246.117C62.9621 246.117 69.637 239.442 69.637 231.209C69.637 222.975 62.9621 216.3 54.7285 216.3C46.4944 216.3 39.8199 222.975 39.8199 231.209C39.8199 239.442 46.4944 246.117 54.7285 246.117Z" fill="#263238"/>
<path d="M69.097 204.559C69.097 204.559 72.2515 228.09 67.828 236.433C63.4045 244.776 60.2995 217.069 60.2995 217.069L69.097 204.559Z" fill="#263238"/>
<path d="M116.185 192.909C116.527 193.112 116.851 193.332 117.189 193.543C117.517 193.759 117.841 193.984 118.161 194.214C118.48 194.443 118.854 194.61 119.106 194.916C119.362 195.217 119.592 195.546 119.722 195.991C119.731 196.018 119.713 196.05 119.686 196.059C119.677 196.063 119.668 196.063 119.664 196.059C119.205 195.987 118.849 195.802 118.512 195.591C118.174 195.384 117.958 195.037 117.688 194.754C117.418 194.47 117.153 194.178 116.892 193.881C116.635 193.579 116.374 193.287 116.126 192.972C116.108 192.954 116.113 192.923 116.135 192.909C116.149 192.9 116.167 192.9 116.185 192.909Z" fill="#00FF38"/>
<path d="M120.667 194.133C120.595 193.503 120.546 192.873 120.487 192.243L120.352 190.353C120.312 189.723 120.195 189.093 120.262 188.463C120.321 187.833 120.42 187.203 120.667 186.573C120.676 186.546 120.703 186.537 120.73 186.546C120.744 186.55 120.753 186.559 120.757 186.573C121.005 187.203 121.104 187.833 121.162 188.463C121.23 189.093 121.113 189.723 121.072 190.353L120.937 192.243C120.879 192.873 120.829 193.503 120.757 194.133C120.753 194.16 120.73 194.178 120.708 194.174C120.69 194.169 120.672 194.151 120.667 194.133Z" fill="#00FF38"/>
<path d="M30.7705 290.865L23.44 286.203C23.44 286.203 25.4785 287.85 28.93 285.776L30.7705 290.865Z" fill="#83878E"/>
<path d="M12.5905 245.667C12.9559 245.667 13.252 245.371 13.252 245.006C13.252 244.64 12.9559 244.344 12.5905 244.344C12.2251 244.344 11.929 244.64 11.929 245.006C11.929 245.371 12.2251 245.667 12.5905 245.667Z" fill="#00FF38"/>
<path d="M15.1555 245.667C15.5209 245.667 15.817 245.371 15.817 245.006C15.817 244.64 15.5209 244.344 15.1555 244.344C14.7901 244.344 14.494 244.64 14.494 245.006C14.494 245.371 14.7901 245.667 15.1555 245.667Z" fill="#21252B"/>
<path d="M17.716 245.667C18.0814 245.667 18.3775 245.371 18.3775 245.006C18.3775 244.64 18.0814 244.344 17.716 244.344C17.3506 244.344 17.0545 244.64 17.0545 245.006C17.0545 245.371 17.3506 245.667 17.716 245.667Z" fill="#21252B"/>
<path d="M263.853 245.856C264.218 245.856 264.514 245.56 264.514 245.195C264.514 244.829 264.218 244.533 263.853 244.533C263.488 244.533 263.191 244.829 263.191 245.195C263.191 245.56 263.488 245.856 263.853 245.856Z" fill="#00FF38"/>
<path d="M266.413 245.856C266.778 245.856 267.074 245.56 267.074 245.195C267.074 244.829 266.778 244.533 266.413 244.533C266.048 244.533 265.751 244.829 265.751 245.195C265.751 245.56 266.048 245.856 266.413 245.856Z" fill="#21252B"/>
<path d="M268.978 245.856C269.343 245.856 269.639 245.56 269.639 245.195C269.639 244.829 269.343 244.533 268.978 244.533C268.613 244.533 268.316 244.829 268.316 245.195C268.316 245.56 268.613 245.856 268.978 245.856Z" fill="#21252B"/>
<path d="M388.584 179.872H343.93C341.563 179.872 339.646 177.956 339.646 175.589V164.653C339.646 162.286 341.563 160.37 343.93 160.37H388.584C390.951 160.37 392.868 162.286 392.868 164.653V175.589C392.868 177.951 390.951 179.872 388.584 179.872Z" fill="#00FF38"/>
<path d="M355.684 173.042C357.295 173.042 358.604 171.734 358.604 170.121C358.604 168.508 357.295 167.201 355.684 167.201C354.073 167.201 352.764 168.508 352.764 170.121C352.764 171.734 354.073 173.042 355.684 173.042Z" fill="white"/>
<path d="M367.082 173.042C368.693 173.042 370.003 171.734 370.003 170.121C370.003 168.508 368.693 167.201 367.082 167.201C365.471 167.201 364.162 168.508 364.162 170.121C364.162 171.734 365.471 173.042 367.082 173.042Z" fill="white"/>
<path d="M378.477 173.042C380.088 173.042 381.397 171.734 381.397 170.121C381.397 168.508 380.088 167.201 378.477 167.201C376.866 167.201 375.556 168.508 375.556 170.121C375.556 171.734 376.866 173.042 378.477 173.042Z" fill="white"/>
<path opacity="0.6" d="M89.0094 53.2065H72.913V157.98H89.0094V53.2065Z" fill="white"/>
<path d="M84.7975 61.5135H77.125V69.186H84.7975V61.5135Z" fill="#00FF38"/>
<path d="M80.648 77.7095H77.588V81.543H80.648V77.7095Z" fill="#61656D"/>
<path d="M84.3335 81.3589H81.2736V85.193H84.3335V81.3589Z" fill="#61656D"/>
<path d="M80.648 82.133H77.588V85.193H80.648V82.133Z" fill="#61656D"/>
<path d="M84.3335 77.7095H81.2736V80.7694H84.3335V77.7095Z" fill="#61656D"/>
<path d="M84.7975 142.001H77.125V149.673H84.7975V142.001Z" fill="#61656D"/>
<path d="M81.125 148.391H80.801C80.693 148.391 80.6075 148.305 80.6075 148.197V143.481C80.6075 143.373 80.693 143.288 80.801 143.288H81.125C81.233 143.288 81.3185 143.373 81.3185 143.481V148.197C81.3185 148.301 81.2285 148.391 81.125 148.391Z" fill="white"/>
<path d="M83.5105 145.677V146.001C83.5105 146.109 83.425 146.195 83.317 146.195H78.601C78.493 146.195 78.4074 146.109 78.4074 146.001V145.677C78.4074 145.569 78.493 145.484 78.601 145.484H83.317C83.425 145.484 83.5105 145.569 83.5105 145.677Z" fill="white"/>
<path d="M78.709 100.078L78.43 99.7995C78.34 99.7095 78.34 99.561 78.43 99.4665L82.4709 95.4255C82.5609 95.3355 82.7094 95.3355 82.8039 95.4255L83.0829 95.7045C83.1729 95.7945 83.1729 95.943 83.0829 96.0375L79.042 100.078C78.9475 100.168 78.799 100.168 78.709 100.078Z" fill="#61656D"/>
<path d="M83.56 97.257L81.2515 94.9485H83.56V97.257Z" fill="#61656D"/>
<path d="M77.332 113.021L80.9635 110.411L84.5905 113.021L80.9635 115.464L77.332 113.021Z" fill="#61656D"/>
<path d="M84.5905 113.651L80.9635 116.099L77.332 113.651V114.335L80.9635 116.877L84.5905 114.353V113.651Z" fill="#61656D"/>
<path d="M82.2141 128.217C82.2546 128.181 82.2726 128.132 82.2726 128.078V127.2C82.2726 127.142 82.2546 127.092 82.2141 127.056C82.1736 127.016 82.1241 126.998 82.0701 126.998H77.8086C77.7501 126.998 77.7006 127.016 77.6646 127.056C77.6241 127.097 77.6061 127.146 77.6061 127.2V128.078C77.6061 128.136 77.6241 128.181 77.6646 128.217C77.7051 128.253 77.7501 128.271 77.8086 128.271H79.1901V132.29C79.1901 132.348 79.2081 132.393 79.2486 132.429C79.2891 132.465 79.3341 132.483 79.3926 132.483H80.4861C80.5446 132.483 80.5941 132.465 80.6301 132.429C80.6706 132.393 80.6886 132.344 80.6886 132.29V128.271H82.0701C82.1241 128.271 82.1736 128.253 82.2141 128.217Z" fill="#61656D"/>
<path d="M84.239 129C84.185 128.946 84.113 128.919 84.0365 128.919H81.5975C81.521 128.919 81.449 128.946 81.395 129.005C81.341 129.059 81.3095 129.131 81.3095 129.207V129.711C81.3095 129.792 81.341 129.864 81.395 129.918C81.449 129.967 81.5165 129.995 81.593 129.995H82.214V132.123C82.214 132.204 82.2455 132.276 82.304 132.33C82.358 132.38 82.4255 132.407 82.502 132.407H83.1275C83.204 132.407 83.2715 132.38 83.3255 132.33C83.384 132.276 83.4155 132.204 83.4155 132.123V129.995H84.0365C84.113 129.995 84.1805 129.967 84.2345 129.918C84.293 129.864 84.32 129.792 84.32 129.711V129.207C84.32 129.126 84.293 129.059 84.239 129Z" fill="#61656D"/>
<path opacity="0.6" d="M249.543 26.5845H130.909V43.689H249.543V26.5845Z" fill="white"/>
<path d="M192.847 29.9775H137.488V40.2915H192.847V29.9775Z" fill="white"/>
<path d="M142.577 36.3526C142.353 36.3526 142.159 36.3175 141.994 36.2473C141.832 36.1776 141.708 36.0858 141.622 35.9724C141.535 35.8563 141.489 35.7325 141.484 35.6002C141.484 35.5786 141.492 35.5597 141.508 35.5435C141.527 35.5246 141.549 35.5152 141.573 35.5152H141.779C141.831 35.5152 141.866 35.5422 141.884 35.5962C141.909 35.7096 141.978 35.8068 142.091 35.8873C142.207 35.9683 142.369 36.0088 142.577 36.0088C142.8 36.0088 142.969 35.9697 143.082 35.8914C143.195 35.8108 143.252 35.6988 143.252 35.5557C143.252 35.4639 143.224 35.3896 143.167 35.3334C143.113 35.2767 143.032 35.2267 142.924 35.1835C142.816 35.1403 142.654 35.0863 142.439 35.0215C142.228 34.9621 142.061 34.8991 141.937 34.8316C141.813 34.7641 141.72 34.6804 141.658 34.5805C141.596 34.4811 141.565 34.3555 141.565 34.2043C141.565 34.059 141.604 33.928 141.682 33.8119C141.763 33.6958 141.878 33.6058 142.026 33.541C142.175 33.4735 142.351 33.4398 142.556 33.4398C142.767 33.4398 142.947 33.4776 143.098 33.5532C143.249 33.6261 143.364 33.7188 143.442 33.8322C143.52 33.9456 143.562 34.059 143.568 34.1719C143.568 34.1935 143.559 34.2124 143.543 34.2286C143.53 34.2448 143.509 34.2529 143.483 34.2529H143.268C143.212 34.2529 143.176 34.2273 143.163 34.176C143.147 34.063 143.083 33.9699 142.973 33.897C142.862 33.8214 142.723 33.7836 142.556 33.7836C142.373 33.7836 142.228 33.8187 142.123 33.8889C142.018 33.9591 141.966 34.063 141.966 34.2003C141.966 34.2921 141.99 34.3677 142.038 34.4271C142.09 34.4865 142.167 34.5387 142.269 34.5846C142.371 34.6278 142.521 34.6777 142.718 34.7344C142.947 34.7965 143.128 34.8613 143.26 34.9288C143.392 34.9932 143.491 35.0755 143.555 35.1754C143.62 35.2726 143.653 35.3964 143.653 35.5476C143.653 35.7987 143.555 35.9953 143.361 36.1384C143.167 36.2811 142.906 36.3526 142.577 36.3526Z" fill="#61656D"/>
<path d="M158.242 29.946H147.865V40.323H158.242V29.946Z" fill="#00FF38"/>
<path d="M151.591 36.0116C151.557 36.0116 151.528 36.0017 151.505 35.981C151.484 35.9571 151.474 35.9283 151.474 35.8946V32.5623C151.474 32.525 151.484 32.4962 151.505 32.4759C151.528 32.4521 151.557 32.4399 151.591 32.4399H151.847C151.901 32.4399 151.945 32.4674 151.979 32.5218L153.056 34.5828L154.142 32.5218C154.149 32.5011 154.163 32.4827 154.183 32.4656C154.207 32.4485 154.236 32.4399 154.27 32.4399H154.52C154.557 32.4399 154.587 32.4521 154.607 32.4759C154.631 32.4962 154.642 32.525 154.642 32.5623V35.8946C154.642 35.9283 154.631 35.9571 154.607 35.981C154.583 36.0017 154.554 36.0116 154.52 36.0116H154.27C154.236 36.0116 154.207 36.0017 154.183 35.981C154.163 35.9571 154.153 35.9283 154.153 35.8946V33.384L153.301 35.0472C153.267 35.1188 153.212 35.1543 153.137 35.1543H152.979C152.905 35.1543 152.85 35.1188 152.816 35.0472L151.959 33.384V35.8946C151.959 35.9283 151.947 35.9571 151.923 35.981C151.902 36.0017 151.875 36.0116 151.841 36.0116H151.591Z" fill="white"/>
<path d="M162.768 36.3121C162.741 36.3121 162.718 36.304 162.699 36.2878C162.683 36.2689 162.675 36.246 162.675 36.2195V33.5735C162.675 33.5465 162.683 33.5248 162.699 33.5086C162.718 33.4897 162.741 33.4803 162.768 33.4803H162.983C163.01 33.4803 163.031 33.4897 163.047 33.5086C163.066 33.5248 163.075 33.5465 163.075 33.5735V35.9602H164.419C164.448 35.9602 164.471 35.9697 164.488 35.9886C164.506 36.0048 164.516 36.0277 164.516 36.0574V36.2195C164.516 36.246 164.506 36.2689 164.488 36.2878C164.469 36.304 164.446 36.3121 164.419 36.3121H162.768Z" fill="#61656D"/>
<path d="M171.456 36.3121C171.435 36.3121 171.414 36.304 171.395 36.2878C171.379 36.2716 171.371 36.2527 171.371 36.2316C171.371 36.2127 171.377 36.1951 171.387 36.1789L172.314 34.8721L171.432 33.6139C171.424 33.6004 171.42 33.5829 171.42 33.5613C171.42 33.5397 171.428 33.5208 171.444 33.5046C171.46 33.4884 171.479 33.4803 171.501 33.4803H171.744C171.784 33.4803 171.82 33.5032 171.853 33.5491L172.565 34.5603L173.273 33.5491C173.3 33.5032 173.335 33.4803 173.378 33.4803H173.609C173.63 33.4803 173.649 33.4884 173.665 33.5046C173.681 33.5208 173.69 33.5397 173.69 33.5613C173.69 33.5856 173.684 33.6031 173.673 33.6139L172.804 34.8762L173.726 36.1789C173.737 36.1951 173.742 36.2127 173.742 36.2316C173.742 36.2527 173.734 36.2716 173.718 36.2878C173.702 36.304 173.681 36.3121 173.657 36.3121H173.411C173.37 36.3121 173.334 36.2892 173.301 36.2437L172.549 35.1957L171.8 36.2437C171.773 36.2892 171.738 36.3121 171.695 36.3121H171.456ZM174.28 36.3121C174.253 36.3121 174.23 36.304 174.211 36.2878C174.194 36.2689 174.186 36.246 174.186 36.2195V33.5735C174.186 33.5465 174.194 33.5248 174.211 33.5086C174.23 33.4897 174.253 33.4803 174.28 33.4803H174.494C174.521 33.4803 174.542 33.4897 174.559 33.5086C174.577 33.5248 174.587 33.5465 174.587 33.5735V35.9602H175.93C175.96 35.9602 175.983 35.9697 175.999 35.9886C176.018 36.0048 176.027 36.0277 176.027 36.0574V36.2195C176.027 36.246 176.018 36.2689 175.999 36.2878C175.98 36.304 175.957 36.3121 175.93 36.3121H174.28Z" fill="#61656D"/>
<path d="M182.381 36.3121C182.36 36.3121 182.34 36.304 182.321 36.2878C182.304 36.2716 182.296 36.2527 182.296 36.2316C182.296 36.2127 182.302 36.1951 182.313 36.1789L183.239 34.8721L182.357 33.6139C182.349 33.6004 182.345 33.5829 182.345 33.5613C182.345 33.5397 182.353 33.5208 182.369 33.5046C182.385 33.4884 182.404 33.4803 182.426 33.4803H182.668C182.709 33.4803 182.745 33.5032 182.778 33.5491L183.49 34.5603L184.198 33.5491C184.225 33.5032 184.26 33.4803 184.303 33.4803H184.534C184.555 33.4803 184.574 33.4884 184.59 33.5046C184.606 33.5208 184.614 33.5397 184.614 33.5613C184.614 33.5856 184.609 33.6031 184.598 33.6139L183.728 34.8762L184.651 36.1789C184.661 36.1951 184.667 36.2127 184.667 36.2316C184.667 36.2527 184.659 36.2716 184.643 36.2878C184.626 36.304 184.606 36.3121 184.582 36.3121H184.335C184.295 36.3121 184.258 36.2892 184.226 36.2437L183.474 35.1957L182.725 36.2437C182.698 36.2892 182.663 36.3121 182.62 36.3121H182.381ZM184.941 36.3121C184.92 36.3121 184.9 36.304 184.881 36.2878C184.864 36.2716 184.856 36.2527 184.856 36.2316C184.856 36.2127 184.862 36.1951 184.873 36.1789L185.799 34.8721L184.917 33.6139C184.909 33.6004 184.905 33.5829 184.905 33.5613C184.905 33.5397 184.913 33.5208 184.929 33.5046C184.945 33.4884 184.964 33.4803 184.986 33.4803H185.228C185.269 33.4803 185.305 33.5032 185.338 33.5491L186.05 34.5603L186.758 33.5491C186.785 33.5032 186.82 33.4803 186.863 33.4803H187.094C187.115 33.4803 187.134 33.4884 187.15 33.5046C187.167 33.5208 187.175 33.5397 187.175 33.5613C187.175 33.5856 187.169 33.6031 187.159 33.6139L186.289 34.8762L187.211 36.1789C187.222 36.1951 187.227 36.2127 187.227 36.2316C187.227 36.2527 187.219 36.2716 187.203 36.2878C187.187 36.304 187.167 36.3121 187.142 36.3121H186.895C186.855 36.3121 186.819 36.2892 186.786 36.2437L186.034 35.1957L185.285 36.2437C185.258 36.2892 185.223 36.3121 185.18 36.3121H184.941ZM187.765 36.3121C187.738 36.3121 187.715 36.304 187.696 36.2878C187.68 36.2689 187.672 36.246 187.672 36.2195V33.5735C187.672 33.5465 187.68 33.5248 187.696 33.5086C187.715 33.4897 187.738 33.4803 187.765 33.4803H187.979C188.006 33.4803 188.028 33.4897 188.044 33.5086C188.063 33.5248 188.072 33.5465 188.072 33.5735V35.9602H189.415C189.445 35.9602 189.468 35.9697 189.484 35.9886C189.503 36.0048 189.513 36.0277 189.513 36.0574V36.2195C189.513 36.246 189.503 36.2689 189.484 36.2878C189.465 36.304 189.442 36.3121 189.415 36.3121H187.765Z" fill="#61656D"/>
<path d="M168.844 32.277H168.394V37.9965H168.844V32.277Z" fill="#B2B6BB"/>
<path d="M179.221 32.277H178.771V37.9965H179.221V32.277Z" fill="#B2B6BB"/>
<path d="M201.581 37.7175C203.008 37.7175 204.164 36.561 204.164 35.1345C204.164 33.708 203.008 32.5515 201.581 32.5515C200.155 32.5515 198.998 33.708 198.998 35.1345C198.998 36.561 200.155 37.7175 201.581 37.7175Z" fill="#00FF38"/>
<path opacity="0.2" d="M201.581 37.7175C203.008 37.7175 204.164 36.561 204.164 35.1345C204.164 33.708 203.008 32.5515 201.581 32.5515C200.155 32.5515 198.998 33.708 198.998 35.1345C198.998 36.561 200.155 37.7175 201.581 37.7175Z" fill="white"/>
<path d="M211.027 30.567H210.577V39.7065H211.027V30.567Z" fill="#B2B6BB"/>
<path d="M208.255 34.518L207.022 35.7555L205.784 34.518H208.255Z" fill="#61656D"/>
<path d="M216.638 37.5195C216.818 37.497 216.953 37.452 217.039 37.389C217.124 37.3215 217.196 37.1865 217.255 36.9795L218.186 33.582C218.213 33.4875 218.236 33.4065 218.249 33.339C218.263 33.2715 218.267 33.2175 218.267 33.168C218.267 33.0375 218.231 32.961 218.159 32.925C218.087 32.889 217.939 32.8665 217.714 32.844V32.646H219.968V32.844C219.784 32.8665 219.649 32.9115 219.568 32.979C219.487 33.042 219.415 33.1815 219.361 33.3885L218.425 36.786L218.366 37.047C218.362 37.0695 218.357 37.0965 218.353 37.1235C218.348 37.1505 218.348 37.173 218.348 37.1955C218.348 37.3215 218.384 37.4025 218.452 37.4385C218.519 37.4745 218.668 37.5015 218.897 37.5195V37.7175H216.643V37.5195H216.638Z" fill="#61656D"/>
<path d="M225.477 33.033H230.336" stroke="#61656D" stroke-width="1.5" stroke-miterlimit="10"/>
<path d="M225.477 37.5735H230.336" stroke="#61656D" stroke-width="1.5" stroke-miterlimit="10"/>
<path d="M225.477 35.301H230.336" stroke="#61656D" stroke-width="1.5" stroke-miterlimit="10"/>
<path d="M226.399 36.4399H229.414" stroke="#61656D" stroke-width="1.5" stroke-miterlimit="10"/>
<path d="M226.305 34.0815H229.513" stroke="#61656D" stroke-width="1.5" stroke-miterlimit="10"/>
<path d="M238.914 36.8715H237.213C236.344 36.8715 235.642 36.1695 235.642 35.301C235.642 34.4325 236.344 33.7305 237.213 33.7305H238.914" stroke="#61656D" stroke-width="1.5" stroke-miterlimit="10"/>
<path d="M239.606 36.8715H241.307C242.176 36.8715 242.878 36.1695 242.878 35.301C242.878 34.4325 242.176 33.7305 241.307 33.7305H239.606" stroke="#61656D" stroke-width="1.5" stroke-miterlimit="10"/>
<path d="M237.802 35.301H240.718" stroke="#61656D" stroke-width="1.5" stroke-miterlimit="10"/>
<path d="M298.782 11.478C298.768 11.379 298.656 11.3025 298.552 11.3025C298.125 11.3115 297.765 10.9695 297.756 10.542C297.751 10.3125 297.846 10.0965 298.017 9.9435C298.093 9.876 298.102 9.7545 298.039 9.6735C297.873 9.4665 297.684 9.27301 297.477 9.10651C297.396 9.04351 297.279 9.0525 297.207 9.129C296.982 9.3675 296.631 9.44401 296.325 9.32701C296.019 9.19651 295.83 8.89051 295.848 8.55751C295.852 8.45401 295.776 8.36401 295.672 8.35051C295.407 8.31901 295.141 8.31901 294.876 8.35051C294.772 8.36401 294.696 8.44951 294.7 8.55301C294.714 8.88151 294.52 9.183 294.214 9.309C293.908 9.4215 293.566 9.345 293.337 9.111C293.269 9.0345 293.152 9.02551 293.071 9.08851C292.86 9.25501 292.666 9.44401 292.5 9.65551C292.437 9.73651 292.446 9.85351 292.522 9.92551C292.77 10.146 292.851 10.5015 292.72 10.812C292.581 11.109 292.279 11.298 291.951 11.289C291.847 11.2845 291.757 11.361 291.748 11.4645C291.717 11.73 291.717 12 291.748 12.27C291.757 12.3735 291.879 12.4455 291.978 12.4455C292.297 12.441 292.585 12.6345 292.707 12.9315C292.828 13.2375 292.752 13.584 292.509 13.8045C292.432 13.872 292.423 13.989 292.486 14.07C292.653 14.2815 292.837 14.4705 293.044 14.637C293.125 14.7045 293.242 14.6955 293.314 14.6145C293.539 14.376 293.89 14.295 294.196 14.4165C294.502 14.547 294.691 14.853 294.673 15.186C294.669 15.2895 294.745 15.3795 294.849 15.393C294.984 15.4065 295.119 15.4155 295.258 15.4155C295.389 15.4155 295.519 15.4065 295.645 15.393C295.749 15.3795 295.825 15.294 295.821 15.1905C295.807 14.862 296.001 14.5605 296.302 14.4345C296.608 14.322 296.95 14.3985 297.175 14.637C297.243 14.7135 297.36 14.7225 297.441 14.6595C297.652 14.493 297.846 14.304 298.012 14.0925C298.08 14.0115 298.071 13.8945 297.99 13.8225C297.666 13.539 297.634 13.0485 297.922 12.7245C298.071 12.5535 298.291 12.459 298.516 12.459H298.561C298.665 12.4635 298.755 12.387 298.768 12.2835C298.809 12.0135 298.809 11.7435 298.782 11.478ZM295.272 13.0575C294.619 13.0575 294.093 12.531 294.093 11.8785C294.093 11.226 294.619 10.6995 295.272 10.6995C295.924 10.6995 296.451 11.226 296.451 11.8785C296.451 12.5265 295.924 13.0575 295.272 13.0575Z" fill="white"/>
<path d="M304.551 14.5605C304.861 14.5605 305.108 14.3108 305.108 14.0025C305.108 13.6943 304.861 13.4445 304.551 13.4445C304.245 13.4445 303.993 13.6943 303.993 14.0025C303.993 14.3108 304.245 14.5605 304.551 14.5605Z" fill="white"/>
<path d="M304.551 12.4361C304.861 12.4361 305.108 12.1863 305.108 11.8781C305.108 11.5698 304.861 11.3201 304.551 11.3201C304.245 11.3201 303.993 11.5698 303.993 11.8781C303.993 12.1863 304.245 12.4361 304.551 12.4361Z" fill="white"/>
<path d="M304.551 10.3125C304.861 10.3125 305.108 10.0623 305.108 9.7545C305.108 9.44626 304.861 9.1965 304.551 9.1965C304.245 9.1965 303.993 9.44626 303.993 9.7545C303.993 10.0623 304.245 10.3125 304.551 10.3125Z" fill="white"/>
<path d="M202.068 100.889H153.459C152.793 100.889 152.253 100.349 152.253 99.683V84.5719C152.253 83.9059 152.793 83.366 153.459 83.366H202.068C202.734 83.366 203.274 83.9059 203.274 84.5719V99.683C203.274 100.349 202.734 100.889 202.068 100.889Z" fill="#00FF38"/>
<path opacity="0.2" d="M202.068 100.889H153.459C152.793 100.889 152.253 100.349 152.253 99.683V84.5719C152.253 83.9059 152.793 83.366 153.459 83.366H202.068C202.734 83.366 203.274 83.9059 203.274 84.5719V99.683C203.274 100.349 202.734 100.889 202.068 100.889Z" fill="white"/>
<path d="M193.576 88.2935H157.995C157.419 88.2935 156.946 87.8254 156.946 87.2449C156.946 86.6689 157.414 86.1964 157.995 86.1964H193.576C194.152 86.1964 194.625 86.6644 194.625 87.2449C194.616 87.8254 194.152 88.2935 193.576 88.2935Z" fill="#00FF38"/>
<path opacity="0.15" d="M171.607 98.054H158.431C157.612 98.054 156.951 97.3925 156.951 96.5734V94.1299C156.951 93.3109 157.612 92.6494 158.431 92.6494H171.607C172.426 92.6494 173.087 93.3109 173.087 94.1299V96.5734C173.087 97.3925 172.426 98.054 171.607 98.054Z" fill="white"/>
<path opacity="0.5" d="M193.576 88.2935H157.995C157.419 88.2935 156.946 87.8254 156.946 87.2449C156.946 86.6689 157.414 86.1964 157.995 86.1964H193.576C194.152 86.1964 194.625 86.6644 194.625 87.2449C194.616 87.8254 194.152 88.2935 193.576 88.2935Z" fill="white"/>
<path d="M171.607 98.054H158.431C157.612 98.054 156.951 97.3925 156.951 96.5734V94.1299C156.951 93.3109 157.612 92.6494 158.431 92.6494H171.607C172.426 92.6494 173.088 93.3109 173.088 94.1299V96.5734C173.088 97.3925 172.426 98.054 171.607 98.054Z" fill="#00FF38"/>
<path opacity="0.15" d="M171.607 98.054H158.431C157.612 98.054 156.951 97.3925 156.951 96.5734V94.1299C156.951 93.3109 157.612 92.6494 158.431 92.6494H171.607C172.426 92.6494 173.088 93.3109 173.088 94.1299V96.5734C173.088 97.3925 172.426 98.054 171.607 98.054Z" fill="white"/>
<path d="M171.607 98.054H158.431C157.612 98.054 156.951 97.3925 156.951 96.5734V94.1299C156.951 93.3109 157.612 92.6494 158.431 92.6494H171.607C172.426 92.6494 173.088 93.3109 173.088 94.1299V96.5734C173.088 97.3925 172.426 98.054 171.607 98.054Z" fill="white"/>
<path d="M161.883 76.935H113.274C112.608 76.935 112.068 76.395 112.068 75.729V60.618C112.068 59.952 112.608 59.412 113.274 59.412H161.883C162.549 59.412 163.089 59.952 163.089 60.618V75.729C163.089 76.395 162.549 76.935 161.883 76.935Z" fill="#00FF38"/>
<path opacity="0.5" d="M161.883 76.935H113.274C112.608 76.935 112.068 76.395 112.068 75.729V60.618C112.068 59.952 112.608 59.412 113.274 59.412H161.883C162.549 59.412 163.089 59.952 163.089 60.618V75.729C163.089 76.395 162.549 76.935 161.883 76.935Z" fill="white"/>
<path d="M161.883 148.786H113.274C112.608 148.786 112.068 148.247 112.068 147.581V132.465C112.068 131.799 112.608 131.259 113.274 131.259H161.883C162.549 131.259 163.089 131.799 163.089 132.465V147.576C163.089 148.247 162.549 148.786 161.883 148.786Z" fill="#00FF38"/>
<path opacity="0.5" d="M161.883 148.786H113.274C112.608 148.786 112.068 148.247 112.068 147.581V132.465C112.068 131.799 112.608 131.259 113.274 131.259H161.883C162.549 131.259 163.089 131.799 163.089 132.465V147.576C163.089 148.247 162.549 148.786 161.883 148.786Z" fill="white"/>
<path d="M153.386 136.191H117.805C117.229 136.191 116.756 135.723 116.756 135.143C116.756 134.567 117.224 134.094 117.805 134.094H153.386C153.962 134.094 154.435 134.562 154.435 135.143C154.43 135.719 153.967 136.191 153.386 136.191Z" fill="#00FF38"/>
<path d="M161.883 124.977H113.274C112.608 124.977 112.068 124.437 112.068 123.771V108.66C112.068 107.994 112.608 107.454 113.274 107.454H161.883C162.549 107.454 163.089 107.994 163.089 108.66V123.771C163.089 124.437 162.549 124.977 161.883 124.977Z" fill="#00FF38"/>
<path opacity="0.5" d="M161.883 124.977H113.274C112.608 124.977 112.068 124.437 112.068 123.771V108.66C112.068 107.994 112.608 107.454 113.274 107.454H161.883C162.549 107.454 163.089 107.994 163.089 108.66V123.771C163.089 124.437 162.549 124.977 161.883 124.977Z" fill="white"/>
<path d="M118.043 114.78H116.315C115.87 114.78 115.505 114.42 115.505 113.97V112.242C115.505 111.796 115.865 111.432 116.315 111.432H118.043C118.489 111.432 118.853 111.792 118.853 112.242V113.97C118.853 114.415 118.489 114.78 118.043 114.78Z" fill="#00FF38"/>
<path opacity="0.7" d="M118.043 114.78H116.315C115.87 114.78 115.505 114.42 115.505 113.97V112.242C115.505 111.796 115.865 111.432 116.315 111.432H118.043C118.489 111.432 118.853 111.792 118.853 112.242V113.97C118.853 114.415 118.489 114.78 118.043 114.78Z" fill="white"/>
<path d="M118.043 120.999H116.315C115.87 120.999 115.505 120.639 115.505 120.189V118.461C115.505 118.015 115.865 117.651 116.315 117.651H118.043C118.489 117.651 118.853 118.011 118.853 118.461V120.189C118.853 120.639 118.489 120.999 118.043 120.999Z" fill="#00FF38"/>
<path d="M145.314 113.916H122.053C121.603 113.916 121.238 113.551 121.238 113.102C121.238 112.652 121.603 112.287 122.053 112.287H145.314C145.764 112.287 146.128 112.652 146.128 113.102C146.128 113.551 145.764 113.916 145.314 113.916Z" fill="#00FF38"/>
<path d="M145.314 120.139H122.053C121.603 120.139 121.238 119.775 121.238 119.325C121.238 118.875 121.603 118.51 122.053 118.51H145.314C145.764 118.51 146.128 118.875 146.128 119.325C146.128 119.775 145.764 120.139 145.314 120.139Z" fill="#00FF38"/>
<path opacity="0.7" d="M145.314 113.916H122.053C121.603 113.916 121.238 113.551 121.238 113.102C121.238 112.652 121.603 112.287 122.053 112.287H145.314C145.764 112.287 146.128 112.652 146.128 113.102C146.128 113.551 145.764 113.916 145.314 113.916Z" fill="white"/>
<path opacity="0.7" d="M145.314 120.139H122.053C121.603 120.139 121.238 119.775 121.238 119.325C121.238 118.875 121.603 118.51 122.053 118.51H145.314C145.764 118.51 146.128 118.875 146.128 119.325C146.128 119.775 145.764 120.139 145.314 120.139Z" fill="white"/>
<path d="M158.841 113.916H152.437C151.987 113.916 151.622 113.551 151.622 113.102C151.622 112.652 151.987 112.287 152.437 112.287H158.841C159.291 112.287 159.655 112.652 159.655 113.102C159.655 113.551 159.291 113.916 158.841 113.916Z" fill="#00FF38"/>
<path d="M158.841 120.139H152.437C151.987 120.139 151.622 119.775 151.622 119.325C151.622 118.875 151.987 118.51 152.437 118.51H158.841C159.291 118.51 159.655 118.875 159.655 119.325C159.655 119.775 159.291 120.139 158.841 120.139Z" fill="#00FF38"/>
<path d="M120.118 145.952C118.264 145.952 116.761 144.449 116.761 142.595C116.761 140.741 118.264 139.237 120.118 139.237C121.972 139.237 123.475 140.741 123.475 142.595C123.475 144.449 121.972 145.952 120.118 145.952Z" fill="#00FF38"/>
<path d="M120.528 72.471C118.156 72.471 116.23 70.545 116.23 68.1735C116.23 65.802 118.156 63.876 120.528 63.876C122.899 63.876 124.825 65.802 124.825 68.1735C124.825 70.5495 122.904 72.471 120.528 72.471Z" fill="#00FF38"/>
<path d="M157.792 145.164H146.965C146.146 145.164 145.485 144.503 145.485 143.684V141.24C145.485 140.421 146.146 139.759 146.965 139.759H157.797C158.616 139.759 159.277 140.421 159.277 141.24V143.684C159.277 144.503 158.611 145.164 157.792 145.164Z" fill="#00FF38"/>
<path opacity="0.7" d="M157.792 145.164H146.965C146.146 145.164 145.485 144.503 145.485 143.684V141.24C145.485 140.421 146.146 139.759 146.965 139.759H157.797C158.616 139.759 159.277 140.421 159.277 141.24V143.684C159.277 144.503 158.611 145.164 157.792 145.164Z" fill="white"/>
<path d="M141.443 145.164H128.268C127.449 145.164 126.787 144.503 126.787 143.684V141.24C126.787 140.421 127.449 139.759 128.268 139.759H141.443C142.262 139.759 142.924 140.421 142.924 141.24V143.684C142.924 144.503 142.262 145.164 141.443 145.164Z" fill="#00FF38"/>
<path opacity="0.7" d="M141.443 145.164H128.268C127.449 145.164 126.787 144.503 126.787 143.684V141.24C126.787 140.421 127.449 139.759 128.268 139.759H141.443C142.262 139.759 142.924 140.421 142.924 141.24V143.684C142.924 144.503 142.262 145.164 141.443 145.164Z" fill="white"/>
<path d="M156.757 70.878H131.467C130.648 70.878 129.987 70.2165 129.987 69.3975V66.954C129.987 66.135 130.648 65.4735 131.467 65.4735H156.757C157.576 65.4735 158.238 66.135 158.238 66.954V69.3975C158.242 70.2165 157.576 70.878 156.757 70.878Z" fill="#00FF38"/>
<path opacity="0.7" d="M156.757 70.878H131.467C130.648 70.878 129.987 70.2165 129.987 69.3975V66.954C129.987 66.135 130.648 65.4735 131.467 65.4735H156.757C157.576 65.4735 158.238 66.135 158.238 66.954V69.3975C158.242 70.2165 157.576 70.878 156.757 70.878Z" fill="white"/>
<path d="M233.635 110.87H177.79C177.664 110.87 177.565 110.771 177.565 110.645V101.991C177.565 101.865 177.664 101.766 177.79 101.766C177.916 101.766 178.015 101.865 178.015 101.991V110.42H233.635C233.761 110.42 233.86 110.519 233.86 110.645C233.86 110.771 233.761 110.87 233.635 110.87Z" fill="#61656D"/>
<path d="M203.274 104.25C206.696 104.25 209.47 101.476 209.47 98.0535C209.47 94.6312 206.696 91.857 203.274 91.857C199.852 91.857 197.077 94.6312 197.077 98.0535C197.077 101.476 199.852 104.25 203.274 104.25Z" fill="#3F4249"/>
<path d="M206.095 97.406C206.095 99.0755 203.476 100.668 203.359 100.731C203.332 100.749 203.296 100.758 203.269 100.758C203.242 100.758 203.206 100.749 203.179 100.731C203.066 100.668 200.443 99.071 200.443 97.406C200.443 96.533 201.159 95.8174 202.032 95.8174C202.517 95.8174 202.967 96.0379 203.264 96.4069C203.566 96.0379 204.016 95.8174 204.497 95.8174C205.379 95.8174 206.095 96.533 206.095 97.406Z" fill="white"/>
<path d="M232.924 113.304L235.584 110.645L232.924 107.985V113.304Z" fill="#61656D" stroke="#61656D" stroke-miterlimit="10" stroke-linecap="round" stroke-linejoin="round"/>
<path d="M301.194 197.553C301.572 197.553 301.877 197.247 301.877 196.869C301.877 196.491 301.572 196.185 301.194 196.185C300.816 196.185 300.509 196.491 300.509 196.869C300.509 197.247 300.816 197.553 301.194 197.553Z" fill="#3F4249"/>
<path d="M301.193 196.185C301.153 196.185 301.117 196.189 301.081 196.198C301.405 196.252 301.652 196.531 301.652 196.869C301.652 197.206 301.405 197.485 301.081 197.539C301.117 197.544 301.153 197.553 301.193 197.553C301.572 197.553 301.877 197.247 301.877 196.869C301.877 196.491 301.572 196.185 301.193 196.185Z" fill="black"/>
<path d="M77.917 25.437C74.56 25.437 71.8375 22.7145 71.8375 19.3575C71.8375 16.0005 74.56 13.278 77.917 13.278C81.274 13.278 83.9966 16.0005 83.9966 19.3575C83.9921 22.7145 81.274 25.437 77.917 25.437Z" fill="white"/>
<path d="M77.917 19.533C77.008 19.533 76.252 18.84 76.171 17.94L76.054 16.6755C75.9595 15.6495 76.7695 14.7585 77.8 14.7585H78.034C79.069 14.7585 79.8745 15.645 79.78 16.6755L79.663 17.94C79.5775 18.8445 78.8215 19.533 77.917 19.533Z" fill="#00FF38"/>
<path d="M83.065 22.5885C82.822 22.9755 82.534 23.3355 82.2145 23.655C81.112 24.753 79.5955 25.437 77.917 25.437C75.748 25.437 73.8445 24.303 72.769 22.5885C73.066 21.2385 74.2765 20.226 75.7165 20.226H80.1175C81.562 20.226 82.7635 21.2385 83.065 22.5885Z" fill="#00FF38"/>
<path d="M93.1585 25.437C89.8015 25.437 87.0789 22.7145 87.0789 19.3575C87.0789 16.0005 89.8015 13.278 93.1585 13.278C96.5155 13.278 99.238 16.0005 99.238 19.3575C99.2335 22.7145 96.511 25.437 93.1585 25.437Z" fill="white"/>
<path d="M93.158 19.533C92.2491 19.533 91.4931 18.84 91.4121 17.94L91.2951 16.6755C91.2006 15.6495 92.0106 14.7585 93.041 14.7585H93.275C94.31 14.7585 95.1155 15.645 95.021 16.6755L94.904 17.94C94.8185 18.8445 94.058 19.533 93.158 19.533Z" fill="#3F4249"/>
<path d="M98.302 22.5885C98.059 22.9755 97.771 23.3355 97.4515 23.655C96.349 24.753 94.8325 25.437 93.154 25.437C90.985 25.437 89.0815 24.303 88.006 22.5885C88.303 21.2385 89.5135 20.226 90.9535 20.226H95.3545C96.799 20.226 98.005 21.2385 98.302 22.5885Z" fill="#3F4249"/>
</svg>
